JetBrainsMonoitalic-ExtraBold.ufo
<glyph name="quotedbl" format="2">
  <advance width="600" height="985"/>
  <unicode hex="0022"/>
  <outline>
    <contour>
      <point x="418.699" y="730" type="line"/>
      <point x="566.699" y="730" type="line"/>
      <point x="541.491" y="570" type="line"/>
      <point x="504.809" y="430" type="line"/>
      <point x="383.809" y="430" type="line"/>
      <point x="393.491" y="570" type="line"/>
    </contour>
    <contour>
      <point x="186.699" y="730" type="line"/>
      <point x="334.699" y="730" type="line"/>
      <point x="309.491" y="570" type="line"/>
      <point x="272.809" y="430" type="line"/>
      <point x="151.809" y="430" type="line"/>
      <point x="161.491" y="570" type="line"/>
    </contour>
  </outline>
</glyph>
<glyph name="numbersign" format="2">
  <advance width="600" height="985"/>
  <unicode hex="0023"/>
  <outline>
    <contour>
      <point x="251.048" y="720" type="line"/>
      <point x="358.048" y="720" type="line"/>
      <point x="119" y="0" type="line"/>
      <point x="12" y="0" type="line"/>
    </contour>
    <contour>
      <point x="481.048" y="720" type="line"/>
      <point x="588.048" y="720" type="line"/>
      <point x="349" y="0" type="line"/>
      <point x="242" y="0" type="line"/>
    </contour>
    <contour>
      <point x="84.12" y="550" type="line"/>
      <point x="610.12" y="550" type="line"/>
      <point x="594.28" y="450" type="line"/>
      <point x="68.28" y="450" type="line"/>
    </contour>
    <contour>
      <point x="5.768" y="270" type="line"/>
      <point x="530.768" y="270" type="line"/>
      <point x="514.928" y="170" type="line"/>
      <point x="-10.072" y="170" type="line"/>
    </contour>
  </outline>
</glyph>
<glyph name="ampersand" format="2">
  <advance width="600" height="985"/>
  <unicode hex="0026"/>
  <outline>
    <contour>
      <point x="280.28" y="440" type="line"/>
      <point x="265.232" y="345" type="line"/>
      <point x="251.232" y="345" type="line" smooth="yes"/>
      <point x="205.232" y="345"/>
      <point x="175.48" y="315"/>
      <point x="166.768" y="260" type="curve" smooth="yes"/>
      <point x="156.472" y="195" type="line" smooth="yes"/>
      <point x="147.76" y="140"/>
      <point x="173.008" y="110"/>
      <point x="218.008" y="110" type="curve" smooth="yes"/>
      <point x="265.008" y="110"/>
      <point x="300.602" y="139"/>
      <point x="323.146" y="174" type="curve" smooth="yes"/>
      <point x="442.608" y="360" type="line"/>
      <point x="582.608" y="360" type="line"/>
      <point x="422.8" y="115" type="line" smooth="yes"/>
      <point x="368.494" y="31"/>
      <point x="291" y="-10"/>
      <point x="190" y="-10" type="curve" smooth="yes"/>
      <point x="58" y="-10"/>
      <point x="-3.9616" y="66"/>
      <point x="16.472" y="195" type="curve" smooth="yes"/>
      <point x="26.768" y="260" type="line" smooth="yes"/>
      <point x="44.5088" y="372"/>
      <point x="119.28" y="440"/>
      <point x="225.28" y="440" type="curve" smooth="yes"/>
    </contour>
    <contour>
      <point x="137.294" y="551.098" type="curve" smooth="yes"/>
      <point x="154.227" y="658"/>
      <point x="245.632" y="730"/>
      <point x="365.632" y="730" type="curve" smooth="yes"/>
      <point x="488.632" y="730"/>
      <point x="558.594" y="654"/>
      <point x="540.536" y="540" type="curve"/>
      <point x="405.536" y="540" type="line"/>
      <point x="412.189" y="582"/>
      <point x="388.624" y="610"/>
      <point x="346.624" y="610" type="curve" smooth="yes"/>
      <point x="304.624" y="610"/>
      <point x="272.189" y="582"/>
      <point x="265.536" y="540" type="curve" smooth="yes"/>
      <point x="261.101" y="512"/>
      <point x="268.824" y="485"/>
      <point x="295.062" y="436" type="curve" smooth="yes"/>
      <point x="530" y="0" type="line"/>
      <point x="387" y="0" type="line"/>
      <point x="174.301" y="387" type="line" smooth="yes"/>
      <point x="140.28" y="450"/>
      <point x="129.042" y="499"/>
    </contour>
  </outline>
</glyph>
<glyph name="quotesingle" format="2">
  <advance width="600" height="985"/>
  <unicode hex="0027"/>
  <outline>
    <contour>
      <point x="302" y="730" type="line"/>
      <point x="450" y="730" type="line"/>
      <point x="424" y="570" type="line"/>
      <point x="390" y="430" type="line"/>
      <point x="269" y="430" type="line"/>
      <point x="276" y="570" type="line"/>
    </contour>
  </outline>
</glyph>
<glyph name="period" format="2">
  <advance width="600" height="985"/>
  <unicode hex="002E"/>
  <outline>
    <contour>
      <point x="263.512" y="180" type="curve" smooth="yes"/>
      <point x="293.512" y="180" type="line" smooth="yes"/>
      <point x="348.415" y="180"/>
      <point x="382.161" y="139.903"/>
      <point x="373.464" y="85" type="curve" smooth="yes"/>
      <point x="364.788" y="30.2248"/>
      <point x="318.191" y="-10"/>
      <point x="263.416" y="-10" type="curve" smooth="yes"/>
      <point x="233.416" y="-10" type="line" smooth="yes"/>
      <point x="178.641" y="-10"/>
      <point x="144.788" y="30.2248"/>
      <point x="153.464" y="85" type="curve" smooth="yes"/>
      <point x="162.161" y="139.903"/>
      <point x="208.609" y="180"/>
    </contour>
  </outline>
</glyph>
<glyph name="slash" format="2">
  <advance width="600" height="985"/>
  <unicode hex="002F"/>
  <outline>
    <contour>
      <point x="474.472" y="830" type="line"/>
      <point x="631.472" y="830" type="line"/>
      <point x="139.576" y="-110" type="line"/>
      <point x="-17.424" y="-110" type="line"/>
    </contour>
  </outline>
</glyph>
<glyph name="two" format="2">
  <advance width="600" height="985"/>
  <unicode hex="0032"/>
  <outline>
    <contour>
      <point x="576.942" y="511" type="curve" smooth="yes"/>
      <point x="561.894" y="416"/>
      <point x="505.173" y="342"/>
      <point x="380.234" y="254" type="curve" smooth="yes"/>
      <point x="276.67" y="181" type="line" smooth="yes"/>
      <point x="229.443" y="148"/>
      <point x="187.542" y="136"/>
      <point x="187.542" y="136" type="curve"/>
      <point x="186.909" y="132" type="line"/>
      <point x="186.909" y="132"/>
      <point x="231.384" y="135"/>
      <point x="286.384" y="135" type="curve" smooth="yes"/>
      <point x="527.384" y="135" type="line"/>
      <point x="506" y="0" type="line"/>
      <point x="0" y="0" type="line"/>
      <point x="24.552" y="155" type="line"/>
      <point x="313.866" y="359" type="line" smooth="yes"/>
      <point x="382.469" y="407"/>
      <point x="417.597" y="452"/>
      <point x="425.517" y="502" type="curve" smooth="yes"/>
      <point x="434.862" y="561"/>
      <point x="402.882" y="599"/>
      <point x="343.882" y="599" type="curve" smooth="yes"/>
      <point x="281.882" y="599"/>
      <point x="234.179" y="563"/>
      <point x="225.784" y="510" type="curve"/>
      <point x="75.784" y="510" type="line"/>
      <point x="96.6928" y="642"/>
      <point x="212.632" y="730"/>
      <point x="367.632" y="730" type="curve" smooth="yes"/>
      <point x="512.632" y="730"/>
      <point x="597.693" y="642"/>
    </contour>
  </outline>
</glyph>
<glyph name="four" format="2">
  <advance width="600" height="985"/>
  <unicode hex="0034"/>
  <outline>
    <contour>
      <point x="190.154" y="304" type="line"/>
      <point x="183.818" y="264" type="line"/>
      <point x="373.818" y="264" type="line"/>
      <point x="397.736" y="415" type="line"/>
      <point x="545.736" y="415" type="line"/>
      <point x="480" y="0" type="line"/>
      <point x="332" y="0" type="line"/>
      <point x="353.226" y="134" type="line"/>
      <point x="23.2256" y="134" type="line"/>
      <point x="57.9152" y="353" type="line"/>
      <point x="400.048" y="720" type="line"/>
      <point x="570.048" y="720" type="line"/>
    </contour>
  </outline>
</glyph>
<glyph name="five" format="2">
  <advance width="600" height="985"/>
  <unicode hex="0035"/>
  <outline>
    <contour>
      <point x="252.416" y="-10" type="curve" smooth="yes"/>
      <point x="407.416" y="-10"/>
      <point x="522.197" y="77"/>
      <point x="544.056" y="215" type="curve" smooth="yes"/>
      <point x="549.6" y="250" type="line" smooth="yes"/>
      <point x="570.192" y="380"/>
      <point x="500.498" y="464"/>
      <point x="373.498" y="464" type="curve" smooth="yes"/>
      <point x="266.498" y="464"/>
      <point x="229.618" y="389"/>
      <point x="229.618" y="389" type="curve"/>
      <point x="225.618" y="389" type="line"/>
      <point x="261.456" y="590" type="line"/>
      <point x="576.456" y="590" type="line"/>
      <point x="597.048" y="720" type="line"/>
      <point x="140.048" y="720" type="line"/>
      <point x="71.688" y="320" type="line"/>
      <point x="216.688" y="320" type="line"/>
      <point x="235.698" y="339"/>
      <point x="269.44" y="350"/>
      <point x="309.44" y="350" type="curve" smooth="yes"/>
      <point x="373.44" y="350"/>
      <point x="409.104" y="310"/>
      <point x="399.6" y="250" type="curve" smooth="yes"/>
      <point x="394.056" y="215" type="line" smooth="yes"/>
      <point x="384.552" y="155"/>
      <point x="336.216" y="115"/>
      <point x="272.216" y="115" type="curve" smooth="yes"/>
      <point x="222.216" y="115"/>
      <point x="184.018" y="139"/>
      <point x="177.72" y="175" type="curve"/>
      <point x="27.72" y="175" type="line"/>
      <point x="25.8208" y="62"/>
      <point x="112.416" y="-10"/>
    </contour>
  </outline>
</glyph>
<glyph name="six" format="2">
  <advance width="600" height="985"/>
  <unicode hex="0036"/>
  <outline>
    <contour>
      <point x="248.416" y="-10" type="curve" smooth="yes"/>
      <point x="89.416" y="-10"/>
      <point x="3.6224" y="86"/>
      <point x="27.1665" y="234.637" type="curve" smooth="yes"/>
      <point x="41.7968" y="327"/>
      <point x="94.736" y="415"/>
      <point x="187.477" y="527" type="curve" smooth="yes"/>
      <point x="348.048" y="720" type="line"/>
      <point x="515.048" y="720" type="line"/>
      <point x="311.874" y="479" type="line" smooth="yes"/>
      <point x="222.083" y="373"/>
      <point x="216.816" y="365"/>
      <point x="216.816" y="365" type="curve"/>
      <point x="222.816" y="365" type="line"/>
      <point x="222.816" y="365"/>
      <point x="282.646" y="446"/>
      <point x="377.646" y="446" type="curve" smooth="yes"/>
      <point x="498.646" y="446"/>
      <point x="566.707" y="358"/>
      <point x="545.798" y="226" type="curve" smooth="yes"/>
      <point x="523.306" y="84"/>
      <point x="405.416" y="-10"/>
    </contour>
    <contour>
      <point x="395.64" y="225" type="curve" smooth="yes"/>
      <point x="406.253" y="292"/>
      <point x="370.064" y="335"/>
      <point x="303.064" y="335" type="curve" smooth="yes"/>
      <point x="237.064" y="335"/>
      <point x="186.094" y="291"/>
      <point x="175.64" y="225" type="curve" smooth="yes"/>
      <point x="165.027" y="158"/>
      <point x="201.216" y="115"/>
      <point x="268.216" y="115" type="curve" smooth="yes"/>
      <point x="335.216" y="115"/>
      <point x="385.027" y="158"/>
    </contour>
  </outline>
</glyph>
<glyph name="seven" format="2">
  <advance width="600" height="985"/>
  <unicode hex="0037"/>
  <outline>
    <contour>
      <point x="231.872" y="580" type="line"/>
      <point x="215.082" y="474" type="line"/>
      <point x="80.0816" y="474" type="line"/>
      <point x="119.048" y="720" type="line"/>
      <point x="614.048" y="720" type="line"/>
      <point x="590.288" y="570" type="line"/>
      <point x="244" y="0" type="line"/>
      <point x="82" y="0" type="line"/>
      <point x="398.101" y="512" type="line" smooth="yes"/>
      <point x="420.803" y="548"/>
      <point x="448.714" y="579"/>
      <point x="448.714" y="579" type="curve"/>
      <point x="449.189" y="582" type="line"/>
      <point x="449.189" y="582"/>
      <point x="398.872" y="580"/>
      <point x="372.872" y="580" type="curve" smooth="yes"/>
    </contour>
  </outline>
</glyph>
<glyph name="nine" format="2">
  <advance width="600" height="985"/>
  <unicode hex="0039"/>
  <outline>
    <contour>
      <point x="365.632" y="730" type="curve" smooth="yes"/>
      <point x="524.632" y="730"/>
      <point x="610.426" y="634"/>
      <point x="586.882" y="485.363" type="curve" smooth="yes"/>
      <point x="572.251" y="393"/>
      <point x="519.312" y="305"/>
      <point x="426.571" y="193" type="curve" smooth="yes"/>
      <point x="266" y="0" type="line"/>
      <point x="99" y="0" type="line"/>
      <point x="302.174" y="241" type="line" smooth="yes"/>
      <point x="391.965" y="347"/>
      <point x="397.232" y="355"/>
      <point x="397.232" y="355" type="curve"/>
      <point x="391.232" y="355" type="line"/>
      <point x="391.232" y="355"/>
      <point x="331.402" y="274"/>
      <point x="236.402" y="274" type="curve" smooth="yes"/>
      <point x="115.402" y="274"/>
      <point x="47.3408" y="362"/>
      <point x="68.2496" y="494" type="curve" smooth="yes"/>
      <point x="90.7424" y="636"/>
      <point x="208.632" y="730"/>
    </contour>
    <contour>
      <point x="218.408" y="495" type="curve" smooth="yes"/>
      <point x="207.795" y="428"/>
      <point x="243.984" y="385"/>
      <point x="310.984" y="385" type="curve" smooth="yes"/>
      <point x="376.984" y="385"/>
      <point x="427.954" y="429"/>
      <point x="438.408" y="495" type="curve" smooth="yes"/>
      <point x="449.021" y="562"/>
      <point x="412.832" y="605"/>
      <point x="345.832" y="605" type="curve" smooth="yes"/>
      <point x="278.832" y="605"/>
      <point x="229.021" y="562"/>
    </contour>
  </outline>
</glyph>
<glyph name="colon" format="2">
  <advance width="600" height="985"/>
  <unicode hex="003A"/>
  <outline>
    <contour>
      <point x="266.928" y="170" type="curve" smooth="yes"/>
      <point x="286.928" y="170" type="line" smooth="yes"/>
      <point x="339.131" y="170"/>
      <point x="370.941" y="132.203"/>
      <point x="362.672" y="80" type="curve" smooth="yes"/>
      <point x="354.423" y="27.9248"/>
      <point x="310.491" y="-10"/>
      <point x="258.416" y="-10" type="curve" smooth="yes"/>
      <point x="238.416" y="-10" type="line" smooth="yes"/>
      <point x="186.341" y="-10"/>
      <point x="154.423" y="27.9248"/>
      <point x="162.672" y="80" type="curve" smooth="yes"/>
      <point x="170.941" y="132.203"/>
      <point x="214.725" y="170"/>
    </contour>
    <contour>
      <point x="328.704" y="560" type="curve" smooth="yes"/>
      <point x="348.704" y="560" type="line" smooth="yes"/>
      <point x="400.907" y="560"/>
      <point x="432.717" y="522.203"/>
      <point x="424.448" y="470" type="curve" smooth="yes"/>
      <point x="416.199" y="417.925"/>
      <point x="372.267" y="380"/>
      <point x="320.192" y="380" type="curve" smooth="yes"/>
      <point x="300.192" y="380" type="line" smooth="yes"/>
      <point x="248.117" y="380"/>
      <point x="216.199" y="417.925"/>
      <point x="224.448" y="470" type="curve" smooth="yes"/>
      <point x="232.717" y="522.203"/>
      <point x="276.501" y="560"/>
    </contour>
  </outline>
</glyph>
<glyph name="semicolon" format="2">
  <advance width="600" height="985"/>
  <unicode hex="003B"/>
  <outline>
    <contour>
      <point x="378.918" y="151" type="line"/>
      <point x="199.656" y="-160" type="line"/>
      <point x="69.656" y="-160" type="line"/>
      <point x="198.918" y="151" type="line"/>
    </contour>
    <contour>
      <point x="328.704" y="560" type="curve" smooth="yes"/>
      <point x="348.704" y="560" type="line" smooth="yes"/>
      <point x="400.907" y="560"/>
      <point x="432.717" y="522.203"/>
      <point x="424.448" y="470" type="curve" smooth="yes"/>
      <point x="416.199" y="417.925"/>
      <point x="372.267" y="380"/>
      <point x="320.192" y="380" type="curve" smooth="yes"/>
      <point x="300.192" y="380" type="line" smooth="yes"/>
      <point x="248.117" y="380"/>
      <point x="216.199" y="417.925"/>
      <point x="224.448" y="470" type="curve" smooth="yes"/>
      <point x="232.717" y="522.203"/>
      <point x="276.501" y="560"/>
    </contour>
  </outline>
</glyph>
<glyph name="less" format="2">
  <advance width="600" height="985"/>
  <unicode hex="003C"/>
  <outline>
    <contour>
      <point x="162.579" y="332" type="curve"/>
      <point x="160.995" y="322" type="line"/>
      <point x="160.995" y="322"/>
      <point x="213.52" y="319"/>
      <point x="249.144" y="304" type="curve" smooth="yes"/>
      <point x="507.403" y="192" type="line"/>
      <point x="486.494" y="60" type="line"/>
      <point x="57.8576" y="258" type="line"/>
      <point x="80.5088" y="401" type="line"/>
      <point x="572.03" y="600" type="line"/>
      <point x="549.221" y="456" type="line"/>
      <point x="256.272" y="349" type="line" smooth="yes"/>
      <point x="214.896" y="334"/>
      <point x="162.579" y="332"/>
    </contour>
  </outline>
</glyph>
<glyph name="equal" format="2">
  <advance width="600" height="985"/>
  <unicode hex="003D"/>
  <outline>
    <contour>
      <point x="73.56" y="275" type="line"/>
      <point x="513.56" y="275" type="line"/>
      <point x="491.384" y="135" type="line"/>
      <point x="51.384" y="135" type="line"/>
    </contour>
    <contour>
      <point x="113.16" y="525" type="line"/>
      <point x="553.16" y="525" type="line"/>
      <point x="530.984" y="385" type="line"/>
      <point x="90.984" y="385" type="line"/>
    </contour>
  </outline>
</glyph>
<glyph name="question" format="2">
  <advance width="600" height="985"/>
  <unicode hex="003F"/>
  <outline>
    <contour>
      <point x="217.225" y="140" type="curve" smooth="yes"/>
      <point x="247.225" y="140" type="line" smooth="yes"/>
      <point x="292.225" y="140"/>
      <point x="317.289" y="112"/>
      <point x="309.796" y="69.5" type="curve" smooth="yes"/>
      <point x="302.303" y="27"/>
      <point x="267.543" y="0"/>
      <point x="221.543" y="0" type="curve" smooth="yes"/>
      <point x="192.543" y="0" type="line" smooth="yes"/>
      <point x="147.543" y="0"/>
      <point x="122.479" y="28"/>
      <point x="129.884" y="70" type="curve" smooth="yes"/>
      <point x="137.289" y="112"/>
      <point x="172.225" y="140"/>
    </contour>
    <contour>
      <point x="549.992" y="505" type="curve" smooth="yes"/>
      <point x="530.826" y="384"/>
      <point x="436.312" y="305"/>
      <point x="309.312" y="305" type="curve"/>
      <point x="296.64" y="225" type="line"/>
      <point x="171.64" y="225" type="line"/>
      <point x="200.696" y="440" type="line"/>
      <point x="300.696" y="440" type="line" smooth="yes"/>
      <point x="355.696" y="440"/>
      <point x="393.814" y="466"/>
      <point x="400.784" y="510" type="curve" smooth="yes"/>
      <point x="407.754" y="554"/>
      <point x="377.872" y="580"/>
      <point x="321.872" y="580" type="curve" smooth="yes"/>
      <point x="156.872" y="580" type="line"/>
      <point x="179.048" y="720" type="line"/>
      <point x="334.048" y="720" type="line" smooth="yes"/>
      <point x="485.048" y="720"/>
      <point x="570.584" y="635"/>
    </contour>
  </outline>
</glyph>
<glyph name="at" format="2">
  <advance width="600" height="985"/>
  <unicode hex="0040"/>
  <outline>
    <contour>
      <point x="496.387" y="490" type="curve" smooth="yes"/>
      <point x="499.913" y="510" type="line" smooth="yes"/>
      <point x="512.607" y="582"/>
      <point x="466.188" y="625"/>
      <point x="375.188" y="625" type="curve" smooth="yes"/>
      <point x="267.188" y="625"/>
      <point x="193.552" y="559"/>
      <point x="172.572" y="440" type="curve" smooth="yes"/>
      <point x="117.038" y="125" type="line" smooth="yes"/>
      <point x="96.5867" y="9"/>
      <point x="149.303" y="-55"/>
      <point x="265.303" y="-55" type="curve" smooth="yes"/>
      <point x="335.303" y="-55" type="line"/>
      <point x="315.91" y="-165" type="line"/>
      <point x="245.91" y="-165" type="line" smooth="yes"/>
      <point x="59.9105" y="-165"/>
      <point x="-34.6965" y="-55"/>
      <point x="-2.9625" y="125" type="curve" smooth="yes"/>
      <point x="52.572" y="440" type="line" smooth="yes"/>
      <point x="84.306" y="620"/>
      <point x="213.699" y="730"/>
      <point x="393.699" y="730" type="curve" smooth="yes"/>
      <point x="559.699" y="730"/>
      <point x="644.242" y="648"/>
      <point x="619.913" y="510" type="curve" smooth="yes"/>
      <point x="543.223" y="75" type="line"/>
      <point x="432.223" y="75" type="line"/>
      <point x="455.61" y="219" type="line"/>
      <point x="448.61" y="219" type="line"/>
      <point x="479.11" y="392" type="line"/>
      <point x="484.11" y="392" type="line"/>
      <point x="484.11" y="392"/>
      <point x="487.572" y="440"/>
    </contour>
    <contour>
      <point x="418.283" y="410" type="curve" smooth="yes"/>
      <point x="382.283" y="410"/>
      <point x="357.523" y="383"/>
      <point x="346.416" y="320" type="curve" smooth="yes"/>
      <point x="332.312" y="240" type="line" smooth="yes"/>
      <point x="322.087" y="182"/>
      <point x="333.445" y="150"/>
      <point x="372.445" y="150" type="curve" smooth="yes"/>
      <point x="414.445" y="150"/>
      <point x="441.91" y="181"/>
      <point x="452.312" y="240" type="curve"/>
      <point x="467.312" y="240" type="line"/>
      <point x="447.919" y="130"/>
      <point x="390.46" y="65"/>
      <point x="311.46" y="65" type="curve" smooth="yes"/>
      <point x="221.46" y="65"/>
      <point x="190.803" y="118"/>
      <point x="212.312" y="240" type="curve" smooth="yes"/>
      <point x="226.416" y="320" type="line" smooth="yes"/>
      <point x="247.925" y="442"/>
      <point x="297.269" y="495"/>
      <point x="387.269" y="495" type="curve" smooth="yes"/>
      <point x="466.269" y="495"/>
      <point x="500.809" y="430"/>
      <point x="481.416" y="320" type="curve"/>
      <point x="466.416" y="320" type="line"/>
      <point x="476.818" y="379"/>
      <point x="460.283" y="410"/>
    </contour>
  </outline>
</glyph>
<glyph name="A" format="2">
  <advance width="600" height="985"/>
  <unicode hex="0041"/>
  <outline>
    <contour>
      <point x="540" y="0" type="line" name="ab01"/>
      <point x="392" y="0" type="line"/>
      <point x="380.136" y="165" type="line" name="dv01"/>
      <point x="179.136" y="165" type="line"/>
      <point x="115" y="0" type="line" name="ab02"/>
      <point x="-40" y="0" type="line"/>
      <point x="266.048" y="720" type="line" name="at01"/>
      <point x="466.048" y="720" type="line"/>
    </contour>
    <contour>
      <point x="370.669" y="282" type="line" name="dv02"/>
      <point x="353.21" y="519" type="line" smooth="yes"/>
      <point x="350.546" y="559"/>
      <point x="354.208" y="620"/>
      <point x="354.208" y="620" type="curve"/>
      <point x="348.208" y="620" type="line"/>
      <point x="348.208" y="620"/>
      <point x="331.546" y="559"/>
      <point x="316.21" y="519" type="curve" smooth="yes"/>
      <point x="224.669" y="282" type="line"/>
    </contour>
  </outline>
</glyph>
<glyph name="B" format="2">
  <advance width="600" height="985"/>
  <unicode hex="0042"/>
  <outline>
    <contour>
      <point x="576.902" y="536" type="curve" smooth="yes"/>
      <point x="562.488" y="445"/>
      <point x="497.142" y="386"/>
      <point x="406.192" y="380" type="curve"/>
      <point x="404.925" y="372" type="line"/>
      <point x="502.45" y="369"/>
      <point x="553.629" y="307"/>
      <point x="538.106" y="209" type="curve" smooth="yes"/>
      <point x="517.672" y="80"/>
      <point x="411" y="0"/>
      <point x="260" y="0" type="curve" smooth="yes"/>
      <point x="13" y="0" type="line"/>
      <point x="127.048" y="720" type="line"/>
      <point x="368.048" y="720" type="line" smooth="yes"/>
      <point x="515.048" y="720"/>
      <point x="594.96" y="650"/>
    </contour>
    <contour>
      <point x="388.214" y="216" type="curve" smooth="yes"/>
      <point x="397.877" y="277"/>
      <point x="364.579" y="313"/>
      <point x="298.579" y="313" type="curve" smooth="yes"/>
      <point x="207.579" y="313" type="line"/>
      <point x="177.008" y="120" type="line"/>
      <point x="268.008" y="120" type="line" smooth="yes"/>
      <point x="334.008" y="120"/>
      <point x="378.552" y="155"/>
    </contour>
    <contour>
      <point x="422.948" y="517.349" type="curve" smooth="yes"/>
      <point x="430.971" y="568"/>
      <point x="400.04" y="600"/>
      <point x="342.04" y="600" type="curve" smooth="yes"/>
      <point x="253.04" y="600" type="line"/>
      <point x="226.587" y="433" type="line"/>
      <point x="315.587" y="433" type="line" smooth="yes"/>
      <point x="372.587" y="433"/>
      <point x="414.814" y="466"/>
    </contour>
  </outline>
</glyph>
<glyph name="D" format="2">
  <advance width="600" height="985"/>
  <unicode hex="0044"/>
  <outline>
    <contour>
      <point x="272.176" y="140" type="curve" smooth="yes"/>
      <point x="185.176" y="140" type="line"/>
      <point x="254.872" y="580" type="line"/>
      <point x="341.872" y="580" type="line" smooth="yes"/>
      <point x="402.872" y="580"/>
      <point x="437.853" y="542"/>
      <point x="428.982" y="486" type="curve" smooth="yes"/>
      <point x="389.224" y="235" type="line" smooth="yes"/>
      <point x="380.195" y="178"/>
      <point x="333.176" y="140"/>
    </contour>
    <contour>
      <point x="250" y="0" type="line" smooth="yes"/>
      <point x="401" y="0"/>
      <point x="516.89" y="94"/>
      <point x="539.224" y="235" type="curve" smooth="yes"/>
      <point x="578.982" y="486" type="line" smooth="yes"/>
      <point x="601.317" y="627"/>
      <point x="515.048" y="720"/>
      <point x="364.048" y="720" type="curve" smooth="yes"/>
      <point x="127.048" y="720" type="line"/>
      <point x="13" y="0" type="line"/>
    </contour>
  </outline>
</glyph>
<glyph name="E" format="2">
  <advance width="600" height="985"/>
  <unicode hex="0045"/>
  <outline>
    <contour>
      <point x="144.048" y="720" type="line"/>
      <point x="599.048" y="720" type="line"/>
      <point x="578.456" y="590" type="line"/>
      <point x="273.456" y="590" type="line"/>
      <point x="248.746" y="434" type="line"/>
      <point x="518.746" y="434" type="line"/>
      <point x="498.154" y="304" type="line"/>
      <point x="228.154" y="304" type="line"/>
      <point x="200.592" y="130" type="line"/>
      <point x="505.592" y="130" type="line"/>
      <point x="485" y="0" type="line"/>
      <point x="30" y="0" type="line"/>
    </contour>
  </outline>
  <guideline angle="0" x="0" y="434"/>
  <guideline angle="0" x="0" y="304"/>
</glyph>
<glyph name="H" format="2">
  <advance width="600" height="750"/>
  <unicode hex="0048"/>
  <outline>
    <contour>
      <point x="449.048" y="720" type="line"/>
      <point x="405.33" y="444" type="line"/>
      <point x="235.33" y="444" type="line"/>
      <point x="279.048" y="720" type="line"/>
      <point x="129.048" y="720" type="line"/>
      <point x="15" y="0" type="line"/>
      <point x="165" y="0" type="line"/>
      <point x="213.154" y="304" type="line"/>
      <point x="383.154" y="304" type="line"/>
      <point x="335" y="0" type="line"/>
      <point x="485" y="0" type="line"/>
      <point x="599.048" y="720" type="line"/>
    </contour>
  </outline>
</glyph>
<glyph name="I" format="2">
  <advance width="600" height="985"/>
  <unicode hex="0049"/>
  <outline>
    <contour>
      <point x="139.048" y="720" type="line"/>
      <point x="589.048" y="720" type="line"/>
      <point x="568.456" y="590" type="line"/>
      <point x="418.456" y="590" type="line"/>
      <point x="345.592" y="130" type="line"/>
      <point x="495.592" y="130" type="line"/>
      <point x="475" y="0" type="line"/>
      <point x="25" y="0" type="line"/>
      <point x="45.592" y="130" type="line"/>
      <point x="195.592" y="130" type="line"/>
      <point x="268.456" y="590" type="line"/>
      <point x="118.456" y="590" type="line"/>
    </contour>
  </outline>
</glyph>
<glyph name="J" format="2">
  <advance width="600" height="985"/>
  <unicode hex="004A"/>
  <outline>
    <contour>
      <point x="238.85" y="119" type="curve" smooth="yes"/>
      <point x="180.85" y="119"/>
      <point x="146.71" y="156"/>
      <point x="153.264" y="210" type="curve"/>
      <point x="3.264" y="210" type="line"/>
      <point x="-14.12" y="75"/>
      <point x="70.2576" y="-11"/>
      <point x="218.258" y="-11" type="curve" smooth="yes"/>
      <point x="374.258" y="-11"/>
      <point x="481.88" y="75"/>
      <point x="504.531" y="218" type="curve" smooth="yes"/>
      <point x="584.206" y="721" type="line"/>
      <point x="194.206" y="721" type="line"/>
      <point x="172.03" y="581" type="line"/>
      <point x="412.03" y="581" type="line"/>
      <point x="354.531" y="218" type="line" smooth="yes"/>
      <point x="345.027" y="158"/>
      <point x="299.85" y="119"/>
    </contour>
  </outline>
</glyph>
<glyph name="K" format="2">
  <advance width="600" height="985"/>
  <unicode hex="004B"/>
  <outline>
    <contour>
      <point x="15" y="0" type="line"/>
      <point x="129.048" y="720" type="line"/>
      <point x="279.048" y="720" type="line"/>
      <point x="234.379" y="438" type="line"/>
      <point x="310.379" y="438" type="line"/>
      <point x="475.048" y="720" type="line"/>
      <point x="638.048" y="720" type="line"/>
      <point x="432.45" y="369" type="line"/>
      <point x="530" y="0" type="line"/>
      <point x="367" y="0" type="line"/>
      <point x="292.52" y="300" type="line"/>
      <point x="212.52" y="300" type="line"/>
      <point x="165" y="0" type="line"/>
    </contour>
  </outline>
</glyph>
<glyph name="L" format="2">
  <advance width="600" height="985"/>
  <unicode hex="004C"/>
  <outline>
    <contour>
      <point x="309.048" y="720" type="line"/>
      <point x="217.176" y="140" type="line"/>
      <point x="512.176" y="140" type="line"/>
      <point x="490" y="0" type="line"/>
      <point x="45" y="0" type="line"/>
      <point x="159.048" y="720" type="line"/>
    </contour>
  </outline>
</glyph>
<glyph name="M" format="2">
  <advance width="600" height="985"/>
  <unicode hex="004D"/>
  <outline>
    <contour>
      <point x="104.048" y="720" type="line" name="at01"/>
      <point x="278.048" y="720" type="line"/>
      <point x="304.933" y="492" type="line" smooth="yes"/>
      <point x="309.597" y="452"/>
      <point x="305.984" y="385"/>
      <point x="305.984" y="385" type="curve"/>
      <point x="313.984" y="385" type="line"/>
      <point x="313.984" y="385"/>
      <point x="329.597" y="452"/>
      <point x="346.933" y="492" type="curve" smooth="yes"/>
      <point x="443.048" y="720" type="line" name="at02"/>
      <point x="624.048" y="720" type="line"/>
      <point x="510" y="0" type="line" name="ab01"/>
      <point x="377" y="0" type="line" name="ah01"/>
      <point x="446.696" y="440" type="line" smooth="yes"/>
      <point x="458.259" y="513"/>
      <point x="495" y="625"/>
      <point x="495" y="625" type="curve"/>
      <point x="480" y="625" type="line" name="sh01"/>
      <point x="480" y="625"/>
      <point x="439.576" y="515"/>
      <point x="423.24" y="475" type="curve" smooth="yes"/>
      <point x="353.312" y="305" type="line"/>
      <point x="245.312" y="305" type="line"/>
      <point x="224.24" y="475" type="line" smooth="yes"/>
      <point x="219.418" y="514"/>
      <point x="216" y="625"/>
      <point x="216" y="625" type="curve" name="sh03"/>
      <point x="202" y="625" type="line"/>
      <point x="202" y="625"/>
      <point x="204.259" y="513"/>
      <point x="192.696" y="440" type="curve" smooth="yes" name="sh02"/>
      <point x="123" y="0" type="line" name="ab02"/>
      <point x="-10" y="0" type="line"/>
    </contour>
  </outline>
</glyph>
<glyph name="O" format="2">
  <advance width="600" height="985"/>
  <unicode hex="004F"/>
  <outline>
    <contour>
      <point x="182.056" y="215" type="curve" smooth="yes"/>
      <point x="228.15" y="506" type="line" smooth="yes"/>
      <point x="237.179" y="563"/>
      <point x="283.04" y="600"/>
      <point x="345.04" y="600" type="curve" smooth="yes"/>
      <point x="407.04" y="600"/>
      <point x="441.179" y="563"/>
      <point x="432.15" y="506" type="curve" smooth="yes"/>
      <point x="386.056" y="215" type="line" smooth="yes"/>
      <point x="377.027" y="158"/>
      <point x="331.166" y="121"/>
      <point x="269.166" y="121" type="curve" smooth="yes"/>
      <point x="207.166" y="121"/>
      <point x="173.027" y="158"/>
    </contour>
    <contour>
      <point x="32.056" y="215" type="line" smooth="yes"/>
      <point x="10.8304" y="81"/>
      <point x="98.416" y="-10"/>
      <point x="248.416" y="-10" type="curve" smooth="yes"/>
      <point x="402.416" y="-10"/>
      <point x="514.197" y="77"/>
      <point x="536.056" y="215" type="curve" smooth="yes"/>
      <point x="582.15" y="506" type="line" smooth="yes"/>
      <point x="603.218" y="639"/>
      <point x="515.632" y="730"/>
      <point x="365.632" y="730" type="curve" smooth="yes"/>
      <point x="211.632" y="730"/>
      <point x="99.8512" y="643"/>
      <point x="78.1504" y="506" type="curve" smooth="yes"/>
    </contour>
  </outline>
</glyph>
<glyph name="P" format="2">
  <advance width="600" height="985"/>
  <unicode hex="0050"/>
  <outline>
    <contour>
      <point x="163" y="0" type="line"/>
      <point x="13" y="0" type="line"/>
      <point x="127.048" y="720" type="line"/>
      <point x="379.048" y="720" type="line" smooth="yes"/>
      <point x="535.048" y="720"/>
      <point x="620.267" y="633"/>
      <point x="598.408" y="495" type="curve" smooth="yes"/>
      <point x="576.39" y="356"/>
      <point x="465.768" y="270"/>
      <point x="307.768" y="270" type="curve" smooth="yes"/>
      <point x="205.768" y="270" type="line"/>
    </contour>
    <contour>
      <point x="327.568" y="395" type="line" smooth="yes"/>
      <point x="393.568" y="395"/>
      <point x="438.904" y="435"/>
      <point x="448.408" y="495" type="curve" smooth="yes"/>
      <point x="457.912" y="555"/>
      <point x="425.248" y="595"/>
      <point x="359.248" y="595" type="curve" smooth="yes"/>
      <point x="257.248" y="595" type="line"/>
      <point x="225.568" y="395" type="line"/>
    </contour>
  </outline>
</glyph>
<glyph name="Q" format="2">
  <advance width="600" height="985"/>
  <unicode hex="0051"/>
  <outline>
    <component base="O"/>
    <contour>
      <point x="222.821" y="62" type="line"/>
      <point x="370.821" y="62" type="line"/>
      <point x="484.864" y="-165" type="line"/>
      <point x="336.864" y="-165" type="line"/>
    </contour>
  </outline>
</glyph>
<glyph name="R" format="2">
  <advance width="600" height="985"/>
  <unicode hex="0052"/>
  <outline>
    <contour>
      <point x="164" y="0" type="line"/>
      <point x="15" y="0" type="line"/>
      <point x="129.048" y="720" type="line"/>
      <point x="369.048" y="720" type="line" smooth="yes"/>
      <point x="525.048" y="720"/>
      <point x="610.584" y="635"/>
      <point x="589.2" y="500" type="curve" smooth="yes"/>
      <point x="567.658" y="364"/>
      <point x="456.352" y="280"/>
      <point x="299.352" y="280" type="curve" smooth="yes"/>
      <point x="208.352" y="280" type="line"/>
    </contour>
    <contour>
      <point x="317.568" y="395" type="line" smooth="yes"/>
      <point x="383.568" y="395"/>
      <point x="428.904" y="435"/>
      <point x="438.408" y="495" type="curve" smooth="yes"/>
      <point x="447.912" y="555"/>
      <point x="415.248" y="595"/>
      <point x="349.248" y="595" type="curve" smooth="yes"/>
      <point x="258.248" y="595" type="line"/>
      <point x="226.568" y="395" type="line"/>
    </contour>
    <contour>
      <point x="274.163" y="323" type="line"/>
      <point x="424.163" y="323" type="line"/>
      <point x="520" y="0" type="line"/>
      <point x="362" y="0" type="line"/>
    </contour>
  </outline>
</glyph>
<glyph name="S" format="2">
  <advance width="600" height="985"/>
  <unicode hex="0053"/>
  <outline>
    <contour>
      <point x="248.416" y="-10" type="curve" smooth="yes"/>
      <point x="100.416" y="-10"/>
      <point x="14.9296" y="69"/>
      <point x="25.888" y="195" type="curve"/>
      <point x="175.888" y="195" type="line"/>
      <point x="173.126" y="146"/>
      <point x="207.008" y="120"/>
      <point x="272.008" y="120" type="curve" smooth="yes"/>
      <point x="338.008" y="120"/>
      <point x="378.918" y="151"/>
      <point x="386.515" y="198.957" type="curve" smooth="yes"/>
      <point x="393.333" y="242"/>
      <point x="369.402" y="274"/>
      <point x="323.144" y="285" type="curve" smooth="yes"/>
      <point x="249.837" y="302" type="line" smooth="yes"/>
      <point x="124.43" y="331"/>
      <point x="67.7856" y="409"/>
      <point x="86.16" y="525" type="curve" smooth="yes"/>
      <point x="105.485" y="647"/>
      <point x="214.79" y="731"/>
      <point x="365.79" y="731" type="curve" smooth="yes"/>
      <point x="507.79" y="731"/>
      <point x="587.752" y="655"/>
      <point x="577.11" y="531" type="curve"/>
      <point x="427.11" y="531" type="line"/>
      <point x="429.08" y="575"/>
      <point x="397.198" y="601"/>
      <point x="341.198" y="601" type="curve" smooth="yes"/>
      <point x="283.198" y="601"/>
      <point x="243.288" y="570"/>
      <point x="236.482" y="527.033" type="curve" smooth="yes"/>
      <point x="230.616" y="490"/>
      <point x="252.022" y="461"/>
      <point x="298.28" y="450" type="curve" smooth="yes"/>
      <point x="375.429" y="432" type="line" smooth="yes"/>
      <point x="499.835" y="403"/>
      <point x="556.322" y="324"/>
      <point x="537.63" y="206" type="curve" smooth="yes"/>
      <point x="517.355" y="78"/>
      <point x="402.416" y="-10"/>
    </contour>
  </outline>
</glyph>
<glyph name="U" format="2">
  <advance width="600" height="985"/>
  <unicode hex="0055"/>
  <outline>
    <contour>
      <point x="269.008" y="120" type="curve" smooth="yes"/>
      <point x="212.008" y="120"/>
      <point x="184.394" y="154"/>
      <point x="194.056" y="215" type="curve" smooth="yes"/>
      <point x="274.048" y="720" type="line"/>
      <point x="124.048" y="720" type="line"/>
      <point x="43.8976" y="214" type="line" smooth="yes"/>
      <point x="21.88" y="75"/>
      <point x="100.416" y="-10"/>
      <point x="248.416" y="-10" type="curve" smooth="yes"/>
      <point x="396.416" y="-10"/>
      <point x="502.038" y="76"/>
      <point x="523.898" y="214" type="curve" smooth="yes"/>
      <point x="604.048" y="720" type="line"/>
      <point x="454.048" y="720" type="line"/>
      <point x="374.056" y="215" type="line" smooth="yes"/>
      <point x="364.394" y="154"/>
      <point x="325.008" y="120"/>
    </contour>
  </outline>
</glyph>
<glyph name="V" format="2">
  <advance width="600" height="985"/>
  <unicode hex="0056"/>
  <outline>
    <contour>
      <point x="265.424" y="110" type="curve"/>
      <point x="271.424" y="110" type="line"/>
      <point x="271.424" y="110"/>
      <point x="282.978" y="164"/>
      <point x="298.314" y="204" type="curve" smooth="yes"/>
      <point x="499.048" y="720" type="line"/>
      <point x="652.048" y="720" type="line"/>
      <point x="348" y="0" type="line"/>
      <point x="148" y="0" type="line"/>
      <point x="76.048" y="720" type="line"/>
      <point x="227.048" y="720" type="line"/>
      <point x="264.472" y="205" type="line" smooth="yes"/>
      <point x="267.136" y="165"/>
      <point x="265.424" y="110"/>
    </contour>
  </outline>
</glyph>
<glyph name="W" format="2">
  <advance width="600" height="985"/>
  <unicode hex="0057"/>
  <outline>
    <contour>
      <point x="422.048" y="720" type="line" name="at01"/>
      <point x="398.333" y="242" type="line" smooth="yes"/>
      <point x="395.997" y="202"/>
      <point x="383.84" y="100"/>
      <point x="383.84" y="100" type="curve"/>
      <point x="396.84" y="100" type="line"/>
      <point x="396.84" y="100"/>
      <point x="410.997" y="202"/>
      <point x="420.333" y="242" type="curve" smooth="yes"/>
      <point x="530.048" y="720" type="line" name="at02"/>
      <point x="654.048" y="720" type="line"/>
      <point x="467" y="0" type="line" name="ab01"/>
      <point x="311" y="0" type="line"/>
      <point x="336.24" y="475" type="line" smooth="yes"/>
      <point x="338.685" y="522"/>
      <point x="356.792" y="630"/>
      <point x="356.792" y="630" type="curve"/>
      <point x="342.792" y="630" type="line"/>
      <point x="342.792" y="630"/>
      <point x="325.685" y="522"/>
      <point x="313.24" y="475" type="curve" smooth="yes"/>
      <point x="185" y="0" type="line" name="ab02"/>
      <point x="32" y="0" type="line"/>
      <point x="74.048" y="720" type="line" name="at03"/>
      <point x="197.048" y="720" type="line"/>
      <point x="158.333" y="242" type="line" smooth="yes"/>
      <point x="154.997" y="202"/>
      <point x="136.84" y="100"/>
      <point x="136.84" y="100" type="curve"/>
      <point x="149.84" y="100" type="line"/>
      <point x="149.84" y="100"/>
      <point x="166.997" y="202"/>
      <point x="178.333" y="242" type="curve" smooth="yes"/>
      <point x="308.048" y="720" type="line"/>
    </contour>
  </outline>
</glyph>
<glyph name="X" format="2">
  <advance width="600" height="985"/>
  <unicode hex="0058"/>
  <outline>
    <contour>
      <point x="-31" y="0" type="line"/>
      <point x="224.083" y="373" type="line"/>
      <point x="97.048" y="720" type="line"/>
      <point x="255.048" y="720" type="line"/>
      <point x="308.338" y="564" type="line" smooth="yes"/>
      <point x="322.843" y="523"/>
      <point x="323.517" y="502"/>
      <point x="323.517" y="502" type="curve"/>
      <point x="328.517" y="502" type="line"/>
      <point x="328.517" y="502"/>
      <point x="335.843" y="523"/>
      <point x="360.862" y="561" type="curve" smooth="yes"/>
      <point x="467.048" y="720" type="line"/>
      <point x="631.048" y="720" type="line"/>
      <point x="393.766" y="371" type="line"/>
      <point x="530" y="0" type="line"/>
      <point x="372" y="0" type="line"/>
      <point x="310.195" y="178" type="line" smooth="yes"/>
      <point x="295.848" y="220"/>
      <point x="294.333" y="242"/>
      <point x="294.333" y="242" type="curve"/>
      <point x="289.333" y="242" type="line"/>
      <point x="289.333" y="242"/>
      <point x="280.848" y="220"/>
      <point x="253.354" y="179" type="curve" smooth="yes"/>
      <point x="134" y="0" type="line"/>
    </contour>
  </outline>
</glyph>
<glyph name="backslash" format="2">
  <advance width="600" height="985"/>
  <unicode hex="005C"/>
  <outline>
    <contour>
      <point x="284.472" y="830" type="line"/>
      <point x="133.472" y="830" type="line"/>
      <point x="329.576" y="-110" type="line"/>
      <point x="481.576" y="-110" type="line"/>
    </contour>
  </outline>
</glyph>
<glyph name="grave" format="2">
  <advance width="600" height="985"/>
  <unicode hex="0060"/>
  <outline>
    <contour>
      <point x="229.344" y="785" type="line"/>
      <point x="337.168" y="645" type="line"/>
      <point x="467.168" y="645" type="line"/>
      <point x="369.344" y="785" type="line"/>
    </contour>
  </outline>
</glyph>
<glyph name="a" format="2">
  <advance width="600" height="985"/>
  <unicode hex="0061"/>
  <outline>
    <contour>
      <point x="185.416" y="-10" type="curve" smooth="yes"/>
      <point x="257.416" y="-10"/>
      <point x="309.752" y="30"/>
      <point x="330.206" y="96" type="curve"/>
      <point x="344.224" y="96" type="line"/>
      <point x="335.815" y="36.0839"/>
      <point x="378.998" y="-5"/>
      <point x="450.208" y="-5" type="curve" smooth="yes"/>
      <point x="536.208" y="-5" type="line"/>
      <point x="554.424" y="110" type="line"/>
      <point x="528.424" y="110" type="line" smooth="yes"/>
      <point x="504.424" y="110"/>
      <point x="490.958" y="126"/>
      <point x="494.76" y="150" type="curve" smooth="yes"/>
      <point x="558.12" y="550" type="line"/>
      <point x="413.12" y="550" type="line"/>
      <point x="398.072" y="455" type="line"/>
      <point x="385.072" y="455" type="line"/>
      <point x="386.002" y="524"/>
      <point x="350.704" y="560"/>
      <point x="274.704" y="560" type="curve" smooth="yes"/>
      <point x="160.704" y="560"/>
      <point x="74.3984" y="476"/>
      <point x="53.648" y="345" type="curve" smooth="yes"/>
      <point x="32.264" y="210" type="line" smooth="yes"/>
      <point x="11.3552" y="78"/>
      <point x="72.416" y="-10"/>
    </contour>
    <contour>
      <point x="253.166" y="121" type="curve" smooth="yes"/>
      <point x="195.166" y="121"/>
      <point x="174.027" y="158"/>
      <point x="183.056" y="215" type="curve" smooth="yes"/>
      <point x="202.856" y="340" type="line" smooth="yes"/>
      <point x="211.726" y="396"/>
      <point x="248.112" y="430"/>
      <point x="302.112" y="430" type="curve" smooth="yes"/>
      <point x="351.798" y="430"/>
      <point x="376.606" y="401.215"/>
      <point x="373.343" y="352.994" type="curve"/>
      <point x="351.137" y="199.206" type="line"/>
      <point x="339.58" y="150.586"/>
      <point x="304.472" y="121"/>
    </contour>
  </outline>
</glyph>
<glyph name="c" format="2">
  <advance width="600" height="985"/>
  <unicode hex="0063"/>
  <outline>
    <contour>
      <point x="253.416" y="-10" type="curve" smooth="yes"/>
      <point x="391.416" y="-10"/>
      <point x="498.296" y="65"/>
      <point x="539.254" y="191" type="curve"/>
      <point x="389.254" y="191" type="line"/>
      <point x="372.126" y="146"/>
      <point x="329.008" y="120"/>
      <point x="274.008" y="120" type="curve" smooth="yes"/>
      <point x="212.008" y="120"/>
      <point x="177.235" y="153"/>
      <point x="185.314" y="204" type="curve" smooth="yes"/>
      <point x="207.648" y="345" type="line" smooth="yes"/>
      <point x="216.202" y="399"/>
      <point x="258.112" y="430"/>
      <point x="323.112" y="430" type="curve" smooth="yes"/>
      <point x="375.112" y="430"/>
      <point x="413.518" y="401"/>
      <point x="416.024" y="360" type="curve"/>
      <point x="566.024" y="360" type="line"/>
      <point x="564.032" y="480"/>
      <point x="474.704" y="560"/>
      <point x="343.704" y="560" type="curve" smooth="yes"/>
      <point x="187.704" y="560"/>
      <point x="78.8736" y="479"/>
      <point x="57.648" y="345" type="curve" smooth="yes"/>
      <point x="35.3136" y="204" type="line" smooth="yes"/>
      <point x="15.0384" y="76"/>
      <point x="102.416" y="-10"/>
    </contour>
  </outline>
</glyph>
<glyph name="d" format="2">
  <advance width="600" height="985"/>
  <unicode hex="0064"/>
  <outline>
    <contour>
      <point x="52.648" y="345" type="line" smooth="yes" name="sh01"/>
      <point x="73.3984" y="476"/>
      <point x="162.704" y="560"/>
      <point x="278.704" y="560" type="curve" smooth="yes" name="at02"/>
      <point x="356.704" y="560"/>
      <point x="404.368" y="520"/>
      <point x="404.072" y="455" type="curve" name="sh02"/>
      <point x="414.072" y="455" type="line" name="sh03"/>
      <point x="414.072" y="455"/>
      <point x="418.576" y="515"/>
      <point x="424.12" y="550" type="curve" smooth="yes"/>
      <point x="451.048" y="720" type="line" name="at01"/>
      <point x="601.048" y="720" type="line" name="sh04"/>
      <point x="487" y="0" type="line"/>
      <point x="342" y="0" type="line" name="sh05"/>
      <point x="357.206" y="96" type="line"/>
      <point x="347.206" y="96" type="line" name="sh06"/>
      <point x="326.752" y="30"/>
      <point x="266.416" y="-10"/>
      <point x="188.416" y="-10" type="curve" smooth="yes" name="ab01"/>
      <point x="72.416" y="-10"/>
      <point x="9.88" y="75"/>
      <point x="31.264" y="210" type="curve" smooth="yes"/>
    </contour>
    <contour>
      <point x="261.166" y="121" type="curve" smooth="yes" name="sv01"/>
      <point x="320.166" y="121"/>
      <point x="362.027" y="158"/>
      <point x="370.264" y="210" type="curve" smooth="yes" name="sh07"/>
      <point x="390.856" y="340" type="line" smooth="yes"/>
      <point x="399.41" y="394"/>
      <point x="367.112" y="430"/>
      <point x="310.112" y="430" type="curve" smooth="yes" name="sv02"/>
      <point x="253.112" y="430"/>
      <point x="210.568" y="395"/>
      <point x="201.856" y="340" type="curve" smooth="yes" name="sh08"/>
      <point x="182.056" y="215" type="line" smooth="yes"/>
      <point x="173.186" y="159"/>
      <point x="202.166" y="121"/>
    </contour>
  </outline>
</glyph>
<glyph name="e" format="2">
  <advance width="600" height="985"/>
  <unicode hex="0065"/>
  <outline>
    <contour>
      <point x="338.704" y="560" type="curve" smooth="yes"/>
      <point x="186.704" y="560"/>
      <point x="72.9232" y="473"/>
      <point x="52.0144" y="341" type="curve" smooth="yes"/>
      <point x="31.264" y="210" type="line" smooth="yes"/>
      <point x="10.3552" y="78"/>
      <point x="97.416" y="-10"/>
      <point x="248.416" y="-10" type="curve" smooth="yes"/>
      <point x="369.416" y="-10"/>
      <point x="479.87" y="56"/>
      <point x="518.76" y="150" type="curve"/>
      <point x="371.76" y="150" type="line"/>
      <point x="355.325" y="122"/>
      <point x="316.632" y="105"/>
      <point x="266.632" y="105" type="curve" smooth="yes"/>
      <point x="200.632" y="105"/>
      <point x="168.81" y="144"/>
      <point x="179.264" y="210" type="curve" smooth="yes"/>
      <point x="200.014" y="341" type="line" smooth="yes"/>
      <point x="210.31" y="406"/>
      <point x="255.488" y="445"/>
      <point x="320.488" y="445" type="curve" smooth="yes"/>
      <point x="386.488" y="445"/>
      <point x="419.31" y="406"/>
      <point x="408.856" y="340" type="curve" smooth="yes"/>
      <point x="405.688" y="320" type="line"/>
      <point x="417.272" y="330" type="line"/>
      <point x="182.272" y="330" type="line"/>
      <point x="168.016" y="240" type="line"/>
      <point x="538.016" y="240" type="line"/>
      <point x="553.856" y="340" type="line" smooth="yes"/>
      <point x="574.606" y="471"/>
      <point x="487.704" y="560"/>
    </contour>
  </outline>
</glyph>
<glyph name="f" format="2">
  <advance width="600" height="985"/>
  <unicode hex="0066"/>
  <outline>
    <contour>
      <point x="610.048" y="720" type="line"/>
      <point x="449.048" y="720" type="line" smooth="yes"/>
      <point x="335.048" y="720"/>
      <point x="248.277" y="652"/>
      <point x="232.12" y="550" type="curve" smooth="yes"/>
      <point x="221.824" y="485" type="line"/>
      <point x="75.824" y="485" type="line"/>
      <point x="54.44" y="350" type="line"/>
      <point x="200.44" y="350" type="line"/>
      <point x="150.544" y="35" type="line" smooth="yes"/>
      <point x="143.891" y="-7"/>
      <point x="111.248" y="-30"/>
      <point x="60.248" y="-30" type="curve" smooth="yes"/>
      <point x="-4.752" y="-30" type="line"/>
      <point x="-26.928" y="-170" type="line"/>
      <point x="38.072" y="-170" type="line" smooth="yes"/>
      <point x="183.072" y="-170"/>
      <point x="280.11" y="-94"/>
      <point x="300.544" y="35" type="curve" smooth="yes"/>
      <point x="350.44" y="350" type="line"/>
      <point x="551.44" y="350" type="line"/>
      <point x="572.824" y="485" type="line"/>
      <point x="371.824" y="485" type="line"/>
      <point x="381.328" y="545" type="line" smooth="yes"/>
      <point x="385.605" y="572"/>
      <point x="406.456" y="590"/>
      <point x="433.456" y="590" type="curve" smooth="yes"/>
      <point x="589.456" y="590" type="line"/>
    </contour>
  </outline>
</glyph>
<glyph name="g" format="2">
  <advance width="600" height="985"/>
  <unicode hex="0067"/>
  <outline>
    <contour>
      <point x="429.12" y="550" type="line"/>
      <point x="413.28" y="450" type="line"/>
      <point x="406.28" y="450" type="line"/>
      <point x="409.734" y="516"/>
      <point x="360.704" y="560"/>
      <point x="277.704" y="560" type="curve" smooth="yes" name="at01"/>
      <point x="161.704" y="560"/>
      <point x="73.0816" y="474"/>
      <point x="52.648" y="345" type="curve" smooth="yes"/>
      <point x="37.6" y="250" type="line" smooth="yes"/>
      <point x="17.1664" y="121"/>
      <point x="78.544" y="35"/>
      <point x="193.544" y="35" type="curve" smooth="yes" name="dv01"/>
      <point x="276.544" y="35"/>
      <point x="339.514" y="79"/>
      <point x="357.968" y="145" type="curve"/>
      <point x="364.968" y="145" type="line"/>
      <point x="342.544" y="35" type="line"/>
      <point x="341.594" y="29" type="line" smooth="yes"/>
      <point x="334.149" y="-18"/>
      <point x="294.08" y="-50"/>
      <point x="242.08" y="-50" type="curve" smooth="yes" name="sv01"/>
      <point x="87.08" y="-50" type="line"/>
      <point x="68.072" y="-170" type="line" name="ab01"/>
      <point x="223.072" y="-170" type="line" smooth="yes"/>
      <point x="365.072" y="-170"/>
      <point x="472.744" y="-90"/>
      <point x="491.594" y="29" type="curve" smooth="yes"/>
      <point x="574.12" y="550" type="line"/>
    </contour>
    <contour>
      <point x="188.392" y="255" type="curve" smooth="yes"/>
      <point x="201.856" y="340" type="line" smooth="yes"/>
      <point x="210.568" y="395"/>
      <point x="253.112" y="430"/>
      <point x="310.112" y="430" type="curve" smooth="yes" name="sv02"/>
      <point x="367.112" y="430"/>
      <point x="399.41" y="394"/>
      <point x="390.856" y="340" type="curve" smooth="yes"/>
      <point x="377.392" y="255" type="line" smooth="yes"/>
      <point x="368.838" y="201"/>
      <point x="325.136" y="165"/>
      <point x="268.136" y="165" type="curve" smooth="yes" name="dv02"/>
      <point x="211.136" y="165"/>
      <point x="179.68" y="200"/>
    </contour>
  </outline>
</glyph>
<glyph name="h" format="2">
  <advance width="600" height="985"/>
  <unicode hex="0068"/>
  <outline>
    <contour>
      <point x="125.048" y="720" type="line" name="at01"/>
      <point x="275.048" y="720" type="line" name="sh01"/>
      <point x="248.12" y="550" type="line" smooth="yes"/>
      <point x="241.626" y="509"/>
      <point x="223.072" y="455"/>
      <point x="224.072" y="455" type="curve"/>
      <point x="235.072" y="455" type="line" name="sh02"/>
      <point x="254.526" y="521"/>
      <point x="312.704" y="560"/>
      <point x="392.704" y="560" type="curve" smooth="yes" name="at02"/>
      <point x="503.704" y="560"/>
      <point x="561.19" y="481"/>
      <point x="541.232" y="355" type="curve" smooth="yes"/>
      <point x="485" y="0" type="line" name="ab01"/>
      <point x="335" y="0" type="line" name="ah01"/>
      <point x="388.856" y="340" type="line" smooth="yes"/>
      <point x="397.568" y="395"/>
      <point x="369.112" y="430"/>
      <point x="316.112" y="430" type="curve" smooth="yes" name="sv01"/>
      <point x="263.112" y="430"/>
      <point x="223.568" y="395"/>
      <point x="214.856" y="340" type="curve" smooth="yes" name="sh03"/>
      <point x="161" y="0" type="line" name="ab02"/>
      <point x="11" y="0" type="line"/>
    </contour>
  </outline>
</glyph>
<glyph name="j" format="2">
  <advance width="600" height="985"/>
  <unicode hex="006A"/>
  <outline>
    <contour>
      <point x="282.128" y="45" type="line" smooth="yes" name="sh01"/>
      <point x="274.842" y="-1"/>
      <point x="241.248" y="-30"/>
      <point x="195.248" y="-30" type="curve" smooth="yes" name="sv01"/>
      <point x="25.248" y="-30" type="line"/>
      <point x="3.072" y="-170" type="line" name="ab01"/>
      <point x="184.072" y="-170" type="line" smooth="yes"/>
      <point x="314.072" y="-170"/>
      <point x="411.378" y="-86"/>
      <point x="432.128" y="45" type="curve" smooth="yes"/>
      <point x="512.12" y="550" type="line" name="at01"/>
      <point x="147.12" y="550" type="line"/>
      <point x="124.944" y="410" type="line" name="sv02"/>
      <point x="339.944" y="410" type="line"/>
    </contour>
    <contour>
      <point x="451.176" y="765" type="line" smooth="yes" name="dv02"/>
      <point x="406.176" y="765"/>
      <point x="371.741" y="737"/>
      <point x="365.088" y="695" type="curve" smooth="yes" name="dh01"/>
      <point x="358.435" y="653"/>
      <point x="384" y="625"/>
      <point x="429" y="625" type="curve" smooth="yes" name="dv01"/>
      <point x="458" y="625" type="line" smooth="yes"/>
      <point x="504" y="625"/>
      <point x="538.277" y="652"/>
      <point x="545.009" y="694.5" type="curve" smooth="yes"/>
      <point x="551.741" y="737"/>
      <point x="526.176" y="765"/>
      <point x="481.176" y="765" type="curve" smooth="yes"/>
    </contour>
  </outline>
</glyph>
<glyph name="l" format="2">
  <advance width="600" height="985"/>
  <unicode hex="006C"/>
  <outline>
    <contour>
      <point x="89.048" y="720" type="line"/>
      <point x="67.664" y="585" type="line"/>
      <point x="237.664" y="585" type="line"/>
      <point x="175.096" y="190" type="line" smooth="yes"/>
      <point x="156.405" y="72"/>
      <point x="217" y="0"/>
      <point x="335" y="0" type="curve" smooth="yes"/>
      <point x="515" y="0" type="line"/>
      <point x="536.384" y="135" type="line"/>
      <point x="371.384" y="135" type="line" smooth="yes"/>
      <point x="337.384" y="135"/>
      <point x="319.71" y="156"/>
      <point x="325.096" y="190" type="curve" smooth="yes"/>
      <point x="409.048" y="720" type="line"/>
    </contour>
  </outline>
</glyph>
<glyph name="n" format="2">
  <advance width="600" height="750"/>
  <unicode hex="006E"/>
  <outline>
    <contour>
      <point x="98.12" y="550" type="line"/>
      <point x="240.12" y="550" type="line"/>
      <point x="225.072" y="455" type="line"/>
      <point x="233.072" y="455" type="line"/>
      <point x="161" y="0" type="line"/>
      <point x="11" y="0" type="line"/>
    </contour>
    <contour>
      <point x="316.112" y="430" type="curve" smooth="yes"/>
      <point x="263.112" y="430"/>
      <point x="223.568" y="395"/>
      <point x="214.856" y="340" type="curve"/>
      <point x="194.856" y="340" type="line"/>
      <point x="213.072" y="455" type="line"/>
      <point x="235.072" y="455" type="line"/>
      <point x="254.526" y="521"/>
      <point x="312.704" y="560"/>
      <point x="392.704" y="560" type="curve" smooth="yes"/>
      <point x="499.704" y="560"/>
      <point x="560.398" y="476"/>
      <point x="541.232" y="355" type="curve" smooth="yes"/>
      <point x="485" y="0" type="line"/>
      <point x="335" y="0" type="line"/>
      <point x="388.856" y="340" type="line" smooth="yes"/>
      <point x="397.568" y="395"/>
      <point x="369.112" y="430"/>
    </contour>
  </outline>
</glyph>
<glyph name="o" format="2">
  <advance width="600" height="985"/>
  <unicode hex="006F"/>
  <outline>
    <contour>
      <point x="181.264" y="210" type="curve" smooth="yes"/>
      <point x="202.014" y="341" type="line" smooth="yes"/>
      <point x="210.726" y="396"/>
      <point x="255.112" y="430"/>
      <point x="318.112" y="430" type="curve" smooth="yes"/>
      <point x="379.112" y="430"/>
      <point x="414.41" y="394"/>
      <point x="406.014" y="341" type="curve" smooth="yes"/>
      <point x="385.264" y="210" type="line" smooth="yes"/>
      <point x="376.552" y="155"/>
      <point x="332.166" y="121"/>
      <point x="269.166" y="121" type="curve" smooth="yes"/>
      <point x="208.166" y="121"/>
      <point x="172.869" y="157"/>
    </contour>
    <contour>
      <point x="33.264" y="210" type="line" smooth="yes"/>
      <point x="12.672" y="80"/>
      <point x="99.416" y="-10"/>
      <point x="248.416" y="-10" type="curve" smooth="yes"/>
      <point x="403.416" y="-10"/>
      <point x="511.722" y="74"/>
      <point x="533.264" y="210" type="curve" smooth="yes"/>
      <point x="554.014" y="341" type="line" smooth="yes"/>
      <point x="574.448" y="470"/>
      <point x="486.704" y="560"/>
      <point x="338.704" y="560" type="curve" smooth="yes"/>
      <point x="182.704" y="560"/>
      <point x="75.5568" y="477"/>
      <point x="54.0144" y="341" type="curve" smooth="yes"/>
    </contour>
  </outline>
</glyph>
<glyph name="p" format="2">
  <advance width="600" height="985"/>
  <unicode hex="0070"/>
  <outline>
    <contour>
      <point x="100.12" y="550" type="line" name="sh01"/>
      <point x="245.12" y="550" type="line"/>
      <point x="230.072" y="455" type="line" name="sh02"/>
      <point x="240.072" y="455" type="line" name="sh09"/>
      <point x="260.368" y="520"/>
      <point x="320.704" y="560"/>
      <point x="398.704" y="560" type="curve" smooth="yes" name="at01"/>
      <point x="514.704" y="560"/>
      <point x="577.398" y="476"/>
      <point x="556.648" y="345" type="curve" smooth="yes"/>
      <point x="535.264" y="210" type="line" smooth="yes" name="sh05"/>
      <point x="513.88" y="75"/>
      <point x="424.416" y="-10"/>
      <point x="308.416" y="-10" type="curve" smooth="yes" name="ab02"/>
      <point x="230.416" y="-10"/>
      <point x="182.752" y="30"/>
      <point x="183.206" y="96" type="curve" name="sh06"/>
      <point x="173.206" y="96" type="line" name="sh03"/>
      <point x="172.464" y="85"/>
      <point x="169.653" y="42"/>
      <point x="163" y="0" type="curve" smooth="yes" name="sh04"/>
      <point x="136.072" y="-170" type="line" name="ab01"/>
      <point x="-13.928" y="-170" type="line"/>
    </contour>
    <contour>
      <point x="216.856" y="340" type="curve" smooth="yes" name="sh08"/>
      <point x="196.264" y="210" type="line" smooth="yes" name="sh07"/>
      <point x="188.027" y="158"/>
      <point x="218.166" y="121"/>
      <point x="277.166" y="121" type="curve" smooth="yes" name="sv01"/>
      <point x="336.166" y="121"/>
      <point x="377.186" y="159"/>
      <point x="386.056" y="215" type="curve" smooth="yes" name="ah01"/>
      <point x="405.856" y="340" type="line" smooth="yes"/>
      <point x="414.568" y="395"/>
      <point x="383.112" y="430"/>
      <point x="326.112" y="430" type="curve" smooth="yes" name="sv02"/>
      <point x="269.112" y="430"/>
      <point x="225.41" y="394"/>
    </contour>
  </outline>
</glyph>
<glyph name="r" format="2">
  <advance width="600" height="985"/>
  <unicode hex="0072"/>
  <outline>
    <contour>
      <point x="119.12" y="550" type="line"/>
      <point x="32" y="0" type="line"/>
      <point x="182" y="0" type="line"/>
      <point x="250.904" y="435" type="line"/>
      <point x="242.904" y="435" type="line"/>
      <point x="261.12" y="550" type="line"/>
    </contour>
    <contour>
      <point x="422.704" y="560" type="curve" smooth="yes"/>
      <point x="337.704" y="560"/>
      <point x="276.685" y="522"/>
      <point x="256.072" y="455" type="curve"/>
      <point x="234.072" y="455" type="line"/>
      <point x="215.856" y="340" type="line"/>
      <point x="235.856" y="340" type="line"/>
      <point x="245.043" y="398"/>
      <point x="283.904" y="435"/>
      <point x="336.904" y="435" type="curve" smooth="yes"/>
      <point x="396.904" y="435"/>
      <point x="428.202" y="399"/>
      <point x="418.856" y="340" type="curve" smooth="yes"/>
      <point x="413.312" y="305" type="line"/>
      <point x="573.312" y="305" type="line"/>
      <point x="580.44" y="350" type="line" smooth="yes"/>
      <point x="601.19" y="481"/>
      <point x="542.704" y="560"/>
    </contour>
  </outline>
</glyph>
<glyph name="s" format="2">
  <advance width="600" height="985"/>
  <unicode hex="0073"/>
  <outline>
    <contour>
      <point x="222.416" y="-10" type="line" smooth="yes"/>
      <point x="94.416" y="-10"/>
      <point x="18.4448" y="47"/>
      <point x="17.968" y="145" type="curve"/>
      <point x="167.968" y="145" type="line"/>
      <point x="172.216" y="115"/>
      <point x="198.523" y="98"/>
      <point x="239.523" y="98" type="curve" smooth="yes"/>
      <point x="289.523" y="98" type="line" smooth="yes"/>
      <point x="344.523" y="98"/>
      <point x="378.85" y="119"/>
      <point x="384.637" y="155.538" type="curve" smooth="yes"/>
      <point x="389.938" y="189"/>
      <point x="367.264" y="210"/>
      <point x="314.214" y="216" type="curve" smooth="yes"/>
      <point x="240.482" y="224" type="line" smooth="yes"/>
      <point x="112.699" y="238"/>
      <point x="52.0448" y="297"/>
      <point x="67.2512" y="393" type="curve" smooth="yes"/>
      <point x="84.2" y="500"/>
      <point x="171.704" y="560"/>
      <point x="312.704" y="560" type="curve" smooth="yes"/>
      <point x="362.704" y="560" type="line" smooth="yes"/>
      <point x="492.704" y="560"/>
      <point x="563.992" y="505"/>
      <point x="560.786" y="409" type="curve"/>
      <point x="410.786" y="409" type="line"/>
      <point x="408.221" y="437"/>
      <point x="385.755" y="453"/>
      <point x="345.755" y="453" type="curve" smooth="yes"/>
      <point x="295.755" y="453" type="line" smooth="yes"/>
      <point x="247.755" y="453"/>
      <point x="219.062" y="436"/>
      <point x="213.757" y="402.504" type="curve" smooth="yes"/>
      <point x="208.766" y="371"/>
      <point x="228.44" y="350"/>
      <point x="272.648" y="345" type="curve" smooth="yes"/>
      <point x="351.222" y="336" type="line" smooth="yes"/>
      <point x="480.846" y="321"/>
      <point x="545.867" y="258"/>
      <point x="530.661" y="162" type="curve" smooth="yes"/>
      <point x="512.92" y="50"/>
      <point x="422.416" y="-10"/>
      <point x="272.416" y="-10" type="curve" smooth="yes"/>
    </contour>
  </outline>
</glyph>
<glyph name="t" format="2">
  <advance width="600" height="985"/>
  <unicode hex="0074"/>
  <outline>
    <contour>
      <point x="244.048" y="720" type="line"/>
      <point x="394.048" y="720" type="line"/>
      <point x="367.12" y="550" type="line"/>
      <point x="572.12" y="550" type="line"/>
      <point x="550.736" y="415" type="line"/>
      <point x="345.736" y="415" type="line"/>
      <point x="310.096" y="190" type="line" smooth="yes"/>
      <point x="304.71" y="156"/>
      <point x="322.384" y="135"/>
      <point x="356.384" y="135" type="curve" smooth="yes"/>
      <point x="496.384" y="135" type="line"/>
      <point x="475" y="0" type="line"/>
      <point x="320" y="0" type="line" smooth="yes"/>
      <point x="202" y="0"/>
      <point x="141.405" y="72"/>
      <point x="160.096" y="190" type="curve" smooth="yes"/>
      <point x="195.736" y="415" type="line"/>
      <point x="50.736" y="415" type="line"/>
      <point x="72.12" y="550" type="line"/>
      <point x="217.12" y="550" type="line"/>
    </contour>
  </outline>
</glyph>
<glyph name="u" format="2">
  <advance width="600" height="985"/>
  <unicode hex="0075"/>
  <outline>
    <contour>
      <point x="269.008" y="120" type="curve" smooth="yes"/>
      <point x="324.008" y="120"/>
      <point x="359.235" y="153"/>
      <point x="369.056" y="215" type="curve" smooth="yes"/>
      <point x="422.12" y="550" type="line"/>
      <point x="572.12" y="550" type="line"/>
      <point x="518.898" y="214" type="line" smooth="yes"/>
      <point x="496.405" y="72"/>
      <point x="396.416" y="-10"/>
      <point x="248.416" y="-10" type="curve" smooth="yes"/>
      <point x="103.416" y="-10"/>
      <point x="27.0384" y="76"/>
      <point x="48.8976" y="214" type="curve" smooth="yes"/>
      <point x="102.12" y="550" type="line"/>
      <point x="252.12" y="550" type="line"/>
      <point x="199.056" y="215" type="line" smooth="yes"/>
      <point x="189.235" y="153"/>
      <point x="213.008" y="120"/>
    </contour>
  </outline>
</glyph>
<glyph name="braceleft" format="2">
  <advance width="600" height="985"/>
  <unicode hex="007B"/>
  <outline>
    <contour>
      <point x="426" y="-111" type="line"/>
      <point x="448" y="29" type="line"/>
      <point x="393" y="29" type="line" smooth="yes"/>
      <point x="357" y="29"/>
      <point x="335" y="53"/>
      <point x="343" y="89" type="curve" smooth="yes"/>
      <point x="376" y="239" type="line" smooth="yes"/>
      <point x="393" y="314"/>
      <point x="338" y="355"/>
      <point x="260" y="358" type="curve"/>
      <point x="261" y="363" type="line"/>
      <point x="338" y="366"/>
      <point x="407" y="404"/>
      <point x="414" y="479" type="curve" smooth="yes"/>
      <point x="428" y="630" type="line" smooth="yes"/>
      <point x="432" y="673"/>
      <point x="460" y="690"/>
      <point x="498" y="690" type="curve" smooth="yes"/>
      <point x="553" y="690" type="line"/>
      <point x="575" y="830" type="line"/>
      <point x="490" y="830" type="line" smooth="yes"/>
      <point x="380" y="830"/>
      <point x="292" y="760"/>
      <point x="281" y="650" type="curve" smooth="yes"/>
      <point x="267" y="499" type="line" smooth="yes"/>
      <point x="264" y="457"/>
      <point x="228" y="429"/>
      <point x="186" y="429" type="curve" smooth="yes"/>
      <point x="61" y="429" type="line"/>
      <point x="39" y="289" type="line"/>
      <point x="164" y="289" type="line" smooth="yes"/>
      <point x="206" y="289"/>
      <point x="233" y="261"/>
      <point x="223" y="219" type="curve" smooth="yes"/>
      <point x="190" y="74" type="line" smooth="yes"/>
      <point x="164" y="-38"/>
      <point x="232" y="-111"/>
      <point x="341" y="-111" type="curve" smooth="yes"/>
    </contour>
  </outline>
</glyph>
<glyph name="bar" format="2">
  <advance width="600" height="985"/>
  <unicode hex="007C"/>
  <outline>
    <contour>
      <point x="306.472" y="830" type="line"/>
      <point x="456.472" y="830" type="line"/>
      <point x="307.576" y="-110" type="line"/>
      <point x="157.576" y="-110" type="line"/>
    </contour>
  </outline>
</glyph>
<glyph name="exclamdown" format="2">
  <advance width="600" height="985"/>
  <unicode hex="00A1"/>
  <outline>
    <contour>
      <point x="330.072" y="-170" type="line"/>
      <point x="176.072" y="-170" type="line"/>
      <point x="201.416" y="-10" type="line"/>
      <point x="273.312" y="305" type="line"/>
      <point x="383.312" y="305" type="line"/>
      <point x="355.416" y="-10" type="line"/>
    </contour>
    <contour>
      <point x="361.736" y="415" type="curve" smooth="yes"/>
      <point x="331.736" y="415" type="line" smooth="yes"/>
      <point x="286.736" y="415"/>
      <point x="262.171" y="443"/>
      <point x="268.824" y="485" type="curve"/>
      <point x="276.635" y="528"/>
      <point x="311.912" y="555"/>
      <point x="357.912" y="555" type="curve" smooth="yes"/>
      <point x="386.912" y="555" type="line" smooth="yes"/>
      <point x="431.912" y="555"/>
      <point x="456.477" y="527"/>
      <point x="449.824" y="485" type="curve"/>
      <point x="442.171" y="443"/>
      <point x="406.736" y="415"/>
    </contour>
  </outline>
</glyph>
<glyph name="cent" format="2">
  <advance width="600" height="985"/>
  <unicode hex="00A2"/>
  <outline>
    <contour>
      <point x="334.296" y="690" type="line"/>
      <point x="399.296" y="690" type="line"/>
      <point x="267.824" y="-140" type="line"/>
      <point x="202.824" y="-140" type="line"/>
    </contour>
    <contour>
      <point x="253.416" y="-10" type="curve" smooth="yes" name="ab01"/>
      <point x="104.416" y="-10"/>
      <point x="15.3552" y="78"/>
      <point x="35.3136" y="204" type="curve" smooth="yes"/>
      <point x="57.648" y="345" type="line" smooth="yes"/>
      <point x="79.1904" y="481"/>
      <point x="185.704" y="560"/>
      <point x="343.704" y="560" type="curve" smooth="yes" name="at01"/>
      <point x="472.704" y="560"/>
      <point x="563.715" y="478"/>
      <point x="566.024" y="360" type="curve"/>
      <point x="423.024" y="360" type="line" name="sv04"/>
      <point x="423.152" y="405"/>
      <point x="382.221" y="437"/>
      <point x="324.221" y="437" type="curve" smooth="yes" name="sv03"/>
      <point x="259.221" y="437"/>
      <point x="209.36" y="400"/>
      <point x="200.648" y="345" type="curve" smooth="yes"/>
      <point x="178.314" y="204" type="line" smooth="yes"/>
      <point x="169.76" y="150"/>
      <point x="208.899" y="113"/>
      <point x="272.899" y="113" type="curve" smooth="yes" name="sv02"/>
      <point x="330.899" y="113"/>
      <point x="380.81" y="144"/>
      <point x="396.254" y="191" type="curve"/>
      <point x="539.254" y="191" type="line" name="sv01"/>
      <point x="498.138" y="64"/>
      <point x="393.416" y="-10"/>
    </contour>
  </outline>
</glyph>
<glyph name="yen" format="2">
  <advance width="600" height="985"/>
  <unicode hex="00A5"/>
  <outline>
    <contour>
      <point x="493.048" y="720" type="line"/>
      <point x="649.048" y="720" type="line"/>
      <point x="366.184" y="260" type="line"/>
      <point x="325" y="0" type="line"/>
      <point x="175" y="0" type="line"/>
      <point x="216.184" y="260" type="line"/>
      <point x="79.048" y="720" type="line"/>
      <point x="236.048" y="720" type="line"/>
      <point x="305.24" y="475" type="line" smooth="yes"/>
      <point x="317.954" y="429"/>
      <point x="312.093" y="392"/>
      <point x="312.093" y="392" type="curve"/>
      <point x="317.093" y="392" type="line"/>
      <point x="317.093" y="392"/>
      <point x="323.954" y="429"/>
      <point x="350.24" y="475" type="curve" smooth="yes"/>
    </contour>
    <contour>
      <point x="42.472" y="205" type="line"/>
      <point x="522.472" y="205" type="line"/>
      <point x="505.84" y="100" type="line"/>
      <point x="25.84" y="100" type="line"/>
    </contour>
    <contour>
      <point x="67.816" y="365" type="line"/>
      <point x="547.816" y="365" type="line"/>
      <point x="531.184" y="260" type="line"/>
      <point x="51.184" y="260" type="line"/>
    </contour>
  </outline>
</glyph>
<glyph name="section" format="2">
  <advance width="600" height="985"/>
  <unicode hex="00A7"/>
  <outline>
    <contour>
      <point x="-6.2672" y="-8" type="curve"/>
      <point x="143.733" y="-8" type="line"/>
      <point x="147.456" y="-35"/>
      <point x="180.605" y="-53"/>
      <point x="225.605" y="-53" type="curve" smooth="yes"/>
      <point x="255.605" y="-53" type="line" smooth="yes"/>
      <point x="315.605" y="-53"/>
      <point x="355.882" y="-26"/>
      <point x="362.059" y="13" type="curve" smooth="yes"/>
      <point x="367.128" y="45"/>
      <point x="346.454" y="66"/>
      <point x="292.355" y="78" type="curve" smooth="yes"/>
      <point x="202.523" y="98" type="line" smooth="yes"/>
      <point x="92.3248" y="122"/>
      <point x="33.6704" y="181"/>
      <point x="46.3424" y="261" type="curve" smooth="yes"/>
      <point x="58.6976" y="339"/>
      <point x="115.984" y="385"/>
      <point x="208.251" y="393" type="curve"/>
      <point x="209.36" y="400" type="line"/>
      <point x="209.36" y="400"/>
      <point x="73.2704" y="431"/>
      <point x="93.0704" y="556" type="curve" smooth="yes"/>
      <point x="110.019" y="663"/>
      <point x="205.632" y="730"/>
      <point x="349.632" y="730" type="curve" smooth="yes"/>
      <point x="379.632" y="730" type="line" smooth="yes"/>
      <point x="515.632" y="730"/>
      <point x="590.92" y="675"/>
      <point x="587.555" y="578" type="curve"/>
      <point x="437.555" y="578" type="line"/>
      <point x="435.882" y="599"/>
      <point x="408.891" y="618"/>
      <point x="361.891" y="618" type="curve" smooth="yes"/>
      <point x="331.891" y="618" type="line" smooth="yes"/>
      <point x="275.891" y="618"/>
      <point x="244.248" y="595"/>
      <point x="238.704" y="560" type="curve" smooth="yes"/>
      <point x="233.794" y="529"/>
      <point x="251.309" y="507"/>
      <point x="296.725" y="497" type="curve" smooth="yes"/>
      <point x="396.24" y="475" type="line" smooth="yes"/>
      <point x="510.28" y="450"/>
      <point x="565.984" y="385"/>
      <point x="553.154" y="304" type="curve" smooth="yes"/>
      <point x="540.957" y="227"/>
      <point x="482.354" y="179"/>
      <point x="390.245" y="172" type="curve"/>
      <point x="389.136" y="165" type="line"/>
      <point x="389.136" y="165"/>
      <point x="527.968" y="145"/>
      <point x="506.426" y="9" type="curve" smooth="yes"/>
      <point x="489.477" y="-98"/>
      <point x="390.864" y="-165"/>
      <point x="237.864" y="-165" type="curve" smooth="yes"/>
      <point x="207.864" y="-165" type="line" smooth="yes"/>
      <point x="67.864" y="-165"/>
      <point x="-9.1072" y="-108"/>
    </contour>
    <contour>
      <point x="195.57" y="294" type="curve" smooth="yes"/>
      <point x="188.442" y="249"/>
      <point x="207.056" y="215"/>
      <point x="241.947" y="208" type="curve" smooth="yes"/>
      <point x="295.205" y="197" type="line" smooth="yes"/>
      <point x="351.304" y="185"/>
      <point x="394.531" y="218"/>
      <point x="404.035" y="278" type="curve" smooth="yes"/>
      <point x="410.846" y="321"/>
      <point x="388.39" y="356"/>
      <point x="347.816" y="365" type="curve" smooth="yes"/>
      <point x="294.717" y="377" type="line" smooth="yes"/>
      <point x="244.459" y="388"/>
      <point x="205.232" y="355"/>
    </contour>
  </outline>
</glyph>
<glyph name="dieresis" format="2">
  <advance width="600" height="985"/>
  <unicode hex="00A8"/>
  <outline>
    <contour>
      <point x="166.256" y="715" type="curve" smooth="yes"/>
      <point x="173.384" y="760"/>
      <point x="210.136" y="790"/>
      <point x="258.136" y="790" type="curve" smooth="yes"/>
      <point x="306.136" y="790"/>
      <point x="333.384" y="760"/>
      <point x="326.256" y="715" type="curve" smooth="yes"/>
      <point x="319.128" y="670"/>
      <point x="282.376" y="640"/>
      <point x="234.376" y="640" type="curve" smooth="yes"/>
      <point x="186.376" y="640"/>
      <point x="159.128" y="670"/>
    </contour>
    <contour>
      <point x="400.256" y="715" type="curve" smooth="yes"/>
      <point x="407.384" y="760"/>
      <point x="444.136" y="790"/>
      <point x="492.136" y="790" type="curve" smooth="yes"/>
      <point x="540.136" y="790"/>
      <point x="567.384" y="760"/>
      <point x="560.256" y="715" type="curve" smooth="yes"/>
      <point x="553.128" y="670"/>
      <point x="516.376" y="640"/>
      <point x="468.376" y="640" type="curve" smooth="yes"/>
      <point x="420.376" y="640"/>
      <point x="393.128" y="670"/>
    </contour>
  </outline>
</glyph>
<glyph name="copyright" format="2">
  <advance width="600" height="985"/>
  <unicode hex="00A9"/>
  <outline>
    <contour>
      <point x="257.52" y="370" type="curve" smooth="yes"/>
      <point x="274.944" y="480" type="line" smooth="yes"/>
      <point x="279.696" y="510"/>
      <point x="302.864" y="530"/>
      <point x="332.864" y="530" type="curve" smooth="yes"/>
      <point x="357.864" y="530"/>
      <point x="375.33" y="514"/>
      <point x="375.528" y="490" type="curve"/>
      <point x="460.528" y="490" type="line"/>
      <point x="458.458" y="559"/>
      <point x="411.744" y="605"/>
      <point x="344.744" y="605" type="curve" smooth="yes"/>
      <point x="263.744" y="605"/>
      <point x="201.824" y="555"/>
      <point x="189.944" y="480" type="curve" smooth="yes"/>
      <point x="172.52" y="370" type="line" smooth="yes"/>
      <point x="160.64" y="295"/>
      <point x="206.72" y="245"/>
      <point x="287.72" y="245" type="curve" smooth="yes"/>
      <point x="351.72" y="245"/>
      <point x="413.006" y="291"/>
      <point x="439.936" y="360" type="curve"/>
      <point x="354.936" y="360" type="line"/>
      <point x="346.085" y="342"/>
      <point x="322.6" y="320"/>
      <point x="299.6" y="320" type="curve" smooth="yes"/>
      <point x="269.6" y="320"/>
      <point x="252.768" y="340"/>
    </contour>
    <contour>
      <point x="98.856" y="350" type="curve" smooth="yes"/>
      <point x="122.616" y="500" type="line" smooth="yes"/>
      <point x="140.674" y="614"/>
      <point x="233.712" y="690"/>
      <point x="352.712" y="690" type="curve" smooth="yes"/>
      <point x="472.712" y="690"/>
      <point x="540.674" y="614"/>
      <point x="522.616" y="500" type="curve" smooth="yes"/>
      <point x="498.856" y="350" type="line" smooth="yes"/>
      <point x="480.798" y="236"/>
      <point x="388.76" y="160"/>
      <point x="268.76" y="160" type="curve" smooth="yes"/>
      <point x="149.76" y="160"/>
      <point x="80.7984" y="236"/>
    </contour>
    <contour>
      <point x="43.856" y="350" type="line" smooth="yes"/>
      <point x="21.0464" y="206"/>
      <point x="107.84" y="110"/>
      <point x="260.84" y="110" type="curve" smooth="yes"/>
      <point x="413.84" y="110"/>
      <point x="531.046" y="206"/>
      <point x="553.856" y="350" type="curve" smooth="yes"/>
      <point x="577.616" y="500" type="line" smooth="yes"/>
      <point x="600.426" y="644"/>
      <point x="513.632" y="740"/>
      <point x="360.632" y="740" type="curve" smooth="yes"/>
      <point x="207.632" y="740"/>
      <point x="90.4256" y="644"/>
      <point x="67.616" y="500" type="curve" smooth="yes"/>
    </contour>
  </outline>
</glyph>
<glyph name="ordfeminine" format="2">
  <advance width="600" height="985"/>
  <unicode hex="00AA"/>
  <outline>
    <contour>
      <point x="399" y="650" type="line" smooth="yes"/>
      <point x="401.851" y="668"/>
      <point x="385.752" y="680"/>
      <point x="358.752" y="680" type="curve" smooth="yes"/>
      <point x="333.752" y="680"/>
      <point x="314.168" y="670"/>
      <point x="309.792" y="655" type="curve"/>
      <point x="229.792" y="655" type="line"/>
      <point x="247.87" y="706"/>
      <point x="303.256" y="740"/>
      <point x="368.256" y="740" type="curve" smooth="yes"/>
      <point x="443.256" y="740"/>
      <point x="487.554" y="704"/>
      <point x="479" y="650" type="curve" smooth="yes"/>
      <point x="448.112" y="455" type="line"/>
      <point x="371.112" y="455" type="line"/>
      <point x="379.824" y="510" type="line"/>
      <point x="376.824" y="510" type="line"/>
    </contour>
    <contour>
      <point x="325.04" y="625" type="curve" smooth="yes"/>
      <point x="406.04" y="625" type="line"/>
      <point x="398.12" y="575" type="line"/>
      <point x="317.12" y="575" type="line" smooth="yes"/>
      <point x="296.12" y="575"/>
      <point x="280.061" y="562"/>
      <point x="276.576" y="540" type="curve" smooth="yes"/>
      <point x="273.408" y="520"/>
      <point x="289.032" y="505"/>
      <point x="313.032" y="505" type="curve" smooth="yes"/>
      <point x="350.032" y="505"/>
      <point x="379.2" y="525"/>
      <point x="383.952" y="555" type="curve"/>
      <point x="394.952" y="555" type="line"/>
      <point x="387.824" y="510" type="line"/>
      <point x="376.824" y="510" type="line"/>
      <point x="355.805" y="472"/>
      <point x="320.32" y="450"/>
      <point x="281.32" y="450" type="curve" smooth="yes"/>
      <point x="222.32" y="450"/>
      <point x="187.864" y="485"/>
      <point x="196.259" y="538" type="curve" smooth="yes"/>
      <point x="204.496" y="590"/>
      <point x="256.04" y="625"/>
    </contour>
  </outline>
</glyph>
<glyph name="guillemotleft" format="2">
  <advance width="600" height="985"/>
  <unicode hex="00AB"/>
  <outline>
    <contour>
      <point x="6.352" y="280" type="line"/>
      <point x="133.336" y="40" type="line"/>
      <point x="284.336" y="40" type="line"/>
      <point x="175.174" y="241" type="line" smooth="yes"/>
      <point x="161.293" y="267"/>
      <point x="147.718" y="276"/>
      <point x="147.718" y="276" type="curve"/>
      <point x="148.035" y="278" type="line"/>
      <point x="148.035" y="278"/>
      <point x="157.302" y="286"/>
      <point x="180.579" y="313" type="curve" smooth="yes"/>
      <point x="355.368" y="520" type="line"/>
      <point x="198.368" y="520" type="line"/>
    </contour>
    <contour>
      <point x="256.352" y="280" type="line"/>
      <point x="383.336" y="40" type="line"/>
      <point x="534.336" y="40" type="line"/>
      <point x="425.174" y="241" type="line" smooth="yes"/>
      <point x="411.293" y="267"/>
      <point x="397.718" y="276"/>
      <point x="397.718" y="276" type="curve"/>
      <point x="398.035" y="278" type="line"/>
      <point x="398.035" y="278"/>
      <point x="418.302" y="286"/>
      <point x="441.579" y="313" type="curve" smooth="yes"/>
      <point x="616.368" y="520" type="line"/>
      <point x="459.368" y="520" type="line"/>
    </contour>
  </outline>
</glyph>
<glyph name="logicalnot" format="2">
  <advance width="600" height="985"/>
  <unicode hex="00AC"/>
  <outline>
    <contour>
      <point x="91.28" y="450" type="line"/>
      <point x="551.28" y="450" type="line"/>
      <point x="507.72" y="175" type="line"/>
      <point x="357.72" y="175" type="line"/>
      <point x="379.104" y="310" type="line"/>
      <point x="69.104" y="310" type="line"/>
    </contour>
  </outline>
</glyph>
<glyph name="uni00AD" format="2">
  <advance width="600"/>
  <unicode hex="00AD"/>
  <outline>
    <contour>
      <point x="110.984" y="400" type="line"/>
      <point x="510.984" y="400" type="line"/>
      <point x="488.808" y="260" type="line"/>
      <point x="88.808" y="260" type="line"/>
    </contour>
  </outline>
</glyph>
<glyph name="registered" format="2">
  <advance width="600" height="985"/>
  <unicode hex="00AE"/>
  <outline>
    <contour>
      <point x="94.104" y="350" type="curve" smooth="yes"/>
      <point x="117.864" y="500" type="line" smooth="yes"/>
      <point x="135.922" y="614"/>
      <point x="228.96" y="690"/>
      <point x="347.96" y="690" type="curve" smooth="yes"/>
      <point x="467.96" y="690"/>
      <point x="535.922" y="614"/>
      <point x="517.864" y="500" type="curve" smooth="yes"/>
      <point x="494.104" y="350" type="line" smooth="yes"/>
      <point x="476.046" y="236"/>
      <point x="384.008" y="160"/>
      <point x="264.008" y="160" type="curve" smooth="yes"/>
      <point x="145.008" y="160"/>
      <point x="76.0464" y="236"/>
    </contour>
    <contour>
      <point x="39.104" y="350" type="line" smooth="yes"/>
      <point x="16.2944" y="206"/>
      <point x="103.088" y="110"/>
      <point x="256.088" y="110" type="curve" smooth="yes"/>
      <point x="409.088" y="110"/>
      <point x="526.294" y="206"/>
      <point x="549.104" y="350" type="curve" smooth="yes"/>
      <point x="572.864" y="500" type="line" smooth="yes"/>
      <point x="595.674" y="644"/>
      <point x="508.88" y="740"/>
      <point x="355.88" y="740" type="curve" smooth="yes"/>
      <point x="202.88" y="740"/>
      <point x="85.6736" y="644"/>
      <point x="62.864" y="500" type="curve" smooth="yes"/>
    </contour>
    <contour>
      <point x="264.896" y="385" type="line"/>
      <point x="308.896" y="385" type="line" smooth="yes"/>
      <point x="384.896" y="385"/>
      <point x="442.074" y="424"/>
      <point x="452.528" y="490" type="curve" smooth="yes"/>
      <point x="462.982" y="556"/>
      <point x="418.952" y="600"/>
      <point x="342.952" y="600" type="curve" smooth="yes"/>
      <point x="218.952" y="600" type="line"/>
      <point x="163.512" y="250" type="line"/>
      <point x="243.512" y="250" type="line"/>
    </contour>
    <contour>
      <point x="275.192" y="450" type="line"/>
      <point x="289.448" y="540" type="line"/>
      <point x="333.448" y="540" type="line" smooth="yes"/>
      <point x="361.448" y="540"/>
      <point x="376.597" y="522"/>
      <point x="372.32" y="495" type="curve" smooth="yes"/>
      <point x="368.043" y="468"/>
      <point x="347.192" y="450"/>
      <point x="319.192" y="450" type="curve" smooth="yes"/>
    </contour>
    <contour>
      <point x="336.512" y="250" type="line"/>
      <point x="420.512" y="250" type="line"/>
      <point x="380.539" y="408" type="line"/>
      <point x="299.539" y="408" type="line"/>
    </contour>
  </outline>
</glyph>
<glyph name="macron" format="2">
  <advance width="600" height="985"/>
  <unicode hex="00AF"/>
  <outline>
    <contour>
      <point x="221.968" y="770" type="line"/>
      <point x="521.968" y="770" type="line"/>
      <point x="503.752" y="655" type="line"/>
      <point x="203.752" y="655" type="line"/>
    </contour>
  </outline>
</glyph>
<glyph name="degree" format="2">
  <advance width="600" height="985"/>
  <unicode hex="00B0"/>
  <outline>
    <contour>
      <point x="182.248" y="595" type="curve" smooth="yes"/>
      <point x="196.029" y="682"/>
      <point x="265.216" y="740"/>
      <point x="355.216" y="740" type="curve" smooth="yes"/>
      <point x="445.216" y="740"/>
      <point x="496.029" y="682"/>
      <point x="482.248" y="595" type="curve" smooth="yes"/>
      <point x="468.467" y="508"/>
      <point x="399.28" y="450"/>
      <point x="309.28" y="450" type="curve" smooth="yes"/>
      <point x="219.28" y="450"/>
      <point x="168.467" y="508"/>
    </contour>
    <contour>
      <point x="257.248" y="595" type="curve" smooth="yes"/>
      <point x="249.645" y="547"/>
      <point x="274.576" y="515"/>
      <point x="319.576" y="515" type="curve" smooth="yes"/>
      <point x="364.576" y="515"/>
      <point x="399.645" y="547"/>
      <point x="407.248" y="595" type="curve" smooth="yes"/>
      <point x="414.851" y="643"/>
      <point x="389.92" y="675"/>
      <point x="344.92" y="675" type="curve" smooth="yes"/>
      <point x="299.92" y="675"/>
      <point x="264.851" y="643"/>
    </contour>
  </outline>
</glyph>
<glyph name="acute" format="2">
  <advance width="600" height="985"/>
  <unicode hex="00B4"/>
  <outline>
    <contour>
      <point x="527.344" y="785" type="line"/>
      <point x="371.344" y="785" type="line"/>
      <point x="229.168" y="645" type="line"/>
      <point x="375.168" y="645" type="line"/>
    </contour>
  </outline>
</glyph>
<glyph name="paragraph" format="2">
  <advance width="600" height="985"/>
  <unicode hex="00B6"/>
  <outline>
    <contour>
      <point x="414.048" y="720" type="line"/>
      <point x="304.048" y="720" type="line" smooth="yes"/>
      <point x="190.048" y="720"/>
      <point x="103.277" y="652"/>
      <point x="87.12" y="550" type="curve" smooth="yes"/>
      <point x="74.448" y="470" type="line" smooth="yes"/>
      <point x="58.2912" y="368"/>
      <point x="123.52" y="300"/>
      <point x="237.52" y="300" type="curve"/>
      <point x="190" y="0" type="line"/>
      <point x="300" y="0" type="line"/>
    </contour>
    <contour>
      <point x="594.048" y="720" type="line"/>
      <point x="484.048" y="720" type="line"/>
      <point x="370" y="0" type="line"/>
      <point x="480" y="0" type="line"/>
    </contour>
  </outline>
</glyph>
<glyph name="cedilla" format="2">
  <advance width="600" height="985"/>
  <unicode hex="00B8"/>
  <outline>
    <contour>
      <point x="243.118" y="26" type="line"/>
      <point x="320.118" y="26" type="line"/>
      <point x="274.456" y="-35" type="line"/>
      <point x="274.456" y="-35"/>
      <point x="417.872" y="-45"/>
      <point x="403.933" y="-133" type="curve" smooth="yes"/>
      <point x="397.122" y="-176"/>
      <point x="334.736" y="-210"/>
      <point x="251.736" y="-210" type="curve" smooth="yes"/>
      <point x="171.736" y="-210"/>
      <point x="143.795" y="-197"/>
      <point x="143.795" y="-197" type="curve"/>
      <point x="154.091" y="-132" type="line"/>
      <point x="154.091" y="-132"/>
      <point x="182.032" y="-145"/>
      <point x="232.032" y="-145" type="curve" smooth="yes"/>
      <point x="259.032" y="-145"/>
      <point x="278.616" y="-135"/>
      <point x="281.15" y="-119" type="curve" smooth="yes"/>
      <point x="286.219" y="-87"/>
      <point x="245.704" y="-65"/>
      <point x="178.704" y="-65" type="curve"/>
    </contour>
  </outline>
</glyph>
<glyph name="onesuperior" format="2">
  <advance width="600" height="985"/>
  <unicode hex="00B9"/>
  <outline>
    <contour>
      <point x="175.696" y="440" type="line"/>
      <point x="484.696" y="440" type="line"/>
      <point x="496.576" y="515" type="line"/>
      <point x="391.576" y="515" type="line"/>
      <point x="431.176" y="765" type="line"/>
      <point x="316.176" y="765" type="line"/>
      <point x="232.622" y="711" type="line"/>
      <point x="217.099" y="613" type="line"/>
      <point x="285.544" y="660" type="line" smooth="yes"/>
      <point x="309.078" y="676"/>
      <point x="331.563" y="698"/>
      <point x="331.563" y="698" type="curve"/>
      <point x="336.563" y="698" type="line"/>
      <point x="336.405" y="697"/>
      <point x="327.237" y="677"/>
      <point x="322.168" y="645" type="curve" smooth="yes"/>
      <point x="301.576" y="515" type="line"/>
      <point x="187.576" y="515" type="line"/>
    </contour>
  </outline>
</glyph>
<glyph name="ordmasculine" format="2">
  <advance width="600" height="985"/>
  <unicode hex="00BA"/>
  <outline>
    <contour>
      <point x="284.248" y="615" type="line" smooth="yes"/>
      <point x="289" y="645"/>
      <point x="314.168" y="665"/>
      <point x="347.168" y="665" type="curve" smooth="yes"/>
      <point x="380.168" y="665"/>
      <point x="399" y="645"/>
      <point x="394.248" y="615" type="curve" smooth="yes"/>
      <point x="386.486" y="566" type="line" smooth="yes"/>
      <point x="381.576" y="535"/>
      <point x="356.408" y="515"/>
      <point x="323.408" y="515" type="curve" smooth="yes"/>
      <point x="290.408" y="515"/>
      <point x="271.576" y="535"/>
      <point x="276.486" y="566" type="curve" smooth="yes"/>
    </contour>
    <contour>
      <point x="474.248" y="615" type="line" smooth="yes"/>
      <point x="485.494" y="686"/>
      <point x="438.256" y="735"/>
      <point x="358.256" y="735" type="curve" smooth="yes"/>
      <point x="276.256" y="735"/>
      <point x="215.811" y="688"/>
      <point x="204.248" y="615" type="curve" smooth="yes"/>
      <point x="196.486" y="566" type="line" smooth="yes"/>
      <point x="185.24" y="495"/>
      <point x="233.32" y="445"/>
      <point x="312.32" y="445" type="curve" smooth="yes"/>
      <point x="394.32" y="445"/>
      <point x="454.765" y="492"/>
      <point x="466.486" y="566" type="curve" smooth="yes"/>
    </contour>
  </outline>
</glyph>
<glyph name="questiondown" format="2">
  <advance width="600" height="985"/>
  <unicode hex="00BF"/>
  <outline>
    <contour>
      <point x="380.775" y="415" type="curve" smooth="yes"/>
      <point x="350.775" y="415" type="line" smooth="yes"/>
      <point x="305.775" y="415"/>
      <point x="280.711" y="443"/>
      <point x="288.204" y="485.5" type="curve" smooth="yes"/>
      <point x="295.697" y="528"/>
      <point x="330.457" y="555"/>
      <point x="376.457" y="555" type="curve" smooth="yes"/>
      <point x="405.457" y="555" type="line" smooth="yes"/>
      <point x="450.457" y="555"/>
      <point x="475.521" y="527"/>
      <point x="468.116" y="485" type="curve" smooth="yes"/>
      <point x="460.711" y="443"/>
      <point x="425.775" y="415"/>
    </contour>
    <contour>
      <point x="49.544" y="45" type="curve" smooth="yes"/>
      <point x="68.8763" y="166"/>
      <point x="162.804" y="245"/>
      <point x="289.804" y="245" type="curve"/>
      <point x="302.908" y="325" type="line"/>
      <point x="427.908" y="325" type="line"/>
      <point x="398.003" y="110" type="line"/>
      <point x="298.003" y="110" type="line" smooth="yes"/>
      <point x="243.003" y="110"/>
      <point x="205.42" y="84"/>
      <point x="198.662" y="40" type="curve" smooth="yes"/>
      <point x="190.905" y="-4"/>
      <point x="221.321" y="-30"/>
      <point x="277.321" y="-30" type="curve" smooth="yes"/>
      <point x="442.321" y="-30" type="line"/>
      <point x="419.639" y="-170" type="line"/>
      <point x="264.639" y="-170" type="line" smooth="yes"/>
      <point x="113.639" y="-170"/>
      <point x="29.625" y="-85"/>
    </contour>
  </outline>
</glyph>
<glyph name="AE" format="2">
  <advance width="600" height="985"/>
  <unicode hex="00C6"/>
  <outline>
    <contour>
      <point x="-50" y="0" type="line"/>
      <point x="201.048" y="720" type="line"/>
      <point x="644.048" y="720" type="line"/>
      <point x="624.248" y="595" type="line"/>
      <point x="460.248" y="595" type="line"/>
      <point x="435.062" y="436" type="line"/>
      <point x="574.062" y="436" type="line"/>
      <point x="553.312" y="305" type="line"/>
      <point x="414.312" y="305" type="line"/>
      <point x="385.958" y="126" type="line"/>
      <point x="549.958" y="126" type="line"/>
      <point x="530" y="0" type="line"/>
      <point x="241" y="0" type="line"/>
      <point x="267.136" y="165" type="line"/>
      <point x="145.136" y="165" type="line"/>
      <point x="93" y="0" type="line"/>
    </contour>
    <contour>
      <point x="283.768" y="270" type="line"/>
      <point x="335.248" y="595" type="line"/>
      <point x="286.248" y="595" type="line"/>
      <point x="178.768" y="270" type="line"/>
    </contour>
  </outline>
</glyph>
<glyph name="multiply" format="2">
  <advance width="600" height="985"/>
  <unicode hex="00D7"/>
  <outline>
    <contour>
      <point x="545.488" y="445" type="line"/>
      <point x="406.322" y="324" type="line"/>
      <point x="507.314" y="204" type="line"/>
      <point x="394.949" y="107" type="line"/>
      <point x="293.957" y="227" type="line"/>
      <point x="153.949" y="107" type="line"/>
      <point x="63.056" y="215" type="line"/>
      <point x="203.064" y="335" type="line"/>
      <point x="101.23" y="456" type="line"/>
      <point x="213.595" y="553" type="line"/>
      <point x="315.429" y="432" type="line"/>
      <point x="454.595" y="553" type="line"/>
    </contour>
  </outline>
</glyph>
<glyph name="Oslash" format="2">
  <advance width="600" height="985"/>
  <unicode hex="00D8"/>
  <outline>
    <component base="O"/>
    <contour>
      <point x="531.8" y="750" type="line"/>
      <point x="651.8" y="750" type="line"/>
      <point x="80.664" y="-40" type="line"/>
      <point x="-39.336" y="-40" type="line"/>
    </contour>
  </outline>
</glyph>
<glyph name="Thorn" format="2">
  <advance width="600" height="985"/>
  <unicode hex="00DE"/>
  <outline>
    <contour>
      <point x="170" y="0" type="line"/>
      <point x="20" y="0" type="line"/>
      <point x="134.048" y="720" type="line"/>
      <point x="284.048" y="720" type="line"/>
      <point x="263.456" y="590" type="line"/>
      <point x="383.456" y="590" type="line" smooth="yes"/>
      <point x="527.456" y="590"/>
      <point x="600.784" y="510"/>
      <point x="579.4" y="375" type="curve" smooth="yes"/>
      <point x="558.174" y="241"/>
      <point x="458.344" y="160"/>
      <point x="315.344" y="160" type="curve" smooth="yes"/>
      <point x="195.344" y="160" type="line"/>
    </contour>
    <contour>
      <point x="310.144" y="285" type="line" smooth="yes"/>
      <point x="378.144" y="285"/>
      <point x="420.213" y="317"/>
      <point x="429.4" y="375" type="curve" smooth="yes"/>
      <point x="438.587" y="433"/>
      <point x="406.656" y="465"/>
      <point x="338.656" y="465" type="curve" smooth="yes"/>
      <point x="243.656" y="465" type="line"/>
      <point x="215.144" y="285" type="line"/>
    </contour>
  </outline>
</glyph>
<glyph name="germandbls" format="2">
  <advance width="600" height="985"/>
  <unicode hex="00DF"/>
  <outline>
    <contour>
      <point x="35.544" y="35" type="line" smooth="yes"/>
      <point x="27.1488" y="-18"/>
      <point x="-9.92" y="-50"/>
      <point x="-62.92" y="-50" type="curve" smooth="yes"/>
      <point x="-107.92" y="-50" type="line"/>
      <point x="-126.928" y="-170" type="line"/>
      <point x="-81.928" y="-170" type="line" smooth="yes"/>
      <point x="56.072" y="-170"/>
      <point x="150.269" y="-93"/>
      <point x="170.544" y="35" type="curve" smooth="yes"/>
      <point x="246.734" y="516" type="line" smooth="yes"/>
      <point x="255.967" y="574.288"/>
      <point x="298.125" y="605"/>
      <point x="350.832" y="605" type="curve" smooth="yes" name="sv02"/>
      <point x="407.096" y="605"/>
      <point x="436.58" y="571.846"/>
      <point x="427.893" y="517" type="curve" smooth="yes" name="dh02"/>
      <point x="419.213" y="462.203"/>
      <point x="379.122" y="428"/>
      <point x="322.795" y="428" type="curve" smooth="yes" name="dv02"/>
      <point x="277.795" y="428" type="line"/>
      <point x="260.371" y="318" type="line" name="sh03"/>
      <point x="307.371" y="318" type="line" smooth="yes" name="dv01"/>
      <point x="370.523" y="318"/>
      <point x="403.52" y="281.06"/>
      <point x="394.006" y="221" type="curve" smooth="yes" name="ih01"/>
      <point x="384.537" y="161.22"/>
      <point x="340.313" y="125"/>
      <point x="276.8" y="125" type="curve" smooth="yes"/>
      <point x="229.8" y="125" type="line"/>
      <point x="210" y="0" type="line"/>
      <point x="262" y="0" type="line" smooth="yes" name="ab01"/>
      <point x="410.8" y="0"/>
      <point x="523.242" y="83.6"/>
      <point x="543.106" y="209" type="curve" smooth="yes" name="sh02"/>
      <point x="557.483" y="299.764"/>
      <point x="506.084" y="364.164"/>
      <point x="414.608" y="370" type="curve"/>
      <point x="416.35" y="381" type="line" name="sh01"/>
      <point x="502.169" y="388.691"/>
      <point x="568.389" y="450.691"/>
      <point x="581.902" y="536" type="curve" smooth="yes" name="dh03"/>
      <point x="600.34" y="652.4"/>
      <point x="516.232" y="730"/>
      <point x="371.632" y="730" type="curve" smooth="yes"/>
      <point x="236.032" y="730"/>
      <point x="132.073" y="644.4"/>
      <point x="111.734" y="516" type="curve" smooth="yes"/>
    </contour>
  </outline>
</glyph>
<glyph name="ae" format="2">
  <advance width="600" height="985"/>
  <unicode hex="00E6"/>
  <outline>
    <contour>
      <point x="359.272" y="330" type="line"/>
      <point x="452.272" y="330" type="line"/>
      <point x="464.944" y="410" type="line" smooth="yes"/>
      <point x="470.013" y="442"/>
      <point x="455.339" y="463"/>
      <point x="427.339" y="463" type="curve" smooth="yes"/>
      <point x="399.339" y="463"/>
      <point x="377.013" y="442"/>
      <point x="371.944" y="410" type="curve" smooth="yes"/>
    </contour>
    <contour>
      <point x="215.176" y="140" type="curve" smooth="yes"/>
      <point x="232.6" y="250" type="line"/>
      <point x="189.6" y="250" type="line" smooth="yes"/>
      <point x="159.6" y="250"/>
      <point x="135.957" y="227"/>
      <point x="130.096" y="190" type="curve" smooth="yes"/>
      <point x="122.176" y="140" type="line" smooth="yes"/>
      <point x="116.949" y="107"/>
      <point x="131.781" y="87"/>
      <point x="162.781" y="87" type="curve" smooth="yes"/>
      <point x="190.781" y="87"/>
      <point x="209.949" y="107"/>
    </contour>
    <contour>
      <point x="322.032" y="480" type="curve"/>
      <point x="330.032" y="480" type="line"/>
      <point x="330.032" y="480"/>
      <point x="353.704" y="560"/>
      <point x="458.704" y="560" type="curve" smooth="yes"/>
      <point x="549.704" y="560"/>
      <point x="594.834" y="504"/>
      <point x="579.944" y="410" type="curve" smooth="yes"/>
      <point x="554.6" y="250" type="line"/>
      <point x="346.6" y="250" type="line"/>
      <point x="329.176" y="140" type="line" smooth="yes"/>
      <point x="324.107" y="108"/>
      <point x="339.781" y="87"/>
      <point x="367.781" y="87" type="curve" smooth="yes"/>
      <point x="390.781" y="87"/>
      <point x="410.157" y="102"/>
      <point x="416.8" y="125" type="curve"/>
      <point x="531.8" y="125" type="line"/>
      <point x="505.653" y="42"/>
      <point x="442.416" y="-10"/>
      <point x="368.416" y="-10" type="curve" smooth="yes"/>
      <point x="263.416" y="-10"/>
      <point x="265.088" y="70"/>
      <point x="265.088" y="70" type="curve"/>
      <point x="257.088" y="70" type="line"/>
      <point x="257.088" y="70"/>
      <point x="231.416" y="-10"/>
      <point x="120.416" y="-10" type="curve" smooth="yes"/>
      <point x="36.416" y="-10"/>
      <point x="-7.3968" y="48"/>
      <point x="7.176" y="140" type="curve" smooth="yes"/>
      <point x="15.096" y="190" type="line" smooth="yes"/>
      <point x="28.8768" y="277"/>
      <point x="100.272" y="330"/>
      <point x="202.272" y="330" type="curve" smooth="yes"/>
      <point x="245.272" y="330" type="line"/>
      <point x="257.944" y="410" type="line" smooth="yes"/>
      <point x="263.013" y="442"/>
      <point x="248.339" y="463"/>
      <point x="222.339" y="463" type="curve" smooth="yes"/>
      <point x="192.339" y="463"/>
      <point x="169.379" y="438"/>
      <point x="163.36" y="400" type="curve"/>
      <point x="48.36" y="400" type="line"/>
      <point x="72.0416" y="499"/>
      <point x="136.704" y="560"/>
      <point x="219.704" y="560" type="curve" smooth="yes"/>
      <point x="323.704" y="560"/>
      <point x="322.032" y="480"/>
    </contour>
  </outline>
</glyph>
<glyph name="divide" format="2">
  <advance width="600" height="985"/>
  <unicode hex="00F7"/>
  <outline>
    <component base="minus"/>
    <contour>
      <point x="320.8" y="595" type="curve" smooth="yes"/>
      <point x="350.8" y="595" type="line" smooth="yes"/>
      <point x="395.8" y="595"/>
      <point x="421.365" y="567"/>
      <point x="414.633" y="524.5" type="curve" smooth="yes"/>
      <point x="407.901" y="482"/>
      <point x="373.624" y="455"/>
      <point x="327.624" y="455" type="curve" smooth="yes"/>
      <point x="298.624" y="455" type="line" smooth="yes"/>
      <point x="253.624" y="455"/>
      <point x="228.059" y="483"/>
      <point x="234.712" y="525" type="curve" smooth="yes"/>
      <point x="241.365" y="567"/>
      <point x="275.8" y="595"/>
    </contour>
    <contour>
      <point x="258.8" y="215" type="curve" smooth="yes"/>
      <point x="288.8" y="215" type="line" smooth="yes"/>
      <point x="333.8" y="215"/>
      <point x="359.365" y="187"/>
      <point x="352.633" y="144.5" type="curve" smooth="yes"/>
      <point x="345.901" y="102"/>
      <point x="311.624" y="75"/>
      <point x="265.624" y="75" type="curve" smooth="yes"/>
      <point x="236.624" y="75" type="line" smooth="yes"/>
      <point x="191.624" y="75"/>
      <point x="166.059" y="103"/>
      <point x="172.712" y="145" type="curve" smooth="yes"/>
      <point x="179.365" y="187"/>
      <point x="213.8" y="215"/>
    </contour>
  </outline>
</glyph>
<glyph name="oslash" format="2">
  <advance width="600" height="985"/>
  <unicode hex="00F8"/>
  <outline>
    <component base="o"/>
    <contour>
      <point x="501.456" y="590" type="line"/>
      <point x="616.456" y="590" type="line"/>
      <point x="85.248" y="-30" type="line"/>
      <point x="-29.752" y="-30" type="line"/>
    </contour>
  </outline>
</glyph>
<glyph name="dcroat" format="2">
  <advance width="600" height="985"/>
  <unicode hex="0111"/>
  <outline>
    <contour>
      <point x="188.416" y="-10" type="curve" smooth="yes"/>
      <point x="266.416" y="-10"/>
      <point x="326.752" y="30"/>
      <point x="347.206" y="96" type="curve"/>
      <point x="357.206" y="96" type="line"/>
      <point x="342" y="0" type="line"/>
      <point x="487" y="0" type="line"/>
      <point x="577.288" y="570" type="line"/>
      <point x="637.288" y="570" type="line"/>
      <point x="651.544" y="660" type="line"/>
      <point x="591.544" y="660" type="line"/>
      <point x="601.048" y="720" type="line"/>
      <point x="451.048" y="720" type="line"/>
      <point x="441.544" y="660" type="line"/>
      <point x="331.544" y="660" type="line"/>
      <point x="317.288" y="570" type="line"/>
      <point x="427.288" y="570" type="line"/>
      <point x="418.576" y="515" type="line" smooth="yes"/>
      <point x="413.032" y="480"/>
      <point x="408.528" y="420"/>
      <point x="408.528" y="420" type="curve"/>
      <point x="398.528" y="420" type="line"/>
      <point x="398.824" y="485"/>
      <point x="351.16" y="525"/>
      <point x="273.16" y="525" type="curve" smooth="yes"/>
      <point x="157.16" y="525"/>
      <point x="67.8544" y="441"/>
      <point x="47.104" y="310" type="curve" smooth="yes"/>
      <point x="31.264" y="210" type="line" smooth="yes"/>
      <point x="9.88" y="75"/>
      <point x="72.416" y="-10"/>
    </contour>
    <contour>
      <point x="261.166" y="121" type="curve" smooth="yes"/>
      <point x="202.166" y="121"/>
      <point x="173.186" y="159"/>
      <point x="182.056" y="215" type="curve" smooth="yes"/>
      <point x="196.312" y="305" type="line" smooth="yes"/>
      <point x="205.024" y="360"/>
      <point x="247.568" y="395"/>
      <point x="304.568" y="395" type="curve" smooth="yes"/>
      <point x="361.568" y="395"/>
      <point x="393.866" y="359"/>
      <point x="385.312" y="305" type="curve" smooth="yes"/>
      <point x="370.264" y="210" type="line" smooth="yes"/>
      <point x="362.027" y="158"/>
      <point x="320.166" y="121"/>
    </contour>
  </outline>
</glyph>
<glyph name="hbar" format="2">
  <advance width="600" height="985"/>
  <unicode hex="0127"/>
  <outline>
    <contour>
      <point x="255.248" y="585" type="line"/>
      <point x="248.12" y="540" type="line" smooth="yes"/>
      <point x="241.626" y="499"/>
      <point x="223.072" y="445"/>
      <point x="224.072" y="445" type="curve"/>
      <point x="235.072" y="445" type="line"/>
      <point x="254.526" y="511"/>
      <point x="312.704" y="550"/>
      <point x="392.704" y="550" type="curve" smooth="yes"/>
      <point x="503.704" y="550"/>
      <point x="561.19" y="471"/>
      <point x="541.232" y="345" type="curve" smooth="yes"/>
      <point x="486.584" y="0" type="line"/>
      <point x="336.584" y="0" type="line"/>
      <point x="388.856" y="330" type="line" smooth="yes"/>
      <point x="397.568" y="385"/>
      <point x="369.112" y="420"/>
      <point x="316.112" y="420" type="curve" smooth="yes"/>
      <point x="263.112" y="420"/>
      <point x="223.568" y="385"/>
      <point x="214.856" y="330" type="curve" smooth="yes"/>
      <point x="162.584" y="0" type="line"/>
      <point x="12.584" y="0" type="line"/>
      <point x="105.248" y="585" type="line"/>
      <point x="44.248" y="585" type="line"/>
      <point x="57.712" y="670" type="line"/>
      <point x="118.712" y="670" type="line"/>
      <point x="126.632" y="720" type="line"/>
      <point x="276.632" y="720" type="line"/>
      <point x="268.712" y="670" type="line"/>
      <point x="367.712" y="670" type="line"/>
      <point x="354.248" y="585" type="line"/>
    </contour>
  </outline>
</glyph>
<glyph name="dotlessi" format="2">
  <advance width="600" height="985"/>
  <unicode hex="0131"/>
  <outline>
    <contour>
      <point x="137.12" y="550" type="line"/>
      <point x="447.12" y="550" type="line"/>
      <point x="381.542" y="136" type="line"/>
      <point x="536.542" y="136" type="line"/>
      <point x="515" y="0" type="line"/>
      <point x="25" y="0" type="line"/>
      <point x="46.5424" y="136" type="line"/>
      <point x="241.542" y="136" type="line"/>
      <point x="285.736" y="415" type="line"/>
      <point x="115.736" y="415" type="line"/>
    </contour>
  </outline>
</glyph>
<glyph name="ij" format="2">
  <advance width="600" height="985"/>
  <unicode hex="0133"/>
  <outline>
    <contour>
      <point x="118.12" y="550" type="line"/>
      <point x="31" y="0" type="line"/>
      <point x="171" y="0" type="line"/>
      <point x="258.12" y="550" type="line"/>
    </contour>
    <contour>
      <point x="203.176" y="765" type="line" smooth="yes"/>
      <point x="158.176" y="765"/>
      <point x="123.741" y="737"/>
      <point x="117.088" y="695" type="curve" smooth="yes"/>
      <point x="110.435" y="653"/>
      <point x="136" y="625"/>
      <point x="181" y="625" type="curve" smooth="yes"/>
      <point x="210" y="625" type="line" smooth="yes"/>
      <point x="256" y="625"/>
      <point x="290.277" y="652"/>
      <point x="297.009" y="694.5" type="curve" smooth="yes"/>
      <point x="303.741" y="737"/>
      <point x="278.176" y="765"/>
      <point x="233.176" y="765" type="curve" smooth="yes"/>
    </contour>
    <contour>
      <point x="508.176" y="765" type="line" smooth="yes"/>
      <point x="463.176" y="765"/>
      <point x="428.741" y="737"/>
      <point x="422.088" y="695" type="curve" smooth="yes"/>
      <point x="415.435" y="653"/>
      <point x="441" y="625"/>
      <point x="486" y="625" type="curve" smooth="yes"/>
      <point x="515" y="625" type="line" smooth="yes"/>
      <point x="561" y="625"/>
      <point x="595.277" y="652"/>
      <point x="602.009" y="694.5" type="curve" smooth="yes"/>
      <point x="608.741" y="737"/>
      <point x="583.176" y="765"/>
      <point x="538.176" y="765" type="curve" smooth="yes"/>
    </contour>
    <contour>
      <point x="335.752" y="30" type="line" smooth="yes"/>
      <point x="329.258" y="-11"/>
      <point x="295.456" y="-35"/>
      <point x="243.456" y="-35" type="curve"/>
      <point x="164.456" y="-35" type="line"/>
      <point x="143.864" y="-165" type="line"/>
      <point x="222.864" y="-165" type="line"/>
      <point x="358.864" y="-165"/>
      <point x="467.694" y="-84"/>
      <point x="485.752" y="30" type="curve" smooth="yes"/>
      <point x="568.12" y="550" type="line"/>
      <point x="418.12" y="550" type="line"/>
    </contour>
  </outline>
</glyph>
<glyph name="Lslash" format="2">
  <advance width="600" height="985"/>
  <unicode hex="0141"/>
  <outline>
    <component base="L" xOffset="10"/>
    <contour>
      <point x="28.608" y="370" type="line"/>
      <point x="438.704" y="560" type="line"/>
      <point x="416.528" y="420" type="line"/>
      <point x="6.432" y="230" type="line"/>
    </contour>
  </outline>
</glyph>
<glyph name="lslash" format="2">
  <advance width="600" height="985"/>
  <unicode hex="0142"/>
  <outline>
    <contour>
      <point x="109" y="370" type="line"/>
      <point x="519" y="560" type="line"/>
      <point x="497" y="420" type="line"/>
      <point x="86" y="230" type="line"/>
    </contour>
    <contour>
      <point x="91" y="730" type="line"/>
      <point x="411" y="730" type="line"/>
      <point x="325" y="190" type="line" smooth="yes"/>
      <point x="320" y="156"/>
      <point x="337" y="135"/>
      <point x="371" y="135" type="curve" smooth="yes"/>
      <point x="536" y="135" type="line"/>
      <point x="515" y="0" type="line"/>
      <point x="335" y="0" type="line" smooth="yes"/>
      <point x="217" y="0"/>
      <point x="156" y="72"/>
      <point x="175" y="190" type="curve" smooth="yes"/>
      <point x="239" y="595" type="line"/>
      <point x="69" y="595" type="line"/>
    </contour>
  </outline>
</glyph>
<glyph name="OE" format="2">
  <advance width="600" height="985"/>
  <unicode hex="0152"/>
  <outline>
    <contour>
      <point x="259.888" y="195" type="line" smooth="yes"/>
      <point x="252.443" y="148"/>
      <point x="227.166" y="121"/>
      <point x="191.166" y="121" type="curve" smooth="yes"/>
      <point x="156.166" y="121"/>
      <point x="138.602" y="149"/>
      <point x="145.888" y="195" type="curve" smooth="yes"/>
      <point x="199.11" y="531" type="line" smooth="yes"/>
      <point x="206.397" y="577"/>
      <point x="232.832" y="605"/>
      <point x="267.832" y="605" type="curve" smooth="yes"/>
      <point x="303.832" y="605"/>
      <point x="320.555" y="578"/>
      <point x="313.11" y="531" type="curve" smooth="yes"/>
    </contour>
    <contour>
      <point x="235" y="0" type="line"/>
      <point x="525" y="0" type="line"/>
      <point x="544.958" y="126" type="line"/>
      <point x="383.958" y="126" type="line"/>
      <point x="412.47" y="306" type="line"/>
      <point x="548.47" y="306" type="line"/>
      <point x="568.429" y="432" type="line"/>
      <point x="432.429" y="432" type="line"/>
      <point x="458.248" y="595" type="line"/>
      <point x="619.248" y="595" type="line"/>
      <point x="639.048" y="720" type="line"/>
      <point x="349.048" y="720" type="line"/>
      <point x="336.376" y="640" type="line"/>
      <point x="331.376" y="640" type="line"/>
      <point x="331.376" y="640"/>
      <point x="334.632" y="730"/>
      <point x="235.632" y="730" type="curve" smooth="yes"/>
      <point x="144.632" y="730"/>
      <point x="78.9104" y="656"/>
      <point x="59.1104" y="531" type="curve" smooth="yes"/>
      <point x="5.888" y="195" type="line" smooth="yes"/>
      <point x="-13.912" y="70"/>
      <point x="28.3664" y="-4"/>
      <point x="119.366" y="-4" type="curve" smooth="yes"/>
      <point x="218.366" y="-4"/>
      <point x="243.622" y="86"/>
      <point x="243.622" y="86" type="curve"/>
      <point x="248.622" y="86" type="line"/>
    </contour>
  </outline>
</glyph>
<glyph name="tcaron" format="2">
  <advance width="600" height="985"/>
  <unicode hex="0165"/>
  <outline>
    <component base="t"/>
    <contour>
      <point x="590" y="756" type="line"/>
      <point x="525" y="610" type="line"/>
      <point x="445" y="610" type="line"/>
      <point x="490" y="756" type="line"/>
    </contour>
  </outline>
</glyph>
<glyph name="longs" format="2">
  <advance width="600" height="985"/>
  <unicode hex="017F"/>
  <outline>
    <contour>
      <point x="594.048" y="720" type="line"/>
      <point x="571.872" y="580" type="line"/>
      <point x="466.872" y="580" type="line" smooth="yes"/>
      <point x="416.872" y="580"/>
      <point x="382.12" y="550"/>
      <point x="374.2" y="500" type="curve" smooth="yes"/>
      <point x="302.92" y="50" type="line" smooth="yes"/>
      <point x="281.061" y="-88"/>
      <point x="182.072" y="-170"/>
      <point x="38.072" y="-170" type="curve" smooth="yes"/>
      <point x="-26.928" y="-170" type="line"/>
      <point x="-4.752" y="-30" type="line"/>
      <point x="60.248" y="-30" type="line" smooth="yes"/>
      <point x="110.248" y="-30"/>
      <point x="145" y="0"/>
      <point x="152.92" y="50" type="curve" smooth="yes"/>
      <point x="224.2" y="500" type="line" smooth="yes"/>
      <point x="247.01" y="644"/>
      <point x="339.048" y="720"/>
      <point x="489.048" y="720" type="curve" smooth="yes"/>
    </contour>
  </outline>
</glyph>
<glyph name="Ohorn" format="2">
  <advance width="600"/>
  <unicode hex="01A0"/>
  <outline>
    <contour>
      <point x="345.04" y="600" type="curve" smooth="yes" name="sv01"/>
      <point x="408.849" y="600"/>
      <point x="441.465" y="564.804"/>
      <point x="432.15" y="506" type="curve" smooth="yes" name="ah01"/>
      <point x="386.056" y="215" type="line" smooth="yes"/>
      <point x="376.604" y="155.326"/>
      <point x="333.919" y="121"/>
      <point x="269.166" y="121" type="curve" smooth="yes" name="sv02"/>
      <point x="204.416" y="121"/>
      <point x="172.604" y="155.328"/>
      <point x="182.056" y="215" type="curve" smooth="yes" name="sh02"/>
      <point x="228.15" y="506" type="line" smooth="yes"/>
      <point x="237.602" y="565.672"/>
      <point x="280.289" y="600"/>
    </contour>
    <contour>
      <point x="365.632" y="730" type="curve" smooth="yes" name="at01"/>
      <point x="214.432" y="730"/>
      <point x="99.4394" y="640.4"/>
      <point x="78.1504" y="506" type="curve" smooth="yes"/>
      <point x="32.056" y="215" type="line" smooth="yes" name="sh01"/>
      <point x="10.672" y="80"/>
      <point x="97.216" y="-10"/>
      <point x="248.416" y="-10" type="curve" smooth="yes" name="ab01"/>
      <point x="399.616" y="-10"/>
      <point x="514.672" y="80"/>
      <point x="536.056" y="215" type="curve" smooth="yes"/>
      <point x="582.15" y="506" type="line" smooth="yes" name="sh03"/>
      <point x="603.439" y="640.4"/>
      <point x="516.832" y="730"/>
    </contour>
    <contour>
      <point x="556.472" y="830" type="line"/>
      <point x="540.474" y="729" type="line" smooth="yes"/>
      <point x="536.782" y="705.697"/>
      <point x="519.404" y="690"/>
      <point x="497.296" y="690" type="curve" smooth="yes"/>
      <point x="469.296" y="690" type="line"/>
      <point x="453.456" y="590" type="line"/>
      <point x="488.456" y="590" type="line" smooth="yes"/>
      <point x="578.456" y="590"/>
      <point x="647.643" y="648"/>
      <point x="661.424" y="735" type="curve" smooth="yes"/>
      <point x="676.472" y="830" type="line"/>
    </contour>
  </outline>
</glyph>
<glyph name="ohorn" format="2">
  <advance width="600"/>
  <unicode hex="01A1"/>
  <outline>
    <contour>
      <point x="181.264" y="210" type="curve" smooth="yes" name="sh02"/>
      <point x="202.014" y="341" type="line" smooth="yes"/>
      <point x="210.568" y="395"/>
      <point x="256.112" y="430"/>
      <point x="318.112" y="430" type="curve" smooth="yes" name="sv01"/>
      <point x="380.112" y="430"/>
      <point x="414.568" y="395"/>
      <point x="406.014" y="341" type="curve" smooth="yes" name="ah01"/>
      <point x="385.264" y="210" type="line" smooth="yes"/>
      <point x="376.71" y="156"/>
      <point x="331.166" y="121"/>
      <point x="269.166" y="121" type="curve" smooth="yes" name="sv02"/>
      <point x="207.166" y="121"/>
      <point x="172.71" y="156"/>
    </contour>
    <contour>
      <point x="31.264" y="210" type="line" smooth="yes" name="sh01"/>
      <point x="10.8304" y="81"/>
      <point x="97.416" y="-10"/>
      <point x="248.416" y="-10" type="curve" smooth="yes" name="ab01"/>
      <point x="399.416" y="-10"/>
      <point x="514.83" y="81"/>
      <point x="535.264" y="210" type="curve" smooth="yes"/>
      <point x="556.014" y="341" type="line" smooth="yes" name="sh03"/>
      <point x="576.448" y="470"/>
      <point x="489.704" y="560"/>
      <point x="338.704" y="560" type="curve" smooth="yes" name="at01"/>
      <point x="187.704" y="560"/>
      <point x="72.448" y="470"/>
      <point x="52.0144" y="341" type="curve" smooth="yes"/>
    </contour>
    <contour>
      <point x="524.544" y="660" type="line"/>
      <point x="508.546" y="559" type="line" smooth="yes"/>
      <point x="504.854" y="535.697"/>
      <point x="487.476" y="520"/>
      <point x="465.368" y="520" type="curve" smooth="yes"/>
      <point x="432.368" y="520" type="line"/>
      <point x="416.528" y="420" type="line"/>
      <point x="456.528" y="420" type="line" smooth="yes"/>
      <point x="540.528" y="420"/>
      <point x="605.715" y="478"/>
      <point x="619.496" y="565" type="curve" smooth="yes"/>
      <point x="634.544" y="660" type="line"/>
    </contour>
  </outline>
</glyph>
<glyph name="uni0237" format="2">
  <advance width="600" height="985"/>
  <unicode hex="0237"/>
  <outline>
    <contour>
      <point x="282.128" y="45" type="line" smooth="yes"/>
      <point x="274.842" y="-1"/>
      <point x="241.248" y="-30"/>
      <point x="195.248" y="-30" type="curve" smooth="yes"/>
      <point x="35.248" y="-30" type="line"/>
      <point x="13.072" y="-170" type="line"/>
      <point x="184.072" y="-170" type="line" smooth="yes"/>
      <point x="314.072" y="-170"/>
      <point x="411.378" y="-86"/>
      <point x="432.128" y="45" type="curve" smooth="yes"/>
      <point x="512.12" y="550" type="line"/>
      <point x="147.12" y="550" type="line"/>
      <point x="124.944" y="410" type="line"/>
      <point x="339.944" y="410" type="line"/>
    </contour>
  </outline>
</glyph>
<glyph name="uni02BA" format="2">
  <advance width="600"/>
  <unicode hex="02BA"/>
  <outline>
    <contour>
      <point x="689.048" y="720" type="line"/>
      <point x="509.786" y="409" type="line"/>
      <point x="379.786" y="409" type="line"/>
      <point x="509.048" y="720" type="line"/>
    </contour>
    <contour>
      <point x="414.048" y="720" type="line"/>
      <point x="234.786" y="409" type="line"/>
      <point x="104.786" y="409" type="line"/>
      <point x="234.048" y="720" type="line"/>
    </contour>
  </outline>
</glyph>
<glyph name="circumflex" format="2">
  <advance width="600" height="985"/>
  <unicode hex="02C6"/>
  <outline>
    <contour>
      <point x="305.928" y="785" type="line"/>
      <point x="445.928" y="785" type="line"/>
      <point x="558.752" y="645" type="line"/>
      <point x="427.752" y="645" type="line"/>
      <point x="371.84" y="715" type="line"/>
      <point x="362.84" y="715" type="line"/>
      <point x="288.752" y="645" type="line"/>
      <point x="148.752" y="645" type="line"/>
    </contour>
  </outline>
</glyph>
<glyph name="caron" format="2">
  <advance width="600" height="985"/>
  <unicode hex="02C7"/>
  <outline>
    <contour>
      <point x="283.752" y="645" type="line"/>
      <point x="170.928" y="785" type="line"/>
      <point x="303.928" y="785" type="line"/>
      <point x="355.84" y="715" type="line"/>
      <point x="364.84" y="715" type="line"/>
      <point x="442.928" y="785" type="line"/>
      <point x="580.928" y="785" type="line"/>
      <point x="423.752" y="645" type="line"/>
    </contour>
  </outline>
</glyph>
<glyph name="breve" format="2">
  <advance width="600" height="985"/>
  <unicode hex="02D8"/>
  <outline>
    <contour>
      <point x="364.011" y="725" type="curve" smooth="yes"/>
      <point x="407.218" y="725"/>
      <point x="436.478" y="747.966"/>
      <point x="442.344" y="785" type="curve"/>
      <point x="559.344" y="785" type="line"/>
      <point x="545.088" y="695"/>
      <point x="461.584" y="635"/>
      <point x="350.584" y="635" type="curve" smooth="yes"/>
      <point x="240.184" y="635"/>
      <point x="176.088" y="695"/>
      <point x="190.344" y="785" type="curve"/>
      <point x="303.344" y="785" type="line"/>
      <point x="297.431" y="747.673"/>
      <point x="321.086" y="725"/>
    </contour>
  </outline>
</glyph>
<glyph name="tilde" format="2">
  <advance width="600" height="985"/>
  <unicode hex="02DC"/>
  <outline>
    <contour>
      <point x="430.632" y="720" type="curve" smooth="yes"/>
      <point x="390.632" y="720"/>
      <point x="391.72" y="790"/>
      <point x="306.72" y="790" type="curve" smooth="yes"/>
      <point x="240.72" y="790"/>
      <point x="189.434" y="744"/>
      <point x="178.504" y="675" type="curve" smooth="yes"/>
      <point x="172.96" y="640" type="line"/>
      <point x="257.96" y="640" type="line"/>
      <point x="263.029" y="672" type="line" smooth="yes"/>
      <point x="266.181" y="691.9"/>
      <point x="280.165" y="705"/>
      <point x="298.256" y="705" type="curve" smooth="yes"/>
      <point x="338.256" y="705"/>
      <point x="337.168" y="635"/>
      <point x="422.168" y="635" type="curve" smooth="yes"/>
      <point x="488.168" y="635"/>
      <point x="539.454" y="681"/>
      <point x="550.384" y="750" type="curve" smooth="yes"/>
      <point x="555.928" y="785" type="line"/>
      <point x="470.928" y="785" type="line"/>
      <point x="465.067" y="748" type="line" smooth="yes"/>
      <point x="462.374" y="731"/>
      <point x="448.632" y="720"/>
    </contour>
  </outline>
</glyph>
<glyph name="hungarumlaut" format="2">
  <advance width="600" height="985"/>
  <unicode hex="02DD"/>
  <outline>
    <contour>
      <point x="649.344" y="785" type="line"/>
      <point x="509.344" y="785" type="line"/>
      <point x="382.168" y="645" type="line"/>
      <point x="512.168" y="645" type="line"/>
    </contour>
    <contour>
      <point x="444.344" y="785" type="line"/>
      <point x="304.344" y="785" type="line"/>
      <point x="177.168" y="645" type="line"/>
      <point x="307.168" y="645" type="line"/>
    </contour>
  </outline>
</glyph>
<glyph name="hookabovecomb" format="2">
  <advance width="600"/>
  <unicode hex="0309"/>
  <outline>
    <contour>
      <point x="279.534" y="641" type="line"/>
      <point x="340.637" y="701.871" type="line" smooth="yes"/>
      <point x="356.151" y="717.326"/>
      <point x="361.816" y="724.85"/>
      <point x="362.886" y="731.604" type="curve" smooth="yes"/>
      <point x="364.318" y="740.643"/>
      <point x="356.993" y="745"/>
      <point x="338.008" y="745" type="curve" smooth="yes"/>
      <point x="258.008" y="745" type="line"/>
      <point x="271.472" y="830" type="line"/>
      <point x="376.472" y="830" type="line" smooth="yes"/>
      <point x="439.936" y="830"/>
      <point x="476.096" y="796.058"/>
      <point x="467.876" y="744.17" type="curve" smooth="yes"/>
      <point x="464.304" y="721.614"/>
      <point x="452.984" y="699.705"/>
      <point x="435.886" y="682.533" type="curve" smooth="yes"/>
      <point x="394.534" y="641" type="line"/>
    </contour>
  </outline>
</glyph>
<glyph name="uni031B" format="2">
  <advance width="600"/>
  <unicode hex="031B"/>
  <outline>
    <contour>
      <point x="519.544" y="660" type="line"/>
      <point x="639.544" y="660" type="line"/>
      <point x="627.664" y="585" type="line" smooth="yes"/>
      <point x="614.834" y="504"/>
      <point x="548.28" y="450"/>
      <point x="461.28" y="450" type="curve" smooth="yes"/>
      <point x="421.28" y="450" type="line"/>
      <point x="437.12" y="550" type="line"/>
      <point x="467.12" y="550" type="line" smooth="yes"/>
      <point x="489.12" y="550"/>
      <point x="504.11" y="562.562"/>
      <point x="507.664" y="585" type="curve" smooth="yes"/>
    </contour>
  </outline>
</glyph>
<glyph name="dotbelowcomb" format="2">
  <advance width="600"/>
  <unicode hex="0323"/>
  <outline>
    <contour>
      <point x="222.328" y="-80" type="curve" smooth="yes"/>
      <point x="252.328" y="-80" type="line" smooth="yes"/>
      <point x="296.029" y="-80"/>
      <point x="322.668" y="-109.421"/>
      <point x="316.161" y="-150.5" type="curve" smooth="yes"/>
      <point x="309.726" y="-191.124"/>
      <point x="273.067" y="-220"/>
      <point x="229.152" y="-220" type="curve" smooth="yes"/>
      <point x="200.152" y="-220" type="line" smooth="yes"/>
      <point x="156.552" y="-220"/>
      <point x="129.794" y="-190.693"/>
      <point x="136.24" y="-150" type="curve" smooth="yes"/>
      <point x="142.686" y="-109.307"/>
      <point x="178.728" y="-80"/>
    </contour>
  </outline>
</glyph>
<glyph name="commaaccent" format="2">
  <advance width="600" height="985"/>
  <unicode hex="0326"/>
  <outline>
    <contour>
      <point x="365.952" y="-95" type="line"/>
      <point x="225.996" y="-240" type="line"/>
      <point x="90.984" y="-240" type="line"/>
      <point x="210.999" y="-95" type="line"/>
    </contour>
  </outline>
</glyph>
<glyph name="uni0336" format="2">
  <unicode hex="0336"/>
  <outline>
    <contour>
      <point x="-615.451" y="371" type="line"/>
      <point x="44.5488" y="371" type="line"/>
      <point x="26.9664" y="260" type="line"/>
      <point x="-633.034" y="260" type="line"/>
    </contour>
  </outline>
</glyph>
<glyph name="uni0374" format="2">
  <advance width="600"/>
  <unicode hex="0374"/>
  <outline>
    <contour>
      <point x="514.048" y="720" type="line"/>
      <point x="334.786" y="409" type="line"/>
      <point x="204.786" y="409" type="line"/>
      <point x="334.048" y="720" type="line"/>
    </contour>
  </outline>
</glyph>
<glyph name="Delta" format="2">
  <advance width="600" height="985"/>
  <unicode hex="0394"/>
  <outline>
    <contour>
      <point x="266.048" y="720" type="line"/>
      <point x="466.048" y="720" type="line"/>
      <point x="528.533" y="117" type="line"/>
      <point x="510" y="0" type="line"/>
      <point x="-10" y="0" type="line"/>
      <point x="8.5328" y="117" type="line"/>
    </contour>
    <contour>
      <point x="167.533" y="117" type="line"/>
      <point x="387.533" y="117" type="line"/>
      <point x="359.21" y="519" type="line" smooth="yes"/>
      <point x="356.546" y="559"/>
      <point x="360.208" y="620"/>
      <point x="360.208" y="620" type="curve"/>
      <point x="354.208" y="620" type="line"/>
      <point x="354.208" y="620"/>
      <point x="337.546" y="559"/>
      <point x="322.21" y="519" type="curve" smooth="yes"/>
    </contour>
  </outline>
</glyph>
<glyph name="Omega" format="2">
  <advance width="600" height="985"/>
  <unicode hex="03A9"/>
  <outline>
    <contour>
      <point x="365.632" y="730" type="curve" smooth="yes"/>
      <point x="517.632" y="730"/>
      <point x="603.534" y="641"/>
      <point x="582.15" y="506" type="curve" smooth="yes"/>
      <point x="550.312" y="305" type="line" smooth="yes"/>
      <point x="527.344" y="160"/>
      <point x="378.126" y="146"/>
      <point x="378.126" y="146" type="curve"/>
      <point x="377.176" y="140" type="line"/>
      <point x="523.176" y="140" type="line"/>
      <point x="501" y="0" type="line"/>
      <point x="290" y="0" type="line"/>
      <point x="326.432" y="230" type="line"/>
      <point x="363.432" y="230"/>
      <point x="392.867" y="258"/>
      <point x="399.52" y="300" type="curve" smooth="yes"/>
      <point x="432.15" y="506" type="line" smooth="yes"/>
      <point x="441.179" y="563"/>
      <point x="407.04" y="600"/>
      <point x="345.04" y="600" type="curve" smooth="yes"/>
      <point x="283.04" y="600"/>
      <point x="237.179" y="563"/>
      <point x="228.15" y="506" type="curve" smooth="yes"/>
      <point x="195.52" y="300" type="line" smooth="yes"/>
      <point x="188.867" y="258"/>
      <point x="209.432" y="230"/>
      <point x="246.432" y="230" type="curve"/>
      <point x="210" y="0" type="line"/>
      <point x="0" y="0" type="line"/>
      <point x="22.176" y="140" type="line"/>
      <point x="167.176" y="140" type="line"/>
      <point x="167.968" y="145" type="line"/>
      <point x="167.968" y="145"/>
      <point x="23.344" y="160"/>
      <point x="46.312" y="305" type="curve" smooth="yes"/>
      <point x="78.1504" y="506" type="line" smooth="yes"/>
      <point x="99.5344" y="641"/>
      <point x="213.632" y="730"/>
    </contour>
  </outline>
</glyph>
<glyph name="lambda" format="2">
  <advance width="600"/>
  <unicode hex="03BB"/>
  <outline>
    <contour>
      <point x="397.048" y="720" type="line"/>
      <point x="244.048" y="720" type="line"/>
      <point x="286.269" y="532" type="line"/>
      <point x="-5" y="0" type="line"/>
      <point x="162" y="0" type="line"/>
      <point x="298.669" y="282" type="line" smooth="yes"/>
      <point x="318.005" y="322"/>
      <point x="329.251" y="393"/>
      <point x="329.251" y="393" type="curve"/>
      <point x="338.251" y="393" type="line"/>
      <point x="338.251" y="393"/>
      <point x="335.005" y="322"/>
      <point x="342.669" y="282" type="curve" smooth="yes"/>
      <point x="394" y="0" type="line"/>
      <point x="545" y="0" type="line"/>
    </contour>
  </outline>
</glyph>
<glyph name="pi" format="2">
  <advance width="600" height="985"/>
  <unicode hex="03C0"/>
  <outline>
    <contour>
      <point x="46.12" y="550" type="line"/>
      <point x="612.12" y="550" type="line"/>
      <point x="589.944" y="410" type="line"/>
      <point x="514.944" y="410" type="line"/>
      <point x="481.68" y="200" type="line" smooth="yes"/>
      <point x="475.027" y="158"/>
      <point x="494.592" y="130"/>
      <point x="530.592" y="130" type="curve" smooth="yes"/>
      <point x="560.592" y="130" type="line"/>
      <point x="539.208" y="-5" type="line"/>
      <point x="499.208" y="-5" type="line" smooth="yes"/>
      <point x="379.208" y="-5"/>
      <point x="316.246" y="71"/>
      <point x="335.254" y="191" type="curve" smooth="yes"/>
      <point x="369.944" y="410" type="line"/>
      <point x="238.944" y="410" type="line"/>
      <point x="174" y="0" type="line"/>
      <point x="29" y="0" type="line"/>
      <point x="93.944" y="410" type="line"/>
      <point x="23.944" y="410" type="line"/>
    </contour>
  </outline>
</glyph>
<glyph name="uni0404" format="2">
  <advance width="600" height="985"/>
  <unicode hex="0404"/>
  <outline>
    <contour>
      <point x="362.632" y="730" type="curve" smooth="yes"/>
      <point x="505.632" y="730"/>
      <point x="591.693" y="642"/>
      <point x="577.784" y="510" type="curve"/>
      <point x="427.784" y="510" type="line"/>
      <point x="436.021" y="562"/>
      <point x="402.248" y="595"/>
      <point x="341.248" y="595" type="curve" smooth="yes"/>
      <point x="279.248" y="595"/>
      <point x="234.021" y="562"/>
      <point x="225.942" y="511" type="curve" smooth="yes"/>
      <point x="178.264" y="210" type="line" smooth="yes"/>
      <point x="170.027" y="158"/>
      <point x="204.8" y="125"/>
      <point x="266.8" y="125" type="curve" smooth="yes"/>
      <point x="328.8" y="125"/>
      <point x="371.869" y="157"/>
      <point x="380.264" y="210" type="curve"/>
      <point x="530.264" y="210" type="line"/>
      <point x="502.355" y="78"/>
      <point x="388.416" y="-10"/>
      <point x="245.416" y="-10" type="curve" smooth="yes"/>
      <point x="94.416" y="-10"/>
      <point x="7.8304" y="81"/>
      <point x="28.264" y="210" type="curve" smooth="yes"/>
      <point x="75.9424" y="511" type="line" smooth="yes"/>
      <point x="96.376" y="640"/>
      <point x="211.632" y="730"/>
    </contour>
    <contour>
      <point x="393.362" y="299" type="line"/>
      <point x="153.362" y="299" type="line"/>
      <point x="174.112" y="430" type="line"/>
      <point x="414.112" y="430" type="line"/>
    </contour>
  </outline>
</glyph>
<glyph name="uni0409" format="2">
  <advance width="600" height="985"/>
  <unicode hex="0409"/>
  <outline>
    <contour>
      <point x="141.048" y="720" type="line"/>
      <point x="459.048" y="720" type="line"/>
      <point x="415.488" y="445" type="line"/>
      <point x="420.488" y="445" type="line" smooth="yes"/>
      <point x="537.488" y="445"/>
      <point x="599.558" y="376"/>
      <point x="581.026" y="259" type="curve" smooth="yes"/>
      <point x="569.304" y="185" type="line" smooth="yes"/>
      <point x="550.93" y="69"/>
      <point x="467" y="0"/>
      <point x="350" y="0" type="curve" smooth="yes"/>
      <point x="225" y="0" type="line"/>
      <point x="321.624" y="610" type="line"/>
      <point x="241.624" y="610" type="line"/>
      <point x="172.472" y="205" type="line" smooth="yes"/>
      <point x="150.514" y="79"/>
      <point x="70.208" y="-5"/>
      <point x="-30.792" y="-5" type="curve" smooth="yes"/>
      <point x="-60.792" y="-5" type="line"/>
      <point x="-42.576" y="110" type="line"/>
      <point x="-22.576" y="110" type="line" smooth="yes"/>
      <point x="13.424" y="110"/>
      <point x="42.4432" y="148"/>
      <point x="52.472" y="205" type="curve" smooth="yes"/>
    </contour>
    <contour>
      <point x="398.064" y="335" type="line"/>
      <point x="362.424" y="110" type="line"/>
      <point x="367.424" y="110" type="line" smooth="yes"/>
      <point x="411.424" y="110"/>
      <point x="441.701" y="137"/>
      <point x="449.462" y="186" type="curve" smooth="yes"/>
      <point x="460.709" y="257" type="line" smooth="yes"/>
      <point x="468.629" y="307"/>
      <point x="447.064" y="335"/>
      <point x="403.064" y="335" type="curve" smooth="yes"/>
    </contour>
  </outline>
</glyph>
<glyph name="uni040B" format="2">
  <advance width="600" height="985"/>
  <unicode hex="040B"/>
  <outline>
    <contour>
      <point x="64.048" y="720" type="line"/>
      <point x="424.048" y="720" type="line"/>
      <point x="401.872" y="580" type="line"/>
      <point x="291.872" y="580" type="line"/>
      <point x="266.528" y="420" type="line"/>
      <point x="282.746" y="434" type="line" smooth="yes"/>
      <point x="329.082" y="474"/>
      <point x="377.408" y="495"/>
      <point x="423.408" y="495" type="curve" smooth="yes"/>
      <point x="531.408" y="495"/>
      <point x="590.211" y="418"/>
      <point x="569.936" y="290" type="curve" smooth="yes"/>
      <point x="525" y="0" type="line"/>
      <point x="375" y="0" type="line"/>
      <point x="419.144" y="285" type="line"/>
      <point x="427.539" y="338"/>
      <point x="409.816" y="365"/>
      <point x="367.816" y="365" type="curve" smooth="yes"/>
      <point x="339.816" y="365"/>
      <point x="312.915" y="353"/>
      <point x="285.114" y="329" type="curve" smooth="yes"/>
      <point x="246.886" y="296" type="line"/>
      <point x="200" y="0" type="line"/>
      <point x="50" y="0" type="line"/>
      <point x="141.872" y="580" type="line"/>
      <point x="41.872" y="580" type="line"/>
    </contour>
  </outline>
</glyph>
<glyph name="uni0411" format="2">
  <advance width="615" height="985"/>
  <unicode hex="0411"/>
  <outline>
    <contour>
      <point x="409.64" y="225" type="curve" smooth="yes"/>
      <point x="419.144" y="285"/>
      <point x="380.688" y="320"/>
      <point x="305.688" y="320" type="curve" smooth="yes"/>
      <point x="220.688" y="320" type="line"/>
      <point x="189.8" y="125" type="line"/>
      <point x="274.8" y="125" type="line" smooth="yes"/>
      <point x="349.8" y="125"/>
      <point x="400.136" y="165"/>
    </contour>
    <contour>
      <point x="607.048" y="720" type="line"/>
      <point x="584.872" y="580" type="line"/>
      <point x="261.872" y="580" type="line"/>
      <point x="240.488" y="445" type="line"/>
      <point x="364.488" y="445" type="line" smooth="yes"/>
      <point x="504.488" y="445"/>
      <point x="581.074" y="354"/>
      <point x="560.323" y="223" type="curve" smooth="yes"/>
      <point x="539.731" y="93"/>
      <point x="432" y="0"/>
      <point x="295" y="0" type="curve" smooth="yes"/>
      <point x="30" y="0" type="line"/>
      <point x="144.048" y="720" type="line"/>
    </contour>
  </outline>
</glyph>
<glyph name="uni0417" format="2">
  <advance width="600" height="985"/>
  <unicode hex="0417"/>
  <outline>
    <contour>
      <point x="79.16" y="525" type="curve"/>
      <point x="229.16" y="525" type="line"/>
      <point x="245.605" y="572"/>
      <point x="290.04" y="600"/>
      <point x="345.04" y="600" type="curve" smooth="yes"/>
      <point x="410.04" y="600"/>
      <point x="445.813" y="567"/>
      <point x="437.734" y="516" type="curve" smooth="yes"/>
      <point x="429.814" y="466"/>
      <point x="384.904" y="435"/>
      <point x="318.904" y="435" type="curve" smooth="yes"/>
      <point x="213.904" y="435" type="line"/>
      <point x="192.52" y="300" type="line"/>
      <point x="297.52" y="300" type="line" smooth="yes"/>
      <point x="366.52" y="300"/>
      <point x="402.134" y="266"/>
      <point x="393.264" y="210" type="curve" smooth="yes"/>
      <point x="384.869" y="157"/>
      <point x="334.008" y="120"/>
      <point x="269.008" y="120" type="curve" smooth="yes"/>
      <point x="206.008" y="120"/>
      <point x="168.443" y="148"/>
      <point x="170.888" y="195" type="curve"/>
      <point x="20.888" y="195" type="line"/>
      <point x="7.9296" y="69"/>
      <point x="96.416" y="-10"/>
      <point x="248.416" y="-10" type="curve" smooth="yes"/>
      <point x="409.416" y="-10"/>
      <point x="521.563" y="73"/>
      <point x="543.106" y="209" type="curve" smooth="yes"/>
      <point x="557.837" y="302"/>
      <point x="508.658" y="364"/>
      <point x="414.608" y="370" type="curve"/>
      <point x="416.35" y="381" type="line"/>
      <point x="505.618" y="389"/>
      <point x="567.805" y="447"/>
      <point x="581.902" y="536" type="curve" smooth="yes"/>
      <point x="600.594" y="654"/>
      <point x="516.632" y="730"/>
      <point x="365.632" y="730" type="curve" smooth="yes"/>
      <point x="219.632" y="730"/>
      <point x="111.435" y="653"/>
    </contour>
  </outline>
</glyph>
<glyph name="uni0418" format="2">
  <advance width="600" height="985"/>
  <unicode hex="0418"/>
  <outline>
    <contour>
      <point x="119.048" y="720" type="line"/>
      <point x="249.048" y="720" type="line"/>
      <point x="176.026" y="259" type="line" smooth="yes"/>
      <point x="164.938" y="189"/>
      <point x="134.84" y="100"/>
      <point x="135.84" y="100" type="curve"/>
      <point x="142.84" y="100" type="line"/>
      <point x="142.84" y="100"/>
      <point x="163.453" y="167"/>
      <point x="182.947" y="208" type="curve" smooth="yes"/>
      <point x="425.048" y="720" type="line"/>
      <point x="609.048" y="720" type="line"/>
      <point x="495" y="0" type="line"/>
      <point x="365" y="0" type="line"/>
      <point x="438.181" y="462" type="line" smooth="yes"/>
      <point x="450.061" y="537"/>
      <point x="476.208" y="620"/>
      <point x="476.208" y="620" type="curve"/>
      <point x="469.208" y="620" type="line"/>
      <point x="469.208" y="620"/>
      <point x="450.021" y="562"/>
      <point x="427.101" y="512" type="curve" smooth="yes"/>
      <point x="189" y="0" type="line"/>
      <point x="5" y="0" type="line"/>
    </contour>
  </outline>
</glyph>
<glyph name="uni0426" format="2">
  <advance width="600" height="985"/>
  <unicode hex="0426"/>
  <outline>
    <contour>
      <point x="15" y="0" type="line"/>
      <point x="390" y="0" type="line"/>
      <point x="368.616" y="-135" type="line"/>
      <point x="508.616" y="-135" type="line"/>
      <point x="552.176" y="140" type="line"/>
      <point x="477.176" y="140" type="line"/>
      <point x="569.048" y="720" type="line"/>
      <point x="419.048" y="720" type="line"/>
      <point x="327.176" y="140" type="line"/>
      <point x="187.176" y="140" type="line"/>
      <point x="279.048" y="720" type="line"/>
      <point x="129.048" y="720" type="line"/>
    </contour>
  </outline>
</glyph>
<glyph name="uni0428" format="2">
  <advance width="600" height="985"/>
  <unicode hex="0428"/>
  <outline>
    <contour>
      <point x="104.048" y="720" type="line"/>
      <point x="-10" y="0" type="line"/>
      <point x="510" y="0" type="line"/>
      <point x="624.048" y="720" type="line"/>
      <point x="504.048" y="720" type="line"/>
      <point x="405.84" y="100" type="line"/>
      <point x="325.84" y="100" type="line"/>
      <point x="424.048" y="720" type="line"/>
      <point x="304.048" y="720" type="line"/>
      <point x="205.84" y="100" type="line"/>
      <point x="125.84" y="100" type="line"/>
      <point x="224.048" y="720" type="line"/>
    </contour>
  </outline>
</glyph>
<glyph name="uni042A" format="2">
  <advance width="600" height="985"/>
  <unicode hex="042A"/>
  <outline>
    <contour>
      <point x="45.04" y="600" type="line"/>
      <point x="64.048" y="720" type="line"/>
      <point x="309.048" y="720" type="line"/>
      <point x="265.488" y="445" type="line"/>
      <point x="349.488" y="445" type="line" smooth="yes"/>
      <point x="499.488" y="445"/>
      <point x="586.39" y="356"/>
      <point x="565.323" y="223" type="curve" smooth="yes"/>
      <point x="544.256" y="90"/>
      <point x="429" y="0"/>
      <point x="280" y="0" type="curve" smooth="yes"/>
      <point x="45" y="0" type="line"/>
      <point x="140.04" y="600" type="line"/>
    </contour>
    <contour>
      <point x="414.165" y="222" type="curve" smooth="yes"/>
      <point x="423.194" y="279"/>
      <point x="386.896" y="315"/>
      <point x="319.896" y="315" type="curve" smooth="yes"/>
      <point x="244.896" y="315" type="line"/>
      <point x="215.592" y="130" type="line"/>
      <point x="290.592" y="130" type="line" smooth="yes"/>
      <point x="357.592" y="130"/>
      <point x="405.136" y="165"/>
    </contour>
  </outline>
</glyph>
<glyph name="uni042E" format="2">
  <advance width="600" height="985"/>
  <unicode hex="042E"/>
  <outline>
    <contour>
      <point x="-30" y="0" type="line"/>
      <point x="100" y="0" type="line"/>
      <point x="150.213" y="317" type="line"/>
      <point x="220.213" y="317" type="line"/>
      <point x="196.928" y="170" type="line" smooth="yes"/>
      <point x="179.821" y="62"/>
      <point x="241.416" y="-10"/>
      <point x="348.416" y="-10" type="curve" smooth="yes"/>
      <point x="455.416" y="-10"/>
      <point x="539.821" y="62"/>
      <point x="556.928" y="170" type="curve" smooth="yes"/>
      <point x="617.278" y="551" type="line" smooth="yes"/>
      <point x="634.069" y="657"/>
      <point x="570.632" y="730"/>
      <point x="465.632" y="730" type="curve" smooth="yes"/>
      <point x="360.632" y="730"/>
      <point x="274.069" y="657"/>
      <point x="257.278" y="551" type="curve" smooth="yes"/>
      <point x="238.429" y="432" type="line"/>
      <point x="168.429" y="432" type="line"/>
      <point x="214.048" y="720" type="line"/>
      <point x="84.048" y="720" type="line"/>
    </contour>
    <contour>
      <point x="448.208" y="620" type="curve" smooth="yes"/>
      <point x="477.208" y="620"/>
      <point x="494.406" y="596"/>
      <point x="488.862" y="561" type="curve" smooth="yes"/>
      <point x="425.344" y="160" type="line" smooth="yes"/>
      <point x="419.642" y="124"/>
      <point x="394.84" y="100"/>
      <point x="365.84" y="100" type="curve" smooth="yes"/>
      <point x="336.84" y="100"/>
      <point x="319.642" y="124"/>
      <point x="325.344" y="160" type="curve" smooth="yes"/>
      <point x="388.862" y="561" type="line" smooth="yes"/>
      <point x="394.406" y="596"/>
      <point x="419.208" y="620"/>
    </contour>
  </outline>
</glyph>
<glyph name="uni042F" format="2">
  <advance width="600" height="985"/>
  <unicode hex="042F"/>
  <outline>
    <contour>
      <point x="359.048" y="720" type="curve" smooth="yes"/>
      <point x="599.048" y="720" type="line"/>
      <point x="485" y="0" type="line"/>
      <point x="336" y="0" type="line"/>
      <point x="380.352" y="280" type="line"/>
      <point x="303.352" y="280" type="line"/>
      <point x="142" y="0" type="line"/>
      <point x="-20" y="0" type="line"/>
      <point x="162.312" y="305" type="line"/>
      <point x="89.856" y="340"/>
      <point x="54.7856" y="409"/>
      <point x="69.2" y="500" type="curve" smooth="yes"/>
      <point x="90.584" y="635"/>
      <point x="203.048" y="720"/>
    </contour>
    <contour>
      <point x="218.091" y="493" type="curve" smooth="yes"/>
      <point x="208.746" y="434"/>
      <point x="243.568" y="395"/>
      <point x="307.568" y="395" type="curve" smooth="yes"/>
      <point x="398.568" y="395" type="line"/>
      <point x="430.248" y="595" type="line"/>
      <point x="339.248" y="595" type="line" smooth="yes"/>
      <point x="276.248" y="595"/>
      <point x="227.912" y="555"/>
    </contour>
  </outline>
</glyph>
<glyph name="uni0431" format="2">
  <advance width="600" height="985"/>
  <unicode hex="0431"/>
  <outline>
    <contour>
      <point x="181.264" y="210" type="curve" smooth="yes"/>
      <point x="191.56" y="275" type="line" smooth="yes"/>
      <point x="200.272" y="330"/>
      <point x="245.816" y="365"/>
      <point x="307.816" y="365" type="curve" smooth="yes"/>
      <point x="369.816" y="365"/>
      <point x="404.272" y="330"/>
      <point x="395.56" y="275" type="curve" smooth="yes"/>
      <point x="385.264" y="210" type="line" smooth="yes"/>
      <point x="376.552" y="155"/>
      <point x="331.008" y="120"/>
      <point x="269.008" y="120" type="curve" smooth="yes"/>
      <point x="207.008" y="120"/>
      <point x="172.552" y="155"/>
    </contour>
    <contour>
      <point x="68.488" y="445" type="curve" smooth="yes"/>
      <point x="31.264" y="210" type="line" smooth="yes"/>
      <point x="10.3552" y="78"/>
      <point x="97.416" y="-10"/>
      <point x="248.416" y="-10" type="curve" smooth="yes"/>
      <point x="399.416" y="-10"/>
      <point x="514.355" y="78"/>
      <point x="535.264" y="210" type="curve" smooth="yes"/>
      <point x="545.56" y="275" type="line" smooth="yes"/>
      <point x="566.469" y="407"/>
      <point x="505.616" y="490"/>
      <point x="387.616" y="490" type="curve" smooth="yes"/>
      <point x="257.616" y="490"/>
      <point x="219.776" y="390"/>
      <point x="219.776" y="390" type="curve"/>
      <point x="209.776" y="390" type="line"/>
      <point x="218.488" y="445" type="line" smooth="yes"/>
      <point x="231.952" y="530"/>
      <point x="298.664" y="585"/>
      <point x="387.664" y="585" type="curve" smooth="yes"/>
      <point x="552.664" y="585" type="line"/>
      <point x="575.632" y="730" type="line"/>
      <point x="410.632" y="730" type="line" smooth="yes"/>
      <point x="226.632" y="730"/>
      <point x="96.5248" y="622"/>
    </contour>
  </outline>
</glyph>
<glyph name="uni0432" format="2">
  <advance width="600" height="985"/>
  <unicode hex="0432"/>
  <outline>
    <contour>
      <point x="225.171" y="443" type="line"/>
      <point x="333.171" y="443" type="line" smooth="yes"/>
      <point x="379.171" y="443"/>
      <point x="404.686" y="421"/>
      <point x="399.301" y="387" type="curve" smooth="yes"/>
      <point x="393.915" y="353"/>
      <point x="361.43" y="331"/>
      <point x="315.43" y="331" type="curve" smooth="yes"/>
      <point x="207.43" y="331" type="line"/>
    </contour>
    <contour>
      <point x="190.957" y="227" type="line"/>
      <point x="305.957" y="227" type="line" smooth="yes"/>
      <point x="355.957" y="227"/>
      <point x="382.155" y="203"/>
      <point x="376.136" y="165" type="curve" smooth="yes"/>
      <point x="370.434" y="129"/>
      <point x="336.949" y="107"/>
      <point x="286.949" y="107" type="curve" smooth="yes"/>
      <point x="251.949" y="107" type="line" smooth="yes"/>
      <point x="201.949" y="107"/>
      <point x="176.542" y="136"/>
      <point x="184.146" y="184" type="curve" smooth="yes"/>
    </contour>
    <contour>
      <point x="102.12" y="550" type="line"/>
      <point x="45.096" y="190" type="line" smooth="yes"/>
      <point x="27.0384" y="76"/>
      <point x="99" y="0"/>
      <point x="225" y="0" type="curve" smooth="yes"/>
      <point x="280" y="0" type="line" smooth="yes"/>
      <point x="416" y="0"/>
      <point x="509.504" y="60"/>
      <point x="524.869" y="157" type="curve" smooth="yes"/>
      <point x="537.541" y="237"/>
      <point x="492.51" y="281"/>
      <point x="397.827" y="283" type="curve"/>
      <point x="399.411" y="293" type="line"/>
      <point x="483.886" y="296"/>
      <point x="540.222" y="336"/>
      <point x="550.36" y="400" type="curve" smooth="yes"/>
      <point x="565.091" y="493"/>
      <point x="496.12" y="550"/>
      <point x="364.12" y="550" type="curve" smooth="yes"/>
    </contour>
  </outline>
</glyph>
<glyph name="uni0433" format="2">
  <advance width="600" height="985"/>
  <unicode hex="0433"/>
  <outline>
    <contour>
      <point x="280.416" y="-10" type="line" smooth="yes"/>
      <point x="408.416" y="-10"/>
      <point x="502.445" y="47"/>
      <point x="533.968" y="145" type="curve"/>
      <point x="383.968" y="145" type="line"/>
      <point x="370.216" y="115"/>
      <point x="338.523" y="98"/>
      <point x="297.523" y="98" type="curve" smooth="yes"/>
      <point x="247.523" y="98" type="line" smooth="yes"/>
      <point x="192.523" y="98"/>
      <point x="164.85" y="119"/>
      <point x="170.637" y="155.538" type="curve" smooth="yes"/>
      <point x="175.938" y="189"/>
      <point x="205.264" y="210"/>
      <point x="260.214" y="216" type="curve" smooth="yes"/>
      <point x="336.482" y="224" type="line" smooth="yes"/>
      <point x="468.699" y="238"/>
      <point x="548.045" y="297"/>
      <point x="563.251" y="393" type="curve" smooth="yes"/>
      <point x="580.2" y="500"/>
      <point x="511.704" y="560"/>
      <point x="370.704" y="560" type="curve" smooth="yes"/>
      <point x="320.704" y="560" type="line" smooth="yes"/>
      <point x="190.704" y="560"/>
      <point x="101.992" y="505"/>
      <point x="74.7856" y="409" type="curve"/>
      <point x="224.786" y="409" type="line"/>
      <point x="236.221" y="437"/>
      <point x="263.755" y="453"/>
      <point x="303.755" y="453" type="curve" smooth="yes"/>
      <point x="353.755" y="453" type="line" smooth="yes"/>
      <point x="401.755" y="453"/>
      <point x="425.062" y="436"/>
      <point x="419.757" y="402.504" type="curve" smooth="yes"/>
      <point x="414.766" y="371"/>
      <point x="388.44" y="350"/>
      <point x="342.648" y="345" type="curve" smooth="yes"/>
      <point x="261.222" y="336" type="line" smooth="yes"/>
      <point x="126.846" y="321"/>
      <point x="41.8672" y="258"/>
      <point x="26.6608" y="162" type="curve" smooth="yes"/>
      <point x="8.92" y="50"/>
      <point x="80.416" y="-10"/>
      <point x="230.416" y="-10" type="curve" smooth="yes"/>
    </contour>
  </outline>
</glyph>
<glyph name="uni0434" format="2">
  <advance width="600" height="985"/>
  <unicode hex="0434"/>
  <outline>
    <contour>
      <point x="181.264" y="210" type="line" smooth="yes"/>
      <point x="172.552" y="155"/>
      <point x="207.008" y="120"/>
      <point x="269.008" y="120" type="curve" smooth="yes"/>
      <point x="331.008" y="120"/>
      <point x="376.552" y="155"/>
      <point x="385.264" y="210" type="curve" smooth="yes"/>
      <point x="394.768" y="270" type="line" smooth="yes"/>
      <point x="403.48" y="325"/>
      <point x="369.024" y="360"/>
      <point x="307.024" y="360" type="curve" smooth="yes"/>
      <point x="245.024" y="360"/>
      <point x="199.48" y="325"/>
      <point x="190.768" y="270" type="curve" smooth="yes"/>
    </contour>
    <contour>
      <point x="154.048" y="720" type="line"/>
      <point x="319.048" y="720" type="line" smooth="yes"/>
      <point x="505.048" y="720"/>
      <point x="599.416" y="615"/>
      <point x="571.696" y="440" type="curve" smooth="yes"/>
      <point x="535.264" y="210" type="line" smooth="yes"/>
      <point x="514.355" y="78"/>
      <point x="399.416" y="-10"/>
      <point x="248.416" y="-10" type="curve" smooth="yes"/>
      <point x="97.416" y="-10"/>
      <point x="10.3552" y="78"/>
      <point x="31.264" y="210" type="curve" smooth="yes"/>
      <point x="40.768" y="270" type="line" smooth="yes"/>
      <point x="61.6768" y="402"/>
      <point x="148.824" y="485"/>
      <point x="266.824" y="485" type="curve" smooth="yes"/>
      <point x="396.824" y="485"/>
      <point x="402.984" y="385"/>
      <point x="402.984" y="385" type="curve"/>
      <point x="412.984" y="385" type="line"/>
      <point x="421.696" y="440" type="line" smooth="yes"/>
      <point x="434.843" y="523"/>
      <point x="387.08" y="575"/>
      <point x="296.08" y="575" type="curve" smooth="yes"/>
      <point x="131.08" y="575" type="line"/>
    </contour>
  </outline>
</glyph>
<glyph name="uni0436" format="2">
  <advance width="600" height="985"/>
  <unicode hex="0436"/>
  <outline>
    <contour>
      <point x="-47" y="0" type="line"/>
      <point x="102.669" y="282" type="line"/>
      <point x="48.12" y="550" type="line"/>
      <point x="175.12" y="550" type="line"/>
      <point x="217.312" y="305" type="line"/>
      <point x="247.312" y="305" type="line"/>
      <point x="286.12" y="550" type="line"/>
      <point x="388.12" y="550" type="line"/>
      <point x="349.312" y="305" type="line"/>
      <point x="375.312" y="305" type="line"/>
      <point x="504.12" y="550" type="line"/>
      <point x="626.12" y="550" type="line"/>
      <point x="487.144" y="285" type="line"/>
      <point x="547" y="0" type="line"/>
      <point x="424" y="0" type="line"/>
      <point x="372.392" y="255" type="line"/>
      <point x="341.392" y="255" type="line"/>
      <point x="301" y="0" type="line"/>
      <point x="199" y="0" type="line"/>
      <point x="239.392" y="255" type="line"/>
      <point x="211.392" y="255" type="line"/>
      <point x="86" y="0" type="line"/>
    </contour>
  </outline>
</glyph>
<glyph name="uni0437" format="2">
  <advance width="600" height="985"/>
  <unicode hex="0437"/>
  <outline>
    <contour>
      <point x="58.776" y="390" type="curve"/>
      <point x="203.776" y="390" type="line"/>
      <point x="218.003" y="423"/>
      <point x="250.696" y="440"/>
      <point x="291.696" y="440" type="curve" smooth="yes"/>
      <point x="342.696" y="440" type="line" smooth="yes"/>
      <point x="383.696" y="440"/>
      <point x="405.003" y="423"/>
      <point x="399.618" y="389" type="curve" smooth="yes"/>
      <point x="394.549" y="357"/>
      <point x="367.539" y="338"/>
      <point x="326.539" y="338" type="curve" smooth="yes"/>
      <point x="196.539" y="338" type="line"/>
      <point x="178.482" y="224" type="line"/>
      <point x="314.482" y="224" type="line" smooth="yes"/>
      <point x="358.482" y="224"/>
      <point x="382.155" y="203"/>
      <point x="376.611" y="168" type="curve" smooth="yes"/>
      <point x="370.909" y="132"/>
      <point x="340.424" y="110"/>
      <point x="296.424" y="110" type="curve" smooth="yes"/>
      <point x="234.424" y="110" type="line" smooth="yes"/>
      <point x="192.424" y="110"/>
      <point x="164.275" y="128"/>
      <point x="160.344" y="160" type="curve"/>
      <point x="15.344" y="160" type="line"/>
      <point x="15.712" y="55"/>
      <point x="90.8912" y="-7"/>
      <point x="215.891" y="-7" type="curve" smooth="yes"/>
      <point x="277.891" y="-7" type="line" smooth="yes"/>
      <point x="412.891" y="-7"/>
      <point x="509.029" y="57"/>
      <point x="524.869" y="157" type="curve" smooth="yes"/>
      <point x="537.066" y="234"/>
      <point x="494.718" y="276"/>
      <point x="396.827" y="283" type="curve"/>
      <point x="397.461" y="287" type="line"/>
      <point x="481.094" y="291"/>
      <point x="540.222" y="336"/>
      <point x="550.835" y="403" type="curve" smooth="yes"/>
      <point x="566.042" y="499"/>
      <point x="491.229" y="557"/>
      <point x="361.229" y="557" type="curve" smooth="yes"/>
      <point x="310.229" y="557" type="line" smooth="yes"/>
      <point x="185.229" y="557"/>
      <point x="92.408" y="495"/>
    </contour>
  </outline>
</glyph>
<glyph name="uni043A" format="2">
  <advance width="600" height="985"/>
  <unicode hex="043A"/>
  <outline>
    <contour>
      <point x="257.12" y="550" type="line"/>
      <point x="224.173" y="342" type="line"/>
      <point x="293.173" y="342" type="line"/>
      <point x="446.12" y="550" type="line"/>
      <point x="613.12" y="550" type="line"/>
      <point x="418.402" y="274" type="line"/>
      <point x="529" y="0" type="line"/>
      <point x="363" y="0" type="line"/>
      <point x="283.214" y="216" type="line"/>
      <point x="204.214" y="216" type="line"/>
      <point x="170" y="0" type="line"/>
      <point x="20" y="0" type="line"/>
      <point x="107.12" y="550" type="line"/>
    </contour>
  </outline>
</glyph>
<glyph name="uni043B" format="2">
  <advance width="600" height="985"/>
  <unicode hex="043B"/>
  <outline>
    <contour>
      <point x="89.264" y="210" type="line" smooth="yes"/>
      <point x="80.6608" y="162"/>
      <point x="50.592" y="130"/>
      <point x="15.592" y="130" type="curve" smooth="yes"/>
      <point x="-14.408" y="130" type="line"/>
      <point x="-35.792" y="-5" type="line"/>
      <point x="4.208" y="-5" type="line" smooth="yes"/>
      <point x="122.208" y="-5"/>
      <point x="215.197" y="77"/>
      <point x="236.68" y="200" type="curve" smooth="yes"/>
      <point x="273.944" y="410" type="line"/>
      <point x="404.944" y="410" type="line"/>
      <point x="340" y="0" type="line"/>
      <point x="490" y="0" type="line"/>
      <point x="577.12" y="550" type="line"/>
      <point x="149.12" y="550" type="line"/>
    </contour>
  </outline>
</glyph>
<glyph name="uni043C" format="2">
  <advance width="600" height="985"/>
  <unicode hex="043C"/>
  <outline>
    <contour>
      <point x="77.12" y="550" type="line"/>
      <point x="252.12" y="550" type="line"/>
      <point x="280.965" y="347" type="line" smooth="yes"/>
      <point x="286.629" y="307"/>
      <point x="283.224" y="235"/>
      <point x="283.224" y="235" type="curve"/>
      <point x="293.224" y="235" type="line"/>
      <point x="293.224" y="235"/>
      <point x="307.629" y="307"/>
      <point x="324.965" y="347" type="curve" smooth="yes"/>
      <point x="411.12" y="550" type="line"/>
      <point x="597.12" y="550" type="line"/>
      <point x="510" y="0" type="line"/>
      <point x="374" y="0" type="line"/>
      <point x="416.768" y="270" type="line" smooth="yes"/>
      <point x="428.331" y="343"/>
      <point x="468.28" y="450"/>
      <point x="468.28" y="450" type="curve"/>
      <point x="452.28" y="450" type="line"/>
      <point x="452.28" y="450"/>
      <point x="405.173" y="342"/>
      <point x="389.837" y="302" type="curve" smooth="yes"/>
      <point x="336.136" y="165" type="line"/>
      <point x="218.136" y="165" type="line"/>
      <point x="202.837" y="302" type="line" smooth="yes"/>
      <point x="198.014" y="341"/>
      <point x="190.28" y="450"/>
      <point x="190.28" y="450" type="curve"/>
      <point x="174.28" y="450" type="line"/>
      <point x="174.28" y="450"/>
      <point x="180.331" y="343"/>
      <point x="168.768" y="270" type="curve" smooth="yes"/>
      <point x="126" y="0" type="line"/>
      <point x="-10" y="0" type="line"/>
    </contour>
  </outline>
</glyph>
<glyph name="uni0446" format="2">
  <advance width="600" height="985"/>
  <unicode hex="0446"/>
  <outline>
    <contour>
      <point x="194.68" y="200" type="line" smooth="yes"/>
      <point x="188.661" y="162"/>
      <point x="207.176" y="140"/>
      <point x="245.176" y="140" type="curve" smooth="yes"/>
      <point x="327.176" y="140" type="line"/>
      <point x="392.12" y="550" type="line"/>
      <point x="540.12" y="550" type="line"/>
      <point x="475.176" y="140" type="line"/>
      <point x="550.176" y="140" type="line"/>
      <point x="506.616" y="-135" type="line"/>
      <point x="368.616" y="-135" type="line"/>
      <point x="390" y="0" type="line"/>
      <point x="225" y="0" type="line" smooth="yes"/>
      <point x="95" y="0"/>
      <point x="27.0384" y="76"/>
      <point x="46.68" y="200" type="curve" smooth="yes"/>
      <point x="102.12" y="550" type="line"/>
      <point x="250.12" y="550" type="line"/>
    </contour>
  </outline>
</glyph>
<glyph name="uni0447" format="2">
  <advance width="600" height="985"/>
  <unicode hex="0447"/>
  <outline>
    <contour>
      <point x="287.52" y="300" type="line" smooth="yes"/>
      <point x="225.52" y="300"/>
      <point x="192.272" y="330"/>
      <point x="200.192" y="380" type="curve" smooth="yes"/>
      <point x="227.12" y="550" type="line"/>
      <point x="77.12" y="550" type="line"/>
      <point x="48.608" y="370" type="line" smooth="yes"/>
      <point x="28.3328" y="242"/>
      <point x="105.136" y="165"/>
      <point x="251.136" y="165" type="curve" smooth="yes"/>
      <point x="356.136" y="165" type="line"/>
      <point x="330" y="0" type="line"/>
      <point x="480" y="0" type="line"/>
      <point x="567.12" y="550" type="line"/>
      <point x="417.12" y="550" type="line"/>
      <point x="377.52" y="300" type="line"/>
    </contour>
  </outline>
</glyph>
<glyph name="uni0448" format="2">
  <advance width="600" height="985"/>
  <unicode hex="0448"/>
  <outline>
    <contour>
      <point x="172" y="0" type="line" smooth="yes"/>
      <point x="57" y="0"/>
      <point x="-0.6544" y="59"/>
      <point x="15.344" y="160" type="curve" smooth="yes"/>
      <point x="77.12" y="550" type="line"/>
      <point x="200.12" y="550" type="line"/>
      <point x="138.344" y="160" type="line" smooth="yes"/>
      <point x="132.325" y="122"/>
      <point x="149.84" y="100"/>
      <point x="187.84" y="100" type="curve" smooth="yes"/>
      <point x="213.84" y="100" type="line"/>
      <point x="285.12" y="550" type="line"/>
      <point x="389.12" y="550" type="line"/>
      <point x="317.84" y="100" type="line"/>
      <point x="402.84" y="100" type="line"/>
      <point x="474.12" y="550" type="line"/>
      <point x="597.12" y="550" type="line"/>
      <point x="510" y="0" type="line"/>
    </contour>
  </outline>
</glyph>
<glyph name="uni044C" format="2">
  <advance width="600" height="985"/>
  <unicode hex="044C"/>
  <outline>
    <contour>
      <point x="201.838" y="201" type="line" smooth="yes"/>
      <point x="194.869" y="157"/>
      <point x="224.275" y="128"/>
      <point x="275.275" y="128" type="curve" smooth="yes"/>
      <point x="315.275" y="128" type="line" smooth="yes"/>
      <point x="365.275" y="128"/>
      <point x="398.235" y="153"/>
      <point x="404.492" y="192.5" type="curve" smooth="yes"/>
      <point x="410.749" y="232"/>
      <point x="385.709" y="257"/>
      <point x="335.709" y="257" type="curve" smooth="yes"/>
      <point x="210.709" y="257" type="line"/>
    </contour>
    <contour>
      <point x="53.68" y="200" type="curve" smooth="yes"/>
      <point x="109.12" y="550" type="line"/>
      <point x="257.12" y="550" type="line"/>
      <point x="230.984" y="385" type="line"/>
      <point x="364.984" y="385" type="line" smooth="yes"/>
      <point x="501.984" y="385"/>
      <point x="572.579" y="313"/>
      <point x="553.254" y="191" type="curve" smooth="yes"/>
      <point x="534.563" y="73"/>
      <point x="440" y="0"/>
      <point x="305" y="0" type="curve" smooth="yes"/>
      <point x="245" y="0" type="line" smooth="yes"/>
      <point x="112" y="0"/>
      <point x="34.8304" y="81"/>
    </contour>
  </outline>
</glyph>
<glyph name="uni044F" format="2">
  <advance width="600" height="985"/>
  <unicode hex="044F"/>
  <outline>
    <contour>
      <point x="572.12" y="550" type="line" name="at01"/>
      <point x="312.12" y="550" type="line" smooth="yes"/>
      <point x="167.12" y="550"/>
      <point x="70.7152" y="478"/>
      <point x="51.232" y="355" type="curve" smooth="yes" name="sh01"/>
      <point x="38.4016" y="274"/>
      <point x="70.2144" y="216"/>
      <point x="139.779" y="188" type="curve" name="iv01"/>
      <point x="-15" y="0" type="line" name="ab01"/>
      <point x="157" y="0" type="line"/>
      <point x="284.928" y="170" type="line" name="dv01"/>
      <point x="361.928" y="170" type="line"/>
      <point x="335" y="0" type="line" name="ab02"/>
      <point x="485" y="0" type="line" name="sh02"/>
    </contour>
    <contour>
      <point x="201.549" y="357" type="curve" smooth="yes" name="sh03"/>
      <point x="208.835" y="403"/>
      <point x="248.112" y="430"/>
      <point x="303.112" y="430" type="curve" smooth="yes" name="sv01"/>
      <point x="403.112" y="430" type="line" name="sh04"/>
      <point x="380.144" y="285" type="line"/>
      <point x="280.144" y="285" type="line" smooth="yes" name="dv02"/>
      <point x="225.144" y="285"/>
      <point x="194.262" y="311"/>
    </contour>
  </outline>
</glyph>
<glyph name="uni0452" format="2">
  <advance width="600" height="985"/>
  <unicode hex="0452"/>
  <outline>
    <contour>
      <point x="138.216" y="730" type="line"/>
      <point x="123.168" y="635" type="line"/>
      <point x="62.168" y="635" type="line"/>
      <point x="48.704" y="550" type="line"/>
      <point x="109.704" y="550" type="line"/>
      <point x="22.584" y="0" type="line"/>
      <point x="172.584" y="0" type="line"/>
      <point x="219.312" y="295" type="line" smooth="yes"/>
      <point x="228.024" y="350"/>
      <point x="267.568" y="385"/>
      <point x="320.568" y="385" type="curve" smooth="yes"/>
      <point x="373.568" y="385"/>
      <point x="402.024" y="350"/>
      <point x="393.312" y="295" type="curve" smooth="yes"/>
      <point x="354.662" y="51" type="line" smooth="yes"/>
      <point x="347.059" y="3"/>
      <point x="313.624" y="-25"/>
      <point x="262.624" y="-25" type="curve" smooth="yes"/>
      <point x="202.624" y="-25" type="line"/>
      <point x="179.656" y="-170" type="line"/>
      <point x="229.656" y="-170" type="line" smooth="yes"/>
      <point x="370.656" y="-170"/>
      <point x="482.962" y="-86"/>
      <point x="502.128" y="35" type="curve" smooth="yes"/>
      <point x="545.688" y="310" type="line" smooth="yes"/>
      <point x="565.646" y="436"/>
      <point x="508.16" y="515"/>
      <point x="397.16" y="515" type="curve" smooth="yes"/>
      <point x="317.16" y="515"/>
      <point x="258.982" y="476"/>
      <point x="239.528" y="410" type="curve"/>
      <point x="228.528" y="410" type="line"/>
      <point x="227.528" y="410"/>
      <point x="246.082" y="464"/>
      <point x="252.576" y="505" type="curve" smooth="yes"/>
      <point x="259.704" y="550" type="line"/>
      <point x="358.704" y="550" type="line"/>
      <point x="372.168" y="635" type="line"/>
      <point x="273.168" y="635" type="line"/>
      <point x="288.216" y="730" type="line"/>
    </contour>
  </outline>
</glyph>
<glyph name="uni0459" format="2">
  <advance width="600" height="985"/>
  <unicode hex="0459"/>
  <outline>
    <contour>
      <point x="386.818" y="264" type="line"/>
      <point x="426.818" y="264" type="line" smooth="yes"/>
      <point x="450.818" y="264"/>
      <point x="464.283" y="248"/>
      <point x="460.482" y="224" type="curve" smooth="yes"/>
      <point x="447.334" y="141" type="line" smooth="yes"/>
      <point x="443.374" y="116"/>
      <point x="424.84" y="100"/>
      <point x="400.84" y="100" type="curve" smooth="yes"/>
      <point x="376.84" y="100"/>
      <point x="363.374" y="116"/>
      <point x="367.334" y="141" type="curve" smooth="yes"/>
    </contour>
    <contour>
      <point x="116.12" y="550" type="line"/>
      <point x="56.472" y="205" type="line" smooth="yes"/>
      <point x="46.2848" y="147"/>
      <point x="16.424" y="110"/>
      <point x="-18.576" y="110" type="curve" smooth="yes"/>
      <point x="-38.576" y="110" type="line"/>
      <point x="-56.792" y="-5" type="line"/>
      <point x="-26.792" y="-5" type="line" smooth="yes"/>
      <point x="73.208" y="-5"/>
      <point x="154.355" y="78"/>
      <point x="176.472" y="205" type="curve" smooth="yes"/>
      <point x="216.696" y="440" type="line"/>
      <point x="294.696" y="440" type="line"/>
      <point x="247.334" y="141" type="line" smooth="yes"/>
      <point x="232.92" y="50"/>
      <point x="287.416" y="-10"/>
      <point x="382.416" y="-10" type="curve" smooth="yes"/>
      <point x="479.416" y="-10"/>
      <point x="552.92" y="50"/>
      <point x="567.176" y="140" type="curve" smooth="yes"/>
      <point x="580.323" y="223" type="line" smooth="yes"/>
      <point x="595.054" y="316"/>
      <point x="541.4" y="375"/>
      <point x="444.4" y="375" type="curve" smooth="yes"/>
      <point x="404.4" y="375" type="line"/>
      <point x="432.12" y="550" type="line"/>
    </contour>
  </outline>
</glyph>
<glyph name="uni045F" format="2">
  <advance width="600" height="985"/>
  <unicode hex="045F"/>
  <outline>
    <contour>
      <point x="15" y="0" type="line"/>
      <point x="175" y="0" type="line"/>
      <point x="155.2" y="-125" type="line"/>
      <point x="305.2" y="-125" type="line"/>
      <point x="325" y="0" type="line"/>
      <point x="485" y="0" type="line"/>
      <point x="572.12" y="550" type="line"/>
      <point x="422.12" y="550" type="line"/>
      <point x="357.176" y="140" type="line"/>
      <point x="187.176" y="140" type="line"/>
      <point x="252.12" y="550" type="line"/>
      <point x="102.12" y="550" type="line"/>
    </contour>
  </outline>
</glyph>
<glyph name="uni0490" format="2">
  <advance width="600" height="985"/>
  <unicode hex="0490"/>
  <outline>
    <contour>
      <point x="459.048" y="720" type="line"/>
      <point x="475.68" y="825" type="line"/>
      <point x="620.68" y="825" type="line"/>
      <point x="581.872" y="580" type="line"/>
      <point x="286.872" y="580" type="line"/>
      <point x="195" y="0" type="line"/>
      <point x="45" y="0" type="line"/>
      <point x="159.048" y="720" type="line"/>
    </contour>
  </outline>
</glyph>
<glyph name="uni0491" format="2">
  <advance width="600" height="985"/>
  <unicode hex="0491"/>
  <outline>
    <contour>
      <point x="432.12" y="550" type="line"/>
      <point x="448.752" y="655" type="line"/>
      <point x="593.752" y="655" type="line"/>
      <point x="554.944" y="410" type="line"/>
      <point x="259.944" y="410" type="line"/>
      <point x="195" y="0" type="line"/>
      <point x="45" y="0" type="line"/>
      <point x="132.12" y="550" type="line"/>
    </contour>
  </outline>
</glyph>
<glyph name="endash" format="2">
  <advance width="600" height="985"/>
  <unicode hex="2013"/>
  <outline>
    <contour>
      <point x="66.1424" y="400" type="line"/>
      <point x="556.142" y="400" type="line"/>
      <point x="533.966" y="260" type="line"/>
      <point x="43.9664" y="260" type="line"/>
    </contour>
  </outline>
</glyph>
<glyph name="emdash" format="2">
  <advance width="600" height="985"/>
  <unicode hex="2014"/>
  <outline>
    <contour>
      <point x="20.984" y="399" type="line"/>
      <point x="600.984" y="399" type="line"/>
      <point x="578.808" y="259" type="line"/>
      <point x="-1.192" y="259" type="line"/>
    </contour>
  </outline>
</glyph>
<glyph name="quoteleft" format="2">
  <advance width="600" height="985"/>
  <unicode hex="2018"/>
  <outline>
    <contour>
      <point x="205" y="464" type="line"/>
      <point x="390" y="775" type="line"/>
      <point x="520" y="775" type="line"/>
      <point x="385" y="464" type="line"/>
    </contour>
  </outline>
</glyph>
<glyph name="quotedblleft" format="2">
  <advance width="600" height="985"/>
  <unicode hex="201C"/>
  <outline>
    <contour>
      <point x="50" y="464" type="line"/>
      <point x="235" y="775" type="line"/>
      <point x="365" y="775" type="line"/>
      <point x="230" y="464" type="line"/>
    </contour>
    <contour>
      <point x="325" y="464" type="line"/>
      <point x="510" y="775" type="line"/>
      <point x="640" y="775" type="line"/>
      <point x="505" y="464" type="line"/>
    </contour>
  </outline>
</glyph>
<glyph name="dagger" format="2">
  <advance width="600" height="985"/>
  <unicode hex="2020"/>
  <outline>
    <contour>
      <point x="401.032" y="480" type="line"/>
      <point x="307.576" y="-110" type="line"/>
      <point x="157.576" y="-110" type="line"/>
      <point x="251.032" y="480" type="line"/>
      <point x="96.032" y="480" type="line"/>
      <point x="118.208" y="620" type="line"/>
      <point x="273.208" y="620" type="line"/>
      <point x="306.472" y="830" type="line"/>
      <point x="456.472" y="830" type="line"/>
      <point x="423.208" y="620" type="line"/>
      <point x="578.208" y="620" type="line"/>
      <point x="556.032" y="480" type="line"/>
    </contour>
  </outline>
</glyph>
<glyph name="daggerdbl" format="2">
  <advance width="600" height="985"/>
  <unicode hex="2021"/>
  <outline>
    <contour>
      <point x="157.576" y="-110" type="line"/>
      <point x="307.576" y="-110" type="line"/>
      <point x="342.424" y="110" type="line"/>
      <point x="497.424" y="110" type="line"/>
      <point x="519.6" y="250" type="line"/>
      <point x="364.6" y="250" type="line"/>
      <point x="401.032" y="480" type="line"/>
      <point x="556.032" y="480" type="line"/>
      <point x="578.208" y="620" type="line"/>
      <point x="423.208" y="620" type="line"/>
      <point x="456.472" y="830" type="line"/>
      <point x="306.472" y="830" type="line"/>
      <point x="273.208" y="620" type="line"/>
      <point x="118.208" y="620" type="line"/>
      <point x="96.032" y="480" type="line"/>
      <point x="251.032" y="480" type="line"/>
      <point x="214.6" y="250" type="line"/>
      <point x="59.6" y="250" type="line"/>
      <point x="37.424" y="110" type="line"/>
      <point x="192.424" y="110" type="line"/>
    </contour>
  </outline>
</glyph>
<glyph name="ellipsis" format="2">
  <advance width="600" height="985"/>
  <unicode hex="2026"/>
  <outline>
    <contour>
      <point x="45.216" y="115" type="line" smooth="yes"/>
      <point x="51.3936" y="154"/>
      <point x="81.512" y="180"/>
      <point x="119.512" y="180" type="curve" smooth="yes"/>
      <point x="159.512" y="180"/>
      <point x="181.394" y="154"/>
      <point x="175.216" y="115" type="curve" smooth="yes"/>
      <point x="165.712" y="55" type="line" smooth="yes"/>
      <point x="159.534" y="16"/>
      <point x="129.416" y="-10"/>
      <point x="89.416" y="-10" type="curve" smooth="yes"/>
      <point x="51.416" y="-10"/>
      <point x="29.5344" y="16"/>
      <point x="35.712" y="55" type="curve" smooth="yes"/>
    </contour>
    <contour>
      <point x="235.216" y="115" type="line" smooth="yes"/>
      <point x="241.394" y="154"/>
      <point x="271.512" y="180"/>
      <point x="309.512" y="180" type="curve" smooth="yes"/>
      <point x="349.512" y="180"/>
      <point x="371.394" y="154"/>
      <point x="365.216" y="115" type="curve" smooth="yes"/>
      <point x="355.712" y="55" type="line" smooth="yes"/>
      <point x="349.534" y="16"/>
      <point x="319.416" y="-10"/>
      <point x="279.416" y="-10" type="curve" smooth="yes"/>
      <point x="241.416" y="-10"/>
      <point x="219.534" y="16"/>
      <point x="225.712" y="55" type="curve" smooth="yes"/>
    </contour>
    <contour>
      <point x="425.216" y="115" type="line" smooth="yes"/>
      <point x="431.394" y="154"/>
      <point x="461.512" y="180"/>
      <point x="499.512" y="180" type="curve" smooth="yes"/>
      <point x="539.512" y="180"/>
      <point x="561.394" y="154"/>
      <point x="555.216" y="115" type="curve" smooth="yes"/>
      <point x="545.712" y="55" type="line" smooth="yes"/>
      <point x="539.534" y="16"/>
      <point x="509.416" y="-10"/>
      <point x="469.416" y="-10" type="curve" smooth="yes"/>
      <point x="431.416" y="-10"/>
      <point x="409.534" y="16"/>
      <point x="415.712" y="55" type="curve" smooth="yes"/>
    </contour>
  </outline>
</glyph>
<glyph name="dong" format="2">
  <advance width="600"/>
  <unicode hex="20AB"/>
  <outline>
    <contour>
      <point x="456.048" y="720" type="line"/>
      <point x="601.048" y="720" type="line"/>
      <point x="591.544" y="660" type="line"/>
      <point x="651.544" y="660" type="line"/>
      <point x="637.288" y="570" type="line"/>
      <point x="577.288" y="570" type="line"/>
      <point x="496.504" y="60" type="line"/>
      <point x="356.504" y="60" type="line"/>
      <point x="371.71" y="156" type="line"/>
      <point x="361.71" y="156" type="line"/>
      <point x="341.699" y="91.4281"/>
      <point x="277.684" y="50"/>
      <point x="197.92" y="50" type="curve" smooth="yes"/>
      <point x="81.3177" y="50"/>
      <point x="20.4939" y="135.694"/>
      <point x="41.768" y="270" type="curve" smooth="yes"/>
      <point x="47.312" y="305" type="line" smooth="yes"/>
      <point x="68.029" y="435.789"/>
      <point x="156.178" y="520"/>
      <point x="272.368" y="520" type="curve" smooth="yes"/>
      <point x="351.868" y="520"/>
      <point x="403.027" y="478.796"/>
      <point x="402.736" y="415" type="curve"/>
      <point x="412.736" y="415" type="line"/>
      <point x="412.736" y="415"/>
      <point x="417.24" y="475"/>
      <point x="422.784" y="510" type="curve" smooth="yes"/>
      <point x="432.288" y="570" type="line"/>
      <point x="307.288" y="570" type="line"/>
      <point x="321.544" y="660" type="line"/>
      <point x="446.544" y="660" type="line"/>
    </contour>
    <contour>
      <point x="305.36" y="400" type="curve" smooth="yes"/>
      <point x="243.42" y="400"/>
      <point x="201.823" y="365.044"/>
      <point x="192.312" y="305" type="curve" smooth="yes"/>
      <point x="186.768" y="270" type="line" smooth="yes"/>
      <point x="176.775" y="206.914"/>
      <point x="207.104" y="170"/>
      <point x="268.928" y="170" type="curve" smooth="yes"/>
      <point x="332.026" y="170"/>
      <point x="374.773" y="206.902"/>
      <point x="384.768" y="270" type="curve" smooth="yes"/>
      <point x="390.312" y="305" type="line" smooth="yes"/>
      <point x="399.735" y="364.49"/>
      <point x="367.981" y="400"/>
    </contour>
    <contour>
      <point x="10" y="0" type="line"/>
      <point x="490" y="0" type="line"/>
      <point x="474.16" y="-100" type="line"/>
      <point x="-5.84" y="-100" type="line"/>
    </contour>
  </outline>
</glyph>
<glyph name="uni20AE" format="2">
  <advance width="600"/>
  <unicode hex="20AE"/>
  <outline>
    <contour>
      <point x="76.872" y="580" type="line"/>
      <point x="99.048" y="720" type="line"/>
      <point x="629.048" y="720" type="line"/>
      <point x="606.872" y="580" type="line"/>
      <point x="411.872" y="580" type="line"/>
      <point x="393.339" y="463" type="line"/>
      <point x="559.992" y="505" type="line"/>
      <point x="546.528" y="420" type="line"/>
      <point x="379.875" y="378" type="line"/>
      <point x="365.619" y="288" type="line"/>
      <point x="532.272" y="330" type="line"/>
      <point x="518.808" y="245" type="line"/>
      <point x="352.155" y="203" type="line"/>
      <point x="320" y="0" type="line"/>
      <point x="180" y="0" type="line"/>
      <point x="206.453" y="167" type="line"/>
      <point x="39.8" y="125" type="line"/>
      <point x="53.264" y="210" type="line"/>
      <point x="219.917" y="252" type="line"/>
      <point x="234.173" y="342" type="line"/>
      <point x="67.52" y="300" type="line"/>
      <point x="80.984" y="385" type="line"/>
      <point x="247.637" y="427" type="line"/>
      <point x="271.872" y="580" type="line"/>
    </contour>
  </outline>
</glyph>
<glyph name="uni20BD" format="2">
  <advance width="600"/>
  <unicode hex="20BD"/>
  <outline>
    <contour>
      <point x="154.048" y="720" type="line"/>
      <point x="379.048" y="720" type="line" smooth="yes"/>
      <point x="537.048" y="720"/>
      <point x="621.059" y="638"/>
      <point x="599.992" y="505" type="curve" smooth="yes"/>
      <point x="578.766" y="371"/>
      <point x="469.936" y="290"/>
      <point x="310.936" y="290" type="curve" smooth="yes"/>
      <point x="235.936" y="290" type="line"/>
      <point x="226.432" y="230" type="line"/>
      <point x="431.432" y="230" type="line"/>
      <point x="413.216" y="115" type="line"/>
      <point x="208.216" y="115" type="line"/>
      <point x="190" y="0" type="line"/>
      <point x="40" y="0" type="line"/>
      <point x="58.216" y="115" type="line"/>
      <point x="-16.784" y="115" type="line"/>
      <point x="1.432" y="230" type="line"/>
      <point x="76.432" y="230" type="line"/>
      <point x="85.936" y="290" type="line"/>
      <point x="10.936" y="290" type="line"/>
      <point x="29.944" y="410" type="line"/>
      <point x="104.944" y="410" type="line"/>
    </contour>
    <contour>
      <point x="285.04" y="600" type="line"/>
      <point x="254.944" y="410" type="line"/>
      <point x="329.944" y="410" type="line" smooth="yes"/>
      <point x="395.944" y="410"/>
      <point x="440.488" y="445"/>
      <point x="449.992" y="505" type="curve" smooth="yes"/>
      <point x="459.496" y="565"/>
      <point x="426.04" y="600"/>
      <point x="360.04" y="600" type="curve" smooth="yes"/>
    </contour>
  </outline>
</glyph>
<glyph name="uni2113" format="2">
  <advance width="600" height="985"/>
  <unicode hex="2113"/>
  <outline>
    <contour>
      <point x="392.632" y="730" type="curve" smooth="yes"/>
      <point x="275.632" y="730"/>
      <point x="184.91" y="656"/>
      <point x="168.328" y="545" type="curve" smooth="yes"/>
      <point x="112.512" y="180" type="line" smooth="yes"/>
      <point x="94.8208" y="62"/>
      <point x="169.416" y="-10"/>
      <point x="287.416" y="-10" type="curve" smooth="yes"/>
      <point x="415.416" y="-10"/>
      <point x="484.731" y="93"/>
      <point x="484.731" y="93" type="curve"/>
      <point x="384.928" y="170" type="line"/>
      <point x="384.928" y="170"/>
      <point x="352.8" y="125"/>
      <point x="308.8" y="125" type="curve" smooth="yes"/>
      <point x="274.8" y="125"/>
      <point x="257.126" y="146"/>
      <point x="262.512" y="180" type="curve" smooth="yes"/>
      <point x="318.328" y="545" type="line" smooth="yes"/>
      <point x="323.555" y="578"/>
      <point x="345.04" y="600"/>
      <point x="372.04" y="600" type="curve" smooth="yes"/>
      <point x="399.04" y="600"/>
      <point x="413.555" y="578"/>
      <point x="408.328" y="545" type="curve" smooth="yes"/>
      <point x="403.259" y="513" type="line" smooth="yes"/>
      <point x="394.389" y="457"/>
      <point x="358.736" y="415"/>
      <point x="303.568" y="395" type="curve" smooth="yes"/>
      <point x="26.728" y="295" type="line"/>
      <point x="50.6704" y="181" type="line"/>
      <point x="327.51" y="281" type="line" smooth="yes"/>
      <point x="446.322" y="324"/>
      <point x="527.102" y="411"/>
      <point x="543.259" y="513" type="curve" smooth="yes"/>
      <point x="548.328" y="545" type="line" smooth="yes"/>
      <point x="565.91" y="656"/>
      <point x="503.632" y="730"/>
    </contour>
  </outline>
</glyph>
<glyph name="trademark" format="2">
  <advance width="600" height="985"/>
  <unicode hex="2122"/>
  <outline>
    <contour>
      <point x="357.464" y="730" type="line"/>
      <point x="437.464" y="730" type="line"/>
      <point x="455.307" y="628" type="line" smooth="yes"/>
      <point x="460.189" y="602"/>
      <point x="456.536" y="560"/>
      <point x="456.536" y="560" type="curve"/>
      <point x="462.536" y="560" type="line"/>
      <point x="462.536" y="560"/>
      <point x="473.189" y="602"/>
      <point x="485.307" y="628" type="curve" smooth="yes"/>
      <point x="534.464" y="730" type="line"/>
      <point x="612.464" y="730" type="line"/>
      <point x="555.44" y="370" type="line"/>
      <point x="500.44" y="370" type="line"/>
      <point x="540.198" y="621" type="line" smooth="yes"/>
      <point x="543.842" y="644"/>
      <point x="558.128" y="690"/>
      <point x="558.128" y="690" type="curve"/>
      <point x="549.128" y="690" type="line"/>
      <point x="549.128" y="690"/>
      <point x="533.683" y="643"/>
      <point x="524.04" y="620" type="curve" smooth="yes"/>
      <point x="476.616" y="510" type="line"/>
      <point x="424.616" y="510" type="line"/>
      <point x="410.198" y="621" type="line" smooth="yes"/>
      <point x="406.842" y="644"/>
      <point x="406.128" y="690"/>
      <point x="406.128" y="690" type="curve"/>
      <point x="398.128" y="690" type="line"/>
      <point x="398.128" y="690"/>
      <point x="398.842" y="644"/>
      <point x="395.198" y="621" type="curve" smooth="yes"/>
      <point x="355.44" y="370" type="line"/>
      <point x="300.44" y="370" type="line"/>
    </contour>
    <contour>
      <point x="323.464" y="730" type="line"/>
      <point x="315.544" y="680" type="line"/>
      <point x="215.544" y="680" type="line"/>
      <point x="166.44" y="370" type="line"/>
      <point x="106.44" y="370" type="line"/>
      <point x="155.544" y="680" type="line"/>
      <point x="55.544" y="680" type="line"/>
      <point x="63.464" y="730" type="line"/>
    </contour>
  </outline>
</glyph>
<glyph name="partialdiff" format="2">
  <advance width="600" height="985"/>
  <unicode hex="2202"/>
  <outline>
    <contour>
      <point x="386.056" y="215" type="line" smooth="yes"/>
      <point x="376.71" y="156"/>
      <point x="333.008" y="120"/>
      <point x="269.008" y="120" type="curve" smooth="yes"/>
      <point x="205.008" y="120"/>
      <point x="172.71" y="156"/>
      <point x="182.056" y="215" type="curve" smooth="yes"/>
      <point x="191.56" y="275" type="line" smooth="yes"/>
      <point x="200.589" y="332"/>
      <point x="244.974" y="366"/>
      <point x="307.974" y="366" type="curve" smooth="yes"/>
      <point x="370.974" y="366"/>
      <point x="404.589" y="332"/>
      <point x="395.56" y="275" type="curve" smooth="yes"/>
    </contour>
    <contour>
      <point x="562.984" y="385" type="line" smooth="yes"/>
      <point x="579.299" y="488"/>
      <point x="550.03" y="581"/>
      <point x="479.594" y="654" type="curve" smooth="yes"/>
      <point x="406.632" y="730" type="line"/>
      <point x="197.632" y="730" type="line"/>
      <point x="337.664" y="585" type="line" smooth="yes"/>
      <point x="427.091" y="493"/>
      <point x="414.568" y="395"/>
      <point x="414.568" y="395" type="curve"/>
      <point x="404.568" y="395" type="line"/>
      <point x="404.568" y="395"/>
      <point x="403.408" y="495"/>
      <point x="278.408" y="495" type="curve" smooth="yes"/>
      <point x="154.408" y="495"/>
      <point x="62.944" y="410"/>
      <point x="41.56" y="275" type="curve" smooth="yes"/>
      <point x="32.056" y="215" type="line" smooth="yes"/>
      <point x="11.6224" y="86"/>
      <point x="97.416" y="-10"/>
      <point x="248.416" y="-10" type="curve" smooth="yes"/>
      <point x="399.416" y="-10"/>
      <point x="514.83" y="81"/>
      <point x="535.264" y="210" type="curve" smooth="yes"/>
    </contour>
  </outline>
</glyph>
<glyph name="product" format="2">
  <advance width="600" height="985"/>
  <unicode hex="220F"/>
  <outline>
    <contour>
      <point x="84.048" y="720" type="line"/>
      <point x="61.872" y="580" type="line"/>
      <point x="121.872" y="580" type="line"/>
      <point x="3.072" y="-170" type="line"/>
      <point x="153.072" y="-170" type="line"/>
      <point x="271.872" y="580" type="line"/>
      <point x="411.872" y="580" type="line"/>
      <point x="293.072" y="-170" type="line"/>
      <point x="443.072" y="-170" type="line"/>
      <point x="561.872" y="580" type="line"/>
      <point x="621.872" y="580" type="line"/>
      <point x="644.048" y="720" type="line"/>
    </contour>
  </outline>
</glyph>
<glyph name="uni2210" format="2">
  <advance width="600"/>
  <unicode hex="2210"/>
  <outline>
    <contour>
      <point x="-56.928" y="-170" type="line"/>
      <point x="503.072" y="-170" type="line"/>
      <point x="525.248" y="-30" type="line"/>
      <point x="465.248" y="-30" type="line"/>
      <point x="584.048" y="720" type="line"/>
      <point x="434.048" y="720" type="line"/>
      <point x="315.248" y="-30" type="line"/>
      <point x="175.248" y="-30" type="line"/>
      <point x="294.048" y="720" type="line"/>
      <point x="144.048" y="720" type="line"/>
      <point x="25.248" y="-30" type="line"/>
      <point x="-34.752" y="-30" type="line"/>
    </contour>
  </outline>
</glyph>
<glyph name="radical" format="2">
  <advance width="600" height="985"/>
  <unicode hex="221A"/>
  <outline>
    <contour>
      <point x="-29.264" y="415" type="line"/>
      <point x="-7.88" y="550" type="line"/>
      <point x="186.12" y="550" type="line"/>
      <point x="212.531" y="218" type="line" smooth="yes"/>
      <point x="216.77" y="169"/>
      <point x="211.424" y="110"/>
      <point x="211.424" y="110" type="curve"/>
      <point x="217.424" y="110" type="line"/>
      <point x="217.424" y="110"/>
      <point x="229.77" y="169"/>
      <point x="250.531" y="218" type="curve" smooth="yes"/>
      <point x="464.632" y="730" type="line"/>
      <point x="620.632" y="730" type="line"/>
      <point x="294" y="0" type="line"/>
      <point x="108" y="0" type="line"/>
      <point x="63.736" y="415" type="line"/>
    </contour>
  </outline>
</glyph>
<glyph name="uni2223" format="2">
  <advance width="600"/>
  <unicode hex="2223"/>
  <outline>
    <contour>
      <point x="439.124" y="720.483" type="line"/>
      <point x="324.994" y="-0.0352783" type="line" name="sv02"/>
      <point x="174.994" y="-0.0352783" type="line" name="sv04"/>
      <point x="289.124" y="720.483" type="line" name="sv05"/>
    </contour>
  </outline>
</glyph>
<glyph name="uni2225" format="2">
  <advance width="600"/>
  <unicode hex="2225"/>
  <outline>
    <contour>
      <point x="329.124" y="720.483" type="line"/>
      <point x="214.994" y="-0.0352783" type="line" name="sv02"/>
      <point x="64.9944" y="-0.0352783" type="line" name="sv04"/>
      <point x="179.124" y="720.483" type="line" name="sv05"/>
    </contour>
    <contour>
      <point x="549.124" y="720.483" type="line"/>
      <point x="434.994" y="-0.0352783" type="line" name="sv02"/>
      <point x="284.994" y="-0.0352783" type="line" name="sv04"/>
      <point x="399.124" y="720.483" type="line" name="sv05"/>
    </contour>
  </outline>
</glyph>
